<mxfile host="65bd71144e">
    <diagram id="HIP3nbAZw_EuaXWnEj3U" name="Page-1">
        <mxGraphModel dx="636" dy="588" grid="1" gridSize="10" guides="1" tooltips="1" connect="1" arrows="1" fold="1" page="1" pageScale="1" pageWidth="850" pageHeight="1100" math="0" shadow="0">
            <root>
                <mxCell id="0"/>
                <mxCell id="1" parent="0"/>
                <mxCell id="7" value="http://ics2o.mths.ca" style="swimlane;whiteSpace=wrap;html=1;" parent="1" vertex="1">
                    <mxGeometry y="30" width="760" height="493" as="geometry"/>
                </mxCell>
                <mxCell id="8" value="Calculate" style="rounded=1;whiteSpace=wrap;html=1;" vertex="1" parent="7">
                    <mxGeometry x="160" y="340" width="100" height="20" as="geometry"/>
                </mxCell>
                <mxCell id="9" value="Enter here" style="rounded=1;whiteSpace=wrap;html=1;" vertex="1" parent="7">
                    <mxGeometry x="200" y="270" width="80" height="30" as="geometry"/>
                </mxCell>
                <mxCell id="10" value="" style="shape=image;verticalLabelPosition=bottom;labelBackgroundColor=default;verticalAlign=top;aspect=fixed;imageAspect=0;image=data:image/png,iVBORw0KGgoAAAANSUhEUgAAALUAAAIVCAYAAACX0L5uAAAMPmlDQ1BJQ0MgUHJvZmlsZQAASImVVwdYU8kWnluSkEBoAQSkhN4EkRpASggt9N5EJSQBQokxEFTs6KKCaxcL2NBVEQUrzYIidhbF3hcLKsq6WLArb1JA133le+f75t7//nPmP2fOnVsGALXjHJEoD1UHIF9YKI4N9qcnp6TSSU8BAkgAA6bAg8MtEDGjo8MBtKHz3+3ddegN7Yq9VOuf/f/VNHj8Ai4ASDTEGbwCbj7EBwHAq7gicSEARClvNqVQJMWwAS0xTBDihVKcJcdVUpwhx3tlPvGxLIjbAVBS4XDEWQCoXoI8vYibBTVU+yF2FPIEQgDU6BD75OdP4kGcDrE19BFBLNVnZPygk/U3zYxhTQ4naxjL5yIzpQBBgSiPM+3/LMf/tvw8yVAMS9hUssUhsdI5w7rdzJ0UJsUqEPcJMyKjINaE+IOAJ/OHGKVkS0IS5P6oAbeABWsGdCB25HECwiA2gDhImBcZruAzMgVBbIjhCkGnCgrZ8RDrQryQXxAYp/DZLJ4Uq4iFNmSKWUwFf5YjlsWVxrovyU1gKvRfZ/PZCn1MtTg7PgliCsTmRYLESIhVIXYoyI0LU/iMLc5mRQ75iCWx0vzNIY7lC4P95fpYUaY4KFbhX5ZfMDRfbHO2gB2pwPsLs+ND5PXB2rkcWf5wLtglvpCZMKTDL0gOH5oLjx8QKJ879owvTIhT6HwQFfrHysfiFFFetMIfN+XnBUt5U4hdCoriFGPxxEK4IOX6eKaoMDpenidenMMJjZbngy8D4YAFAgAdSGDLAJNADhB09jX2wSt5TxDgADHIAnxgr2CGRiTJeoTwGAeKwZ8Q8UHB8Dh/WS8fFEH+6zArP9qDTFlvkWxELngCcT4IA3nwWiIbJRyOlggeQ0bwj+gc2Lgw3zzYpP3/nh9ivzNMyIQrGMlQRLrakCcxkBhADCEGEW1wfdwH98LD4dEPNiecgXsMzeO7P+EJoYvwkHCN0E24NVFQIv4pywjQDfWDFLXI+LEWuCXUdMX9cW+oDpVxHVwf2OMuMA4T94WRXSHLUuQtrQr9J+2/zeCHu6HwIzuSUfIIsh/Z+ueRqraqrsMq0lr/WB95rhnD9WYN9/wcn/VD9XnwHPazJ7YQO4CdwU5g57AjWCOgY61YE9aBHZXi4dX1WLa6hqLFyvLJhTqCf8QburPSShY41jr2On6R9xXyp0rf0YA1STRNLMjKLqQz4ReBT2cLuQ6j6E6OTs4ASL8v8tfXmxjZdwPR6fjOzfsDAO/WwcHBw9+50FYA9rnDx7/5O2fNgJ8OZQDONnMl4iI5h0sPBPiWUINPmh4wAmbAGs7HCbgBL+AHAkEoiALxIAVMgNlnw3UuBlPADDAXlIJysAysBuvBJrAV7AR7wH7QCI6AE+A0uAAugWvgDlw9PeAF6AfvwGcEQUgIFaEheogxYoHYIU4IA/FBApFwJBZJQdKRLESISJAZyDykHFmBrEe2IDXIPqQZOYGcQ7qQW8gDpBd5jXxCMVQF1UINUUt0NMpAmWgYGo+OR7PQyWgxOh9dgq5Fq9HdaAN6Ar2AXkO70RfoAAYwZUwHM8HsMQbGwqKwVCwTE2OzsDKsAqvG6rAWeJ+vYN1YH/YRJ+I0nI7bwxUcgifgXHwyPgtfjK/Hd+INeDt+BX+A9+PfCFSCAcGO4ElgE5IJWYQphFJCBWE74RDhFHyWegjviESiDtGK6A6fxRRiDnE6cTFxA7GeeJzYRXxEHCCRSHokO5I3KYrEIRWSSknrSLtJraTLpB7SByVlJWMlJ6UgpVQloVKJUoXSLqVjSpeVnip9JquTLcie5CgyjzyNvJS8jdxCvkjuIX+maFCsKN6UeEoOZS5lLaWOcopyl/JGWVnZVNlDOUZZoDxHea3yXuWzyg+UP6poqtiqsFTSVCQqS1R2qBxXuaXyhkqlWlL9qKnUQuoSag31JPU+9YMqTdVBla3KU52tWqnaoHpZ9aUaWc1Cjak2Qa1YrULtgNpFtT51srqlOkudoz5LvVK9Wf2G+oAGTWOMRpRGvsZijV0a5zSeaZI0LTUDNXma8zW3ap7UfETDaGY0Fo1Lm0fbRjtF69EiallpsbVytMq19mh1avVra2q7aCdqT9Wu1D6q3a2D6VjqsHXydJbq7Ne5rvNphOEI5gj+iEUj6kZcHvFed6Suny5ft0y3Xvea7ic9ul6gXq7ecr1GvXv6uL6tfoz+FP2N+qf0+0ZqjfQayR1ZNnL/yNsGqIGtQazBdIOtBh0GA4ZGhsGGIsN1hicN+4x0jPyMcoxWGR0z6jWmGfsYC4xXGbcaP6dr05n0PPpaeju938TAJMREYrLFpNPks6mVaYJpiWm96T0zihnDLNNslVmbWb+5sXmE+QzzWvPbFmQLhkW2xRqLMxbvLa0skywXWDZaPrPStWJbFVvVWt21plr7Wk+2rra+akO0Ydjk2mywuWSL2rraZttW2l60Q+3c7AR2G+y6RhFGeYwSjqoedcNexZ5pX2Rfa//AQcch3KHEodHh5Wjz0amjl48+M/qbo6tjnuM2xztjNMeEjikZ0zLmtZOtE9ep0umqM9U5yHm2c5PzKxc7F77LRpebrjTXCNcFrm2uX93c3cRudW697ubu6e5V7jcYWoxoxmLGWQ+Ch7/HbI8jHh893TwLPfd7/uVl75Xrtcvr2Virsfyx28Y+8jb15nhv8e72ofuk+2z26fY18eX4Vvs+9DPz4/lt93vKtGHmMHczX/o7+ov9D/m/Z3myZrKOB2ABwQFlAZ2BmoEJgesD7weZBmUF1Qb1B7sGTw8+HkIICQtZHnKDbcjmsmvY/aHuoTND28NUwuLC1oc9DLcNF4e3RKARoRErI+5GWkQKIxujQBQ7amXUvWir6MnRh2OIMdExlTFPYsfEzog9E0eLmxi3K+5dvH/80vg7CdYJkoS2RLXEtMSaxPdJAUkrkrqTRyfPTL6Qop8iSGlKJaUmpm5PHRgXOG71uJ4017TStOvjrcZPHX9ugv6EvAlHJ6pN5Ew8kE5IT0rflf6FE8Wp5gxksDOqMvq5LO4a7gueH28Vr5fvzV/Bf5rpnbki81mWd9bKrN5s3+yK7D4BS7Be8ConJGdTzvvcqNwduYN5SXn1+Ur56fnNQk1hrrB9ktGkqZO6RHaiUlH3ZM/Jqyf3i8PE2wuQgvEFTYVa8Ee+Q2It+UXyoMinqLLow5TEKQemakwVTu2YZjtt0bSnxUHFv03Hp3Ont80wmTF3xoOZzJlbZiGzMma1zTabPX92z5zgOTvnUubmzv29xLFkRcnbeUnzWuYbzp8z/9Evwb/UlqqWiktvLPBasGkhvlCwsHOR86J1i76V8crOlzuWV5R/WcxdfP7XMb+u/XVwSeaSzqVuSzcuIy4TLru+3Hf5zhUaK4pXPFoZsbJhFX1V2aq3qyeuPlfhUrFpDWWNZE332vC1TevM1y1b92V99vprlf6V9VUGVYuq3m/gbbi80W9j3SbDTeWbPm0WbL65JXhLQ7VldcVW4tairU+2JW478xvjt5rt+tvLt3/dIdzRvTN2Z3uNe03NLoNdS2vRWklt7+603Zf2BOxpqrOv21KvU1++F+yV7H2+L33f9f1h+9sOMA7UHbQ4WHWIdqisAWmY1tDfmN3Y3ZTS1NUc2tzW4tVy6LDD4R1HTI5UHtU+uvQY5dj8Y4Otxa0Dx0XH+05knXjUNrHtzsnkk1fbY9o7T4WdOns66PTJM8wzrWe9zx4553mu+TzjfOMFtwsNHa4dh353/f1Qp1tnw0X3i02XPC61dI3tOnbZ9/KJKwFXTl9lX71wLfJa1/WE6zdvpN3ovsm7+exW3q1Xt4tuf74z5y7hbtk99XsV9w3uV/9h80d9t1v30QcBDzoexj2884j76MXjgsdfeuY/oT6peGr8tOaZ07MjvUG9l56Pe97zQvTic1/pnxp/Vr20fnnwL7+/OvqT+3teiV8Nvl78Ru/Njrcub9sGogfuv8t/9/l92Qe9Dzs/Mj6e+ZT06ennKV9IX9Z+tfna8i3s293B/MFBEUfMkf0KYLChmZkAvN4BADUFABrcn1HGyfd/MkPke1YZAv8Jy/eIMnMDoA7+v8f0wb+bGwDs3Qa3X1BfLQ2AaCoA8R4AdXYebkN7Ndm+UmpEuA/YHPs1Iz8D/BuT7zl/yPvnM5CquoCfz/8Crbp8cmkB/04AAACWZVhJZk1NACoAAAAIAAUBEgADAAAAAQABAAABGgAFAAAAAQAAAEoBGwAFAAAAAQAAAFIBKAADAAAAAQACAACHaQAEAAAAAQAAAFoAAAAAAAAAkAAAAAEAAACQAAAAAQADkoYABwAAABIAAACEoAIABAAAAAEAAAC1oAMABAAAAAEAAAIVAAAAAEFTQ0lJAAAAU2NyZWVuc2hvdK10odoAAAAJcEhZcwAAFiUAABYlAUlSJPAAAALdaVRYdFhNTDpjb20uYWRvYmUueG1wAAAAAAA8eDp4bXBtZXRhIHhtbG5zOng9ImFkb2JlOm5zOm1ldGEvIiB4OnhtcHRrPSJYTVAgQ29yZSA2LjAuMCI+CiAgIDxyZGY6UkRGIHhtbG5zOnJkZj0iaHR0cDovL3d3dy53My5vcmcvMTk5OS8wMi8yMi1yZGYtc3ludGF4LW5zIyI+CiAgICAgIDxyZGY6RGVzY3JpcHRpb24gcmRmOmFib3V0PSIiCiAgICAgICAgICAgIHhtbG5zOmV4aWY9Imh0dHA6Ly9ucy5hZG9iZS5jb20vZXhpZi8xLjAvIgogICAgICAgICAgICB4bWxuczp0aWZmPSJodHRwOi8vbnMuYWRvYmUuY29tL3RpZmYvMS4wLyI+CiAgICAgICAgIDxleGlmOlVzZXJDb21tZW50PlNjcmVlbnNob3Q8L2V4aWY6VXNlckNvbW1lbnQ+CiAgICAgICAgIDxleGlmOlBpeGVsWERpbWVuc2lvbj4yOTQwPC9leGlmOlBpeGVsWERpbWVuc2lvbj4KICAgICAgICAgPGV4aWY6UGl4ZWxZRGltZW5zaW9uPjE5MTI8L2V4aWY6UGl4ZWxZRGltZW5zaW9uPgogICAgICAgICA8dGlmZjpSZXNvbHV0aW9uVW5pdD4yPC90aWZmOlJlc29sdXRpb25Vbml0PgogICAgICAgICA8dGlmZjpYUmVzb2x1dGlvbj4xNDQvMTwvdGlmZjpYUmVzb2x1dGlvbj4KICAgICAgICAgPHRpZmY6WVJlc29sdXRpb24+MTQ0LzE8L3RpZmY6WVJlc29sdXRpb24+CiAgICAgICAgIDx0aWZmOk9yaWVudGF0aW9uPjE8L3RpZmY6T3JpZW50YXRpb24+CiAgICAgIDwvcmRmOkRlc2NyaXB0aW9uPgogICA8L3JkZjpSREY+CjwveDp4bXBtZXRhPgqgZd4IAABAAElEQVR4Aezd2bMkuXUe8Oru28v0zHAWUiJpSuSMLFGLLVoOi5ZsvzjC/7Pf/OAIR8iWw5IlmXLQpGlSXCSRnCFn6X25Pj9kfVWovJm13K1vDxvduMgEDg6Agw8HB0hk1rXjcouXxI2rmnvh8+Pni+Pnz9eh66WX/uzZ88XTZ88WT58+XTx98qTuny2OK4/wyTLuSRf/vPJIP35eYfFpvCt8xlce/nml9WVcW1xb+F8ZF/4Nofv6v0y6du3a4vr164vrN24sblR4o8Kjo6Mhru6lr737yr/Mc6Pojo5uLm6Wl195eMh/46j4VRze6IdylrxQtriBP5p1GUkb6jXk20wHD/F92G6u6J9r1eEvHahVeewDLmHAOgAPeAvUBdzHjx8vHjx4sPj0008Xjx49GoBZaQMOB+A/e/a04gv4gFt5gBsoh84GgDUwAKoB5HrF49L+D52/0d8V1dgYJHUx1LELl/FtAFU62mvF8+hGgRX4gfXGsizlr8paLG7durW4+/rri9dee21x6/btRjuArwZMAf36sr4NxHIuB0i7X4I/1wF7wsRPhRvtu2I3R1esPrPVGYM492swlxamPcsDNe0LuI/5x49KOwNraeXSxo8ePVw8efyk6Au0pW0poQF0A9AC7CfyPH+2BPUAKh1+A8AKaMcAd1wg4wGbOi7XQDdctDuDApNW16rb85o1XDeNX/zXbRhmBtRA/PzmzcXR8c02+1x/RgNLGfgDmrqE56OHDwvENDmtfdTAfvvOnXYv2wDMqneB3EC9PgK0dDLtwyHPWoP3960eBHcF3ZXW1IQc51oHjsMhrkwLmvhJad8K0TysTv7kk08WH3300eIXv/hFA/Otm7cXd+7cXtx97W4DZjNFaOUCOvNFp3HyA7MB8PTpADpx9V+qP+VovdXVBuCa6SEppANZ+ysNL67nN/AqANXF9RogDZgFaqHZgWP6AOVNYGeG3LxVMnm2uHfvfmuvAQzUn/vc5xafe2vwt0t7K8egu1Ga//r1pfY2CFsbhjK1PRo6YQ/iuXT1itxcXwV3ZTX1ACKdP4BgbL8Cc8wLIUA/eHC/mRcP7t9fPHr4qIHyYWnlQXsXKAD46Y0WLhZDCNBPnjxugIHSdKTOGUBwNGCz4XAAo7RWv+HC32m3JA/IJztfmX3uumn3FV+TyOJ5G6RVXrVXm4EygyKaWruAW0Zpj2pmMpjv37/XNDazhNa+U/7m0a0BvEynGiAGEAMM6OVdhUtZGGQtfhkqk4uc0qaEfVNe1PWV0tTpLMJwzYzotXMP7DZ1N5AOoGQrf/LJx4sPfv7B4sc/+UkzN955953FO2+/s3jr7bebZm629MMHTZvTwoMmXtrPQFPmg85pi7fShrTcrdKGtCINeBTbtmgMgOY2g4pag7Rvz0C8+be1saLSrjZzFIjVi8nEfHId0CqK6XOz6nLzJk9bq9utAuxri9ffeKMojhcff/Jpm51++o//2Kr5xS/++uLzn//84u2Sw2s1SzVtzXSy4CyQqrF2A7hZoYJlSIsvTSt0jcZAWF8nThjXXyfuMsMro6kDgHU4AJoGMu3GDtXx7OHHpV2f6Pha/LGRmRs09f3S0uxng6ENiOpkQABUchcXsAATZapz7SU0jVWdiNYC7M5rdwrYdxqwB/AsF23FiEbDsHVl36HFbxnbBuZcZzZAt4HL1LFIHXZmgPjRo8dtIF1jKtyo9UC1mRzUEGj9bTs2BnXle+3O9RZ7o2lbCoG8hrUFuZm17t271+ql7cwW/mhpxjBxLHqP29qg+Fd7rl+rUkoWxxXWXa0Xyg5vNJRNxRWNcKy5094XCewXqqkD4AgiHb2pnW2fDYs8Ha+DPv30kza10s78/QcPW8cTMPDdun2rAcBuhzwEjOfAR6hTlrQFXlMzjZwdBpqsaWudTaM1cBXYi/+gzWi0gFqoBfWnOrldSZtwfXvT1oTR1mz5BvA2CzGXspC0CK4FcA1mJhX72bV2qVc0OM0K9hayZhr1tODlDY6j2hF5/fW7rc22BrX97t27NYhvDxpYW7Wz8jUt3UKDeFo7N9plmrLcC5t8ljLoryfEcu5RV0JTp2OFOqn3gKjzTMcPCrzsZbYizQy0NM+jh8vOrQ5jJtwuoBKkTkRD++FNI9FON28N+706nZ3ZtsMqD/MCONoU3HXO0EkF22VnVVAuHZcQpvcHNQ59u1vOyt9kUJpWaIayzWe3guYFdu25XzOS9mv7U8BuaU8r7lEbW9pxp2Rx2+AukBsY8saU0UYyflwLx7YLVPIhh7ZbYnAb1NX+4+vD4Ke5e00NuFzAqq4Bc+LXspoe4I3BBf154Zo6HdsD2bVOCKCZF3Yyfv7znxeoH7SOG4Q2CLfgsdqHtk1XMh6AWZ3X7MfqBGC+w0YujdSm3erQZicX0G+1adjOAE0DpEyVAawrAA+9VfFDTwwdOtwM14eDGiftb+Fws7pvD5OA2WqxhYNMhgdItR6oAWun5+nTYW2waYMPICZDedUP0C0YaerUt8QmuS1CmVrvvPtuae3XF9fbDLVcQxTA0WcLMOAVxktvNMu4XCc+YWvoJfx5QZqaRiLQpWZagjhgpmF1Fk8rffzRLxuo731a9nKltYcKJcBr7L6la+BoiBtMjUpudiObeDBJSiuzj0t7mXYBOp0ymBX4DdqHdhs6ItzX2qYV0aI3AR3KbWEAPEWzagnBlItsmBKEFfPkVru+3bYgyYs8aGCgpqntfDyuNQdFYFYDbAP1eQmkrU8K58XQPFNtZEfbFXrWlMXz5x8sHtx90Bacd+phznEN9hs3hm3EY4At+pa3hfgM9QyIc0+uXB+f+5ZwwX9egKYegKzT0lEBs/BJAfkxm7F1zqO2iv/hD3/UOu7ddz/fpknT7ZOnZXosp+BH1Yk6yA5AA/GtsqvZyqWVhc3kKBAf1Y5Be0pHE5Xgx3ZioKsz5tw66TBQbwO0ssagbnEQ19ymEhA1HAtgogxaOeBu9jPtvTLNhgdQDx8N64+S+uJOycR+/Wslr5t1fePGzVIeDxY//elPm/n1m7/xG6W131nNasy2NuOVjNts1kIDf9DWdTGKH2zrKA3hoCQOk9nQ9sP/Xrqm1k/AnO06ZzJWpkZ1Bjvxfq3UH5TdzHb++OOPWxwtMQh0sXhaHWmHg4YyHbNHbLvZrmqPjNmHNdUOOxaDmWHBtyHkTtAB8TyUpwWbfNOpm7FotwF7VfZ61HQMaNVBKyayrN7G78bzG4vnpU3NPha75EGew/77Up6lsa/dK9u6LTTLDq/wcckOUA3s6x7KAGZ5eW19qi8bm2/728Bf9MfH5UsRG241AbRwkEPdLBsxJRdxATc5TNGkbWcNL1VTD9p5vBD0eNuCrqbP0hb37n06PAn85UeLD+tJYElx8c4777RFD3PEQumhBZJdgZKsrak32tmHu23B1/aWS1MDtIcnbfdiCWiCjG+Cc+8i4YHSPLRjtoF6quhd9NJ73xaUNdtlUdm0d5knWVA/rD16W552j8ibYjFz3S172iwHvOT6y1/8svXJaxX/xptv1BPKt5qysB4Z9ra7HRKDgvyWYYC7oUAqPfeRf8Kpdp817lI0dTqHeRHftIltK/ZgeXvMn5RWBmqLwQdlWugUti+A2qJ6XDT2pe3rur9VDx1eq4XNW/VY+PXalkLnoYQ8g2Zea+cAMGEvuKWC6aNeiusAI8BuFm+Bi/2s/U12pXkthA12uzzMMwAjZ7MiM4ZMmRh3j15fHAFoef3Tdlpo+eW9ReStys+cozCKUcmpNItZtK6eFx03lnF/r+ze9Wl9/FmuL1xTR+DCDUC3Bc7w4MReMzPjww8/bNq6nVPQMbVSl49wAZypYsok2GzFRcOwnW8WfTTzoDkGW24soDlBzsWP8+f+UHptOcTtS9/TuY5XFpkDaFMiS61NYdDatkiHrcF6yloKhnnnaaW1iDVHeyjE1Kt8TJu33nprtYgcbPHl2qTA3DTxytZea2bx5NTS6zr3iRMeKsddMrxQTV3iHf4tAR3hEuAwJT5c3Cv77Ze/rN2NCh+WkO3N3ijhsAsIuZ2DXgKa3Xy7pkkawwMD06MOaJq5OuOobeENC5gpYfWdv0swL2t6ANKHgJTB3rR3WyhSDA+X5siNNlM+flznZEr+7HP0rRvaycN6gFOm38cff1TrmMeL15++2eRP65fabkBt8mqKetjbjvwG23tzLlQ3der7I/VNvrOEFwbqBmdag6Yo72lYtAXBPGr23b3FL0o7/+Qnf794XEJ75523F6/futsEZ0vqoxIi5Xbn9nCuwek6W03tQUF1TNvZWJkatEBGfcJN0cwJbi5+M/fLczduj3u+B3czTwq4bYFZsnz48LUC9rBD8lGdHfFIPjskr7/9VvXJ08WHH3yw+GUdlHq7NP1bb71dZ2oGxVPIHoRTD2uOn1c5bat1UGieb5at2B7eGDBcAN2DWvy43kkfx6Pd5i4E1CrT/q0AbQozBQ5nnAnPYuWjX/6i9qA/rkXJs/ZwQGOheFi5O+9Q4ipNwG5+441BO7xWi5kezDpHvqHj0tRNzZDYX8UwgBDql0FOA8A9kBk0d82AbfvTSwZHrT+eNpNvWMSzm9tj+FqAP3lcTy5rRr1+/ZNmHuovGls/1Uqn4peyr75b90INqhJ+6tL3Q+vzLmKKpkve6/LcQd0ADdTlBw092GR58mVB6Fikp4N//w//UI29tvgn/+TLZVbcKlOkgP6xhWIJrYT79tufr52NN0o7D4+zCW+wnYeFIAFEKOchjL0k9hITRUZRBGTHR2vbx7fYvl172LZVmYb37j1oC/m7NUN++UtfbubJBx98WPH3muJib7/1Zmn11+p0Y9PYTEfauSBeC/p60F9jYniymb4ai3Acn3omHNPvuj93UCuwAbq0r+mGhtZwK+22w7E8uP9pCYU50rRuCVPDcvDG6TQLwLdqK+nNN99sZzWGnY16ElhgT6ecttG7hPJZTu9lRo7uyd5uUgN3mXNRHPrPU8nWL0cecNlCLeCXxn72cDhcJr81kD6/XcCv3fIC9FKCFV4vjf2c9h4sj1nRzgF7NsOWhHMFtYYRRPywMBwOJAH0L37xYWnpj8v0cAxy0TS06Yop4mAN4d2st1PeervMjdLQ9kjbxv/GNt30jsaWNr5KGklAP8UBE2A2cC8B3p62FoG4e7UVaPvPtqsnjgBtvxq4mZFMkePaIbGQfLs6VX8el8YeSojG9sBmwEbKnQrPC9jnBuoe0NnlYHJsamj70Pca6JstV1OdheTwlkoBuoRlZ+OtehXp9Xqg0s5q1CImD1HWC8EpkbyKO1QCQBu3AW5AL3A6ihtt7umuxb3H8m23aWmPt3dBy/5eLD5t9ExOT3Zt+XmMPqB70NR9eSl3HJ4HsM8F1GtA12KwaeoKy+SwbWf6+uXHv2x29Ce1qnaoxnacZcRHtZXHNLF3dKcEYTEIzB6kNA1dWiHmBoHEjwXx6v4wCYzBlfvINwBvRxOqbywoHef99NOj6lMvHDwoYN9oD3OYKs53O3/zuHZHaO4v/NqvtUXkMGZKc18ry7pwbQaAlbE3s/cuwFYftKlfT7Pt+syg7iuock1LA3Rt23nsbW/zZz/92eJejXSVYxtzz54Nj7xNU6/drS27199s9jNNfadO0hFWbztH4C3zqz/nLoEAJ3JOCGAAHI1tpmV2eH7gDI8HZMyRxWLo73vH9wvspbUrXzufXQiry2ZnF7YnXcruE+UPoBP26duuzwTqMaCf1xslz2ph6KCRqerevU/q/MaHix/9+MdtFvraV3+zBHCz7XcyS9oZ59LQb75ZT6qc33D+wEGkAjTtoGFTDd7WoFdph0tgSsYDmNfHc5kSfHv1q/qGdn5Qfcy2NsPqN51sY8C6yaGpt+u5w927EG2Py/HX0rrLdVdfywC4x1Ou0anfIcA+NagVwgnbwjAPV2qx59Hrp7W48KTQthBbmB2WytuXlvvOnQL0G58r/0azw0xxNHloI+yU1Qp89efCJUDuc14fNlc0lJaZ2cEo6572hHHhhWE29r3q33raW/E3by352QmplPTrwGj735R3SJ5TgTog63c5nLTjH9WjVqvlX9aDlZ/9/GftxBgNbfpyQkyDjXjmhu9TGOU09ArQJYS8G5fmHtKg5HkVnl0C5A5UG/K3tiwvzvposLHvD2dG6jmChzQff7zc8arvkTiuqr9bn96wYHR+Z9q2hqspryUbddjRtINBHUCn8JUd3c5zDHvR7GiLQmeeaV0jliQsHG0NtUVhbdm9Xt6j7wDaaD8hxB0NeJV8sRIApgAq1+3eDF19fr/SmZJ2QW7dKsAWqL0DagPAjgmbpL2tX33bXDT9AdXOIJAlddmW/SBQ94DutbTrZkfX2xX2nH0RiQniOxTDyC0bqxrJ3rKooJ3fXGro4eFLHaCpBUfeg6MJXrnLk0D6dRtgTiib18qALECzsUuDDTtd1edA7YirN288OXaslRLTz4PxUfQ0fW2HRDHuG0Yi2+qJ5iBQy9BXYHjnbVgYOsrYNLQ3VepdOW9BW0Sg91ksttctB5M8VKlFoW299dsprxaFZHtVXQ8iZuTKFag5OyEAzhQp9b24bqFfayPrIzsk1lZMU+amJ8X4NZ72+QofBZYB7yvG0xcnBtY02f6g3gRz/9RwsKNpaF9HuldPCzW8NaiAzNxgRzvLAdDO5A7bdsv3B9sCMlPcKxU9009XIjrgBq7Wx/XxyuPbQGnb7no9frH7MbwwbYFov/p+KbR/qDM+H374weK3fuu32gO14VW+oc8HTJeN7YRf3ezjCUNd0Oa6XSz/HKipFToAmuZlUviG3cN6BO69Nls57GbnNextGrnMEie4HBkF6tdrH9r+JdATDGEM7hWg+465qtfAtO6zZc9VHAcTjx5ZQNYDtXIeoHm1DPgoNhsFwyeH9X+BunbF2lMZeyK2RXa4ADnhHPmBoDZb2MIbAD2cix52O+x4eCNZOkCzrbyyX7NP+5bdm2/a6fA6kO/TrbftUjH5VPaVu/oSCLCF8QMufC3qWvushXXW03rj31rp137919vZHq/pfXjtw/Z9EQrtWp299u+4dkf20dR4Kq/Hivux2wvUmLRKr7S0Cg/nOjwpdHDck6bsLxf1sH9ZFaaR32hPC8ueWgI6GroXyLhir+6vtgTSd6nlgBFfllp+i6SZIcMn38zcZnBHi2lr6ym4yAOdZr8UYHc5ZQI2Z7aYArS0naDeALQHLKWlaWon6jxR+vjjwZZmirxbX/gBWFs5djpMP6+9Vo+9y/Ro2nlpcrRRuhzlKjFXOWmv3NWVgH5bmyIUn+9lF6jL5CibtLZ0PZPwqQXf9DtePKjPNHji7HstQN0+zVD72E1LVzODtbmw19Ro4sb42QlqGVshVVmHlYZ3BodN909rK+d+mR0Ko6U9Ajf62rmAKvT1Wuna1muPvqsRaMaATsVehS+nBNbAXm4OFBbusKNhpRSdWZvz8EX/A7yvSB09qHdK62VezyYGglpbMUGXVsE2YA8Z5rX1VlD3jNvXlGjqGmlMD+ejf2k/uk5l+e6xE1imGAtDtL7HYX/SGxPtG25AvVwYjkdWKvkqfPkkkL6kzCis1u+AWRjwQMa6K59WhoPrhR1n5+9fe9C+CmATod4saBq9x9sh16SWerjeCmoEYU4bt6mlKmr6AGoPWNr+cwEW0wef3G9beDd8BLwA3b4z4Z3CV4Amys+00/8+X1HKuGHm+Z16IFd705zviLO1PYApsvZdF7P+6/UAjil77CtT9YqMt8BsLDTlnnBpauMfLI7DHtDKmwV1nxGYc++lWHvSzknX+Gg2FXta5XxPQq3fKO3siSGbut/pUHgqp/BX7uWXAFz0oGJjN1P0+Pbi9SUwbe2iu3279rUL3J4yXntSiz62dzn4ulb4sRMC2RsmCANmh0kinUs9ZkGNqGeWfWkHltq37mr7rtWhGuFVHm+Ko2cnWRg6I+1MhwZq6HpBgfMr91mTQBRW2nVzCTR29cPCBJMVjWMTvpttIyHf7LPuun39TqUDty2+DshLUAM+h0ePy5TXh3ny0cdtZMKMB+on9aClnZNup+0etQJsoLOjVdLrWF7l8RpWA3SZHeysHtAZVRsFvrr5zEggCiwv8job317Nq1kbRrjPf76+ElBA/tnPfrr44Q//rm0HW1jmdyStyXrg7nPdC3AS1AjCKICmiRn9Dofba/SRxmHk3WgrWrbQbWc77taoK1DbsukXhmhfuc+2BNLHDRc1O9s8gAMzN0yIt6Acvul3u0Be28L1QMYTaSf9YAzeGvYA+5Tg3mp+9Fra9DGcxKt31ArUro02mvi4DqZYJPiMrjgHlfp3C9OVabRKv3KfDQmkT7Um/SqOxm67IdXXbf+6ZnpPGAHZSvDG0fU6TvG5dg/Q1mkAT8M7wTf4wzR2JHoC1L2Gdj1o6hpRZUP7RJiHLSrsCOmQ7us9tZXD9KgpJotDccPIHBaHKfBV+NmXQIA+KLza3j0+WjwrjW27r+GrDnpYa/lEs6MUTnhyTvA5FxQMToXwyCljwN/6PuWeALUMYTYAetiX/qRG0g/+7odtmvj1On3FVrJgtBdpaqGl21HSqqzGAH5Ajecr99mXQEClpbkeNLbPK3v4Vh/BYcaWbW1XzLn6T+tlkh/84BcNV++8827lHLSzb23bBdnYCWlaf7v2Vu4Jm7oHdLS03Y28Gc6ett/oi6PFvjT5cW2i133bvjv5BvhnvytftXBOAg1gpdwA2yG3ts4qYOd1vVulAIG7fTqhcMSk9XKBTYlh4bg+4hxc7hNuaGoZOGAe/PBRxydl89iftofXHoPXnqKvmPoG9FF5lR0qvKmlG7NXf37lJBAtreEADVdmb8oQrtjVz0pROgxnD9szDUcrXNvmo8GHn+LYrpXnAL4BapVYExawW0GPW0GMeVsznIr5rofKWxD6IDfPTjoPW7oXSgZaK3j5p0/v48fXU3nHNOd9P65b6pDwvMvr+fVlbyuvp+vzn/d1yvE1AbgYTBBfeGKGDGathzF2RwCd4mQRsK2972gDgpptfml6pI7aN+dXoB4TtLMepZE9EveVS08Lf73OxVqd+ji3E3qF6mZbAzRNHVs69nQqcEhIEPHpmIT4JC3hHG95DL7kFcpzkW6uTn0dlD+uR9LH8XN1naJP2cKkC/meb0+XuoQu+ebK3Tf+ZJlMEL+rPmjs4TNyvrdXL+qW2VEYb+bGcE5k+LFT+HOyr9nURbn6t2zTuM79/QrUKixhMDto6RpJ5ds52LKjjaTPf8F3iI/KqK9jhZXmm8Z5E7zX0vs2vqczcpXVvhlSU5DyDBS7Kd5tG84N1PmSGsntZzQ8ki/Xd1j4iVMf+6Hyty3Gur9I14OlrxOZNhtxKVv3GfQ93Wnrpr/wJxc/MUJuZKXdZlbXXOpBvn5o1dqIvMVHVuTsrLN7dTyLw5dLG4V44q1f2xHm+sTvtevPmk39tLS535+JBvcksv3ECTgXrzmvjJTlmtvoaYkBNdC2j58Xc1OEeIZ8mLN5bOvl5ylU+NDOwiuNxttb6D/60Y8W3/72t5vJ433G3/iN31j8wR/8weLXascFfzR/9md/Vk+iftjyyh8eGpR7eb/61a8uvvKVryy+9KUvNWFK78t0fxrXl9fnFx85JD7yVC7ACdFkVkt90Uvj5vi3xNGfAPrH9RWsv/7rv26Ada5du7/+9a83cKdsgP77v//7xbe+9a3acfhB+0a4OjnE/5u/+ZuLb3zjGy10n8EwKu5Ut2mjULvxHs7k10dvNNkEupxEAbstGMu8ZRUc12N19c9uiOtdfgXqnnAY/cNLAEbzjes1VRQlkKuMH6wfKlevZnnQUm+Ne6afyh/ScuVybHaA/aA+MugtGgsGcUb1l7/85aZ1aBHa6G/+5m8W/+///b/FF7/4xfawJ4Mp5UZ4OlGnac9ZXeqJj2tlcAlzHRkIezrXfOoSusbkDH/0z89//vPFP/7jPzbZeHObFiYTg5pTJpkC9N/93d8tDAByRieND9jw++3f/u32wscZqnUiq/ZmMNPW7Gq7IOI4IflYMBqogyZfPl1ssiN3Y2D5r8WdBDheDdSYcRG8a2+2tJ8lK2C0F2UVVAB58mSYTlXKZjptnelKxePw6u8T34fS0REqABK0+3/2z/5Zmxp/8pOftFH7s5/9rJkQNK6OiJahWf7pP/2nTSApS8ibeml3GtvAiAtd7vcJIxf15FJGeCXs0xrhlj/hicT1mOeWrBtyjTyAGYi1GXANfgBVZyBhsv3VX/1Ve7ObPGhxSgGYpfn2NGVB1jS98xnqdZ4ubVTmAHDKkB+285wNUSTLoCGpblZyanVZ3zdod+mpq/CovwmDQRDOTddPAJd2VgF4tQ3jHGw7EN5so7KPKkwl07nhua9A0NOogM1ZkKqDj6GwFaO5dY6pSQfS4uhoFeWnbPld6ziP7GMjij+N25TJcCCHPAaZrAfxIbzDM3LKYAlfvPr2zPFGQx7kRHZMNUCmDDJDCcmKHQ24ZkCfKnj//fcXX/va15qcAFnZ3/nOd5rGR4tP+nWu/EPi0x7laC/e+oi54e1zB+Pg6rjs7LaeK6wdPavNhzprLe8axFWqsbYUfS/LyHOlqZOowOcY24tu+9HD96MxrcmgFX7rev0uSGlpo6x1RFVGhU7jUq68GupeI3iN7rVNOh8tu+wLX/hC/RrBPzkhfDzUa5jmhkEnj3guAm43e/yRT9kGFYf3eTm88RWm/Yfy1560V70sjGMTAz1tDvT4ezRtdnvvvffaoCcjC2rp3/3ud1s7s+i8KNs6dVVPCH34aDhLbdNhdcao6jP036DVj+u3o8loH78B6gbo6jyjmydsNo4fpVG4pzyATGBtR6GEpIIBIYFy7hW+r5uiFac+U2n46iCdQfCueyAkz6Hgnapv6hHZ9G1LOfKdpayUkfLxOpRfeERmqZsQsPUlkOg3wObJLXJk2tHgtLqdk/BJnc4rTNv0F6XlsXl9KLX1nzP4jx5ea68Iqq/1miMYQ1uarobC9m9cHzTxDdQIEoGZd8hoSDaOxpWIGw/XR0f1dnAVpuE+Kzb3kxWHdApa5Q+DaNBaylIHHSJdh/TAHTcqbRDOlT0XP8Ur/CKXdPKhPOZ4T8UrSzna6XqurHFa8pEXT9Mmb2TmngyB2LU8aaMyKYd//s//eVNmZkBmG9rzdKmTUL3ifdBG3Tzv8EqXhe+1+9cXn6v1UFWWPl3is2pT9Vb33vd1FL+hqUVoIC0NTOxpNvQtu+PF24qUM8J4jVaxVLZnvu91GqhRBgp7zko+dqB4tjHvOs4A0HnoxacOQvXixadTk2/fsBea67j+OnHnFU6VmXaNy0g99AOt697uEVODbNI/yS8MiBIXnvKSPVPOtZlY/tPKLnznwr4uqRMLwPrMNt7DB6W6yw0DfFCoukDdxh6duD5sC0WRGAwZhi0ewB609dPF3TfuVgOvNbCX/qhroBkAo4LxjXNXSO7nwghXw5gSNIROsY9q9Q6U9lstCPnBBhu4qZvdEt9py+BSf3nQ0TQGgrQ0eq4eh8afN79x+fvyR2eX5/33328A/Nu//du2iNZ2b/gDJhc5j6/l56WTk3zuA7Q+X2N0Tn/wjVeWGb9s28addeDkZ0uHtaKlvlPXPpRh6v6Eph6IBmADDpsH3+HQ/3KnowRgX1qFhsqdrbV46ABPtEyDEaprWgg4gb4HqIUNjf7973+/xcuj7gCNj3yus2A6Ww2vbm5ys20JxNrL25LjD2l7+kBLyZETd94uPIU8BWl7eLAQPNwbdkbshrg26zBJrtcH23MWZG2ODPVUx4Db9WpLLwkyaIpFYVsw1g8OPa/R4wG9fWkvAwDXUKnsepyu8RGeECh1gn1W+8/Mj3QY7WuA6bA4poeniuu6DHWguWh1DrAvwqVjLoI3nvvyR5fONPB///d/v+1ikKO2k19m4NQ1Ms/9VLhv+VN594nDP16/qyfl+bj6HPi8iKs3AZryar8BVDFth82A6+A2bo/7E5p62MYbtvOMFO+JieMw91gckFQmFWuJp/yTTpEdT7adjX8N4twrxwDTeNecOpguafO+HuJ4HYvfebuUf958z8KPrMgDkK2FyFT71XXc6dvKQZv2HZp3G9+pNPx5fRQ8GYDOVvsdTXvVFJlPQ7/+JhqnnsoMKWbRz2nbONywqQmn2dL13N3IYc8o1IkpjqBoSy/UplIt4ZR/UhnZh+lnsOONTvVQNq9ePS16HfhHf/RHi3/1r/7VSijiCUg9DQYmyzgfmpfdkX2c9pEPMJNbQG12I1PyO0QGaOVJGYfkTZ12hXjjGwylLPVV73fffafN1L4A9rh24m7Vtp6XuhsKg+hlIfiM/UpTr0AV4RQzi0EnpYwPGdnVtGV7ObIqNq7UrsZsSyfILPKUpaPwb4OoGtoLGh/x9lbfe++9DVBLk78P280p/kTYp8h6aVnUMXILKBRuUBvgcen43CdMHzLnLLzJ3exnttPXPY/kOY8w5SZkU8CZtnhJ4N6Ne20T4Pj5w8U7NXNXM5tDUx18Ash9nzdQoyYQDWLLUvleiPSqTalr1kwzQwArU8W6MkNhZ/mLFwFGmOqSSipTWhtMdd07dDya0Cfs6Q697nmo21V2AwiG33DXf+TBiTdj0dxzbUgfCm0H/vmf/3nbfXL0wK4TMxC4L8ql/BjJcOZLqL4d87jOHj2uD7V7wmh9t+qGhulNUI/rtzI/oJ/t7B0x5wN838OX/wnH/jTdpxIAFD9mdtp7fA2WaAX33DZw9Wmux/fyh4/rz6rTF8DL9zJIe5lxUUSu0dDKvDzSxNHS3/3ud5sJY6HtZORlOd0dbLUz1MsZxqG6oc5ADRP09PBvXDdtSPtXmhppxbaR8Wn7vvST9sV3jynv18dGJLeCi3l+Rcv9UNi4iP3u5/Kmctu4zOWVZ1vaNp5Jkz91SJi08w7Pg/82HgE98JqFgcSpPLsltLB0CzKHmgAbnbR+n/u824wfGfdePfzSl7aYXbwF48FfU6bNVljWAnjrskEbzgf9t0wE4TJh/FkLhS07fOPDNEZL+w1E38+TufEYVWbF7ZIu1Mm+rKmWSXKRbi2XiyzlYnkH1LY6yc1DLaAGKHFCC0yAtk6xx48O4AH8ol2AbddDefrVR28sEMl/SF/Wgt4tEDbMinI/BI0g/TUsFOG+GECtnY7hZ3iHnYTYssW+0vmW/4X9IWxvaWh8OkXDX1bX1z0dfJ5tAZRsk/7O7/xOO5bqbIUnsXaHoqkpsffee689KmdLX7TC0MYAVqgedtWaCbzU1IlvuCv6pqPhlFsGA6rXihmOh4cvjbDBtsA9vE4DvaIVlmOlrRIVL3wRToVNjb/3e7/XBiGN8qLq8iLaf5oyycfsRm7OW0cbOjMz9O2QTll4aYAtnb3/aL7TlLt/nqUZUhsSbVftaT2TKFCzGDy1Vt+iGJRuhf6rV/vXcHuypJVN3ZJkqH95AyGr6R7MLwpEGkKbsPX++I//uFWXRknHnGzaq5hIgOwsCsmL1vYInckR0OpTpgfgm/3mFp3hd54h/djw1cyPYX/c+7GwB9AGJFTS4MNP1I01dVT2AHZ1qxxR3YOmrtvlU8Rhiw+Qqtyh4BekoVU0zpTptSUdoiNe1CBLfV6WEEBo44DXghFwuDb1F3iyGyKOfC9Htg3VK2BTxVGmDdRVb4oWDq/7fvXyo2JNU7eUhmBVbk69y/wQqRGl4sG3DZ3Gpj2qxIxrr9tUehtVRZMGCzPiG+EF/lGODiB8zvV5urQjbTtP3leBl/ZpG3uZBuzbK/5FzXrMCyZuzFyYUzegbm+UF0Cbcm0nmwAWYuPci1rHNU2d5FVINRfl8P5YgbqBWKErinbxIjpfmRr7ohzh9QJ8UfU4bbnb5HeZ/ZmyhM0Ddv2jqdt3qWvDIm+bk7cNjOvtp54bhofmD3huSrmXR4EaIyjnlwVAb/l1Bw7xA7g7mp7TZ+A6gv4MNOWlbELkT5k2xdEwPuCwxaVVgat71yM3OX+3EVPEA6gH2DfAtwEw4vDq9pUEzlUCNROWVoY9IG8vCWzwHxDNQPZvcEPYBkJFWFoWg+jpgaRFtPiBgVjKu2G6XYgZQD9cvfr7SgJnk0C0NC4DOK3w9rEKBvAG0PJPauoG5aXt2BPL8KvuCL/vgF91eZxr+1cKk6amSJeyFlZB/D6uVn+DFt7M0LPotHVx3KTbp4hXNK8kcIgEBuw1fNdlA3bLvgV5S7qUUs9xdjgEO4l28HiV/EoCe0lgE2iDft6Skb7tXGbQSfOjo1temgZOxr6KeSWB85LACJ9b2TbaLRn2BPXWMl4lvpLA5UkAmMuvdj+W930F9gP1Uku3/Mutlp7Jq+vTS+DVQvz0spvL2bb0+kT4bb7+/CqbHLHPsgJP2Mvq1fVFSYD6jAsil/ej21D14QlQSwRmeQdXV30ZiX6JwrE2DGBfoib8ilR1aUuswde1W6Sl42RiR7d8+LIRM74JoJfljZOv+n0ALcz1GNTj+7QJvYM0vT/vQ1Qp66qE2uoEn7B32s07d5NZC40TdT09mhyYcj0n25735PWA4cmkXZHTmrpytfHQAF1/AGIXpyuYHhATfgA6Vc05wSePjovXUU64nanDpirxguMCVO3MR9f7Kmmzs9iOrgIt2QCzF3jRe/9RnPT8IJLTlOHb85q/HlB2Bjw31pOgni5UgS8ftHWSF0v5vHg6bt8UqHUQF20UUOsoLyo4m3xYh41LvXr32uMDnd/73vfaFwW8NJBjvsDqTSMOHUD7rIJ3Hv3SQz6ig97XCNB6GYGcLlsBHADqq9cJu2oU4dMkflJDJ9As+zrA5gNsoVeduHbWt7S2DvssOLLSFjL6b//tv7VvRPv+B2By3oghCzQ8mfqkQl7iTTwagJfP78rQ6vxlHheeAPWc8p+LP9mlBMRp4JRLurRchzZh8iU99wnHdImfCtHStMOr936Oej8nH9+DOvZj0uY4zdV7jv4qxKszTe2HkIDVLwsEzN44ijlBBrSzN9D93kw0MuBSGhRIeJH58ErWPi0ccLM0fvfJMEkzAerQ9QXkOmmboQ5OJwpzDQzSuCmanlZ6T58S0NACvUPHhXefNr4maB3i23s6hRkSl3rmvg/DO4A2KFzjZVqmfcb1Sv5tfEPzIsK+D1L+OE4byYis/DbMH/7hH676TpulM+N4MmFe5FfByJqmB3oyEAI102V/F6wlTM5pBZnUPtwCamRjxn3W9bUGqLxR7oVOXoebqi0usrAiQAJjcxnp6DUcLbDkexMZ2dLQGPk0AIEStoUIYIX3uiYnr/BGJyRcHdG7OQD2oFYPZfM6NuXO5e35H3KtzJSbfOP7xI/DQ+hS73Ee99qoj/RPPqWgrCgGwCXDyIQ89JsP5kvDg3zgAS+043LGdV/fd3iD4Ybj1cWabMfVDlDvyN0lZ9ryzWg/eaZhfqnWa/lACIwaZ7ry02bssf/7f/9vW2ig9S0PXzB9//33VwsStBYt//2///f2LWrawferfe2UvebnHAycOaGJB2aDhMBTh1Q7nZtwzMd9OkbnuMYPH2HyhV9C+ebSQjMO+zyu+UPcIfShVcfUU5z2AStA/uhHP1r8x//4H9v39bTVz9P923/7b9snFALU5O3rGZ5JS1k9zb7XIN7BfN9sw0sCe1NPEGqgkZ0v/xjdvvBvWspWTwABlOLYYqapTGE0u3ifvjIAaAXC9SOgftkWuDPy0RkMBJ1X+iPAieq1KIDmErab+pN8CccdkI5W/3jl4pM84TUO5R3zQyNOXqE2kgHZkQFQSQv/XWX0ZU6VJX2OB0ViF0cobwava33HltZWdRTHxqZg9LU+Ct+EfV2m4vr0i74+s6bWKUDKAx5A+iiKsNeM0gDStJaR7/sdpi+mRbwBYSpjoviFVoD2ywI0NFo/RezrnOhpd7Qxb8bCinDHHZ74OXrx8qDrafvrcd597vt6GCRkQm4GLmUAMGjI59Cyet59XcZ83PP6iL2snzj1Ub4B5YM21iB/+qd/2uj0GYXzf/7P/2ka/Jvf/GYz5Xrec+X3ddl2fRqNPMfvzKAOY4DLCNYp7mMbo9Fo2kBcNITVNa3AZgZWnRs7W8iUIWxC9nNobGI/1vNf/+t/bZoejY6IM8BoFm4s5Nz3HZF8U3HhIV+0dOpPi6lLNGr4nCVUh9Qj17nfxndbu6by9byn+GubrTz9RJn4Aio5+4nnP/uzP2ss/cw2Dc8pP3VoEef157S2R5Xfvvux85kKgc9YNzqXtgRomsc0BVh8LzRCypQmBPpoCYMAQOLlk58wORof+MUrz8IkWg2QOfe0Ca0CfGNB576vU8u44498+MWrh4+9q4O6qPshLuWnrWYgAGF+KEu6tEO0ddp2SD2UmfWI/FFE6vMv/+W/bPXQRv2GTl+ZHfVxFMe4vNPUY5NHv46owVKJfcwm7fzdmTW1DtDRGk2jaTAQuk4HKh4dEPTgBuwICT1HuAGKtHSyfISGjw4R7z5aNLYpc0UcEJ6XyyDBV53MNOz5bZ2YtqOJ7+vTtytmmjht10Y+PPp8U9fb6jFFL26cx30GbuqRUJ3IP+1HK633KUdaeEs/3J0WyuuStoN6zymgb8ia9eaVBgKxzopQCCsamVYm1NN0aoQnP36EH8Fu1uLwu/DBG1/edeKnOKY+U2njOHx6L50MlIHPLl7b6jEuq78f5yM3sxwzkO1MAVFUvTbXd8Ctfn293PNc2pKyerrETYWn0chTfMRtB/VcrlPEp4M0Pg3XcaY0ZgMNS5DMGJorghsLf1w0vmjloT25XaAb89h239dVx1+EPa185QQAKXNbvfq0XTLqaeeu0z/MOIt1934iQ2h2su6xeARqQI+CIhNpmVlcmzX1ibjEz5W7O37QrHvq18bu0kDdC56gaDwCtLX3/fqBT9e+n2zvmYbo6bc1HC+CJmR74oR8ns4A4aOllWXwnMaePs96nTcv7aJQDFqyB07PE2huu1Zsfs8QLBztnHBkLs1Wn2cTAGwAiGOPUzRnkVMDcv0RHuImQX12q2a+CgQGILbsaGgf/zay2cnOEPCEEQe0Uw4faXw0dfLN5Zni08eN8ymjB7R6o4mWGtP3vHKNpvd4XkUXzQrYdpuAXNv1E9MQOD2AkWZNQQnZINAe12iimfHIeRCywvs83L6SmwT1qgIHolsD5zotAAAMJocp7n/9r//VhOa7yYSV7yfvEsKuMsbpKTvxuU87x/eJP22onH157kt32rockg+IaVhPdpmDgJqZjwanpbPrQ4HY+rNb0pscwM88AezsnuzTxmnVNdR+gCGKwlf920YrxySog+V9RoYO5AmEAEw/wly7j1egxQjt/OMf/7gJzugG5mxtoeHEM0PwocnlA3bToGvxhEUT7CW0pcbEe0w/vkfDZRCkjUK0vR8oX/6/aasZkwnIfgZWWpjWtsNFQwMtWnGALZ7XL+QiHaD1HZpdCqqXXMB6CP76/Lk+qnqcNFqKa9W7cymmi1peaiDtC7jARwvzGskb7QQF9BpNQ9vIpwkIyRQWDY2GENERiHT5PUY2EAiPoJkthBXgC3snP9eDEL34+Dn6Pt516t3nC68x7WfhXju1T5/pF+2PrMmZTHkudOLRca71nRCv9EFLvKQ/k5r6kLJjTlgcABzQZoRrNJCyy0xJPDo04oDUYAi9UW4RBsyEamFiIWkAOO9h9HucHF5Cmnqbo9EzwAw292NH+Fw6q08Xp43x6kWL5QGSNn7WHHkAJs9FPq7HMpqjG+dzf1luGtTVx8t+3lkPoAQ6q1+PuWlR4DFyxQMdz7xwPjdmA63OBHH2gWAAnA1mZQ0owO3JFr5W19+vHRICRSfeTgcbb5vTGeqCh1NneKjTvk558drDK/Nf/It/0c4Qx77cl9+vIl0/IC6r/dOgPqB0lQZC0w0bCxh5DiCk89ICcPuftG7fYGnAjQ9HI6ITD4g0vgFhVf27v/u7LQ3A8VDOLteDcxdt0pMnIVDnOjRnCfEyAxjg2uY+shT28tlWDjr0ZHVIvm08X+a0owaHESbWZraEwY9IVm0GVkAzHVtgpHNWBMsLdNkDRQ+kvUunoAPWTH1sbqf5mBA6PatroEcjbpszeNSLSWOmGJcr7xx48OYBD6CFylUnAzd13Fb+XBq+eAK0NUNmN/RkwXNzdWuJy3Q06mWBJuR25WtEl/BHOy+7Ljs1dWA9136aFQh5YOU0ZMol3rQ959CEDo2BEM1POH16TzfHD/Big8/RzAkd/4A5NjVaAy8LoTmeu+LDO6C21qAQlHeItkWrLtpowKduu8r/LKeXqjvZvGHZJD46ex1zknoTxNuAti0tfMc0/X2uEybPOEz6HFjH9LlPvtzPhehCe2gZ4Sl/TI+8YGEWAepDeAK1gWtAmI0ogUMGRepzUeEhbVGHHnENdRv4TOr22u7U1Nuzb6amoxNupq7vdqWvKYerQ+nH+a/qvQ4HSBqWmcQmDqj3AQO5RFMzO846e1xVOR1ar+2g9rt1/BV3Y9DvA4ipJo3zjflO5TltXDQsO9i1XRXlqYN7nhvXKeX1dUPD7DAwPrvAhsP4SGE6nAV1FH3C6ewvPlbn0m6mX96UfqjbBhz8Y08LgcYUL4/r0zr5AZeWFkZDu8ZXiGaubsrtgX3aelz1fIFxwn3qOwvqIfMa0q6uogMGtqjdg7zAetrO7gEUHgG1coCaNuQCurMA+6zyTH1T17Pyu7L5IfoAtwPUa8P9AJ6XShrQ2fIDao/VAfDQjg5A+srjweMX72GTnYZ+27HP8+p6kMCUPPeSzVqPrsgTta9inT37seK4sR5dx16Vq4COFgU44A6oDxHsmDaDIvzxVIbFXLbeyGCc76rI5TzrEVlMtVVaH99fq8M4/ZB6nVTQZY41PG7nMq+pDzFitpdxoamEyATIQxv3h4B63AmpbDpSGEADNXv6V+nJnbYz78gpe+BkwkeR5IhqaMxiaGOiRaaXFc6D+rJqcMZyANpiS0iYBB1A7sN6DtTy9p2HL28LDrCzwNunjJeVhmxytse1h2vZdiQLYHd2xwclmX76wF65b+uhPauMYnYMynlf42PmPPXL1AmEDWh8FnHqPwfsORCP45O/19I6ktOxOnCcpyV+Rv5ov/YCq4NqtC758mRCOzu89tOf/rSFOe8O6GTDRHN0NTtFlymr4ezHZ6gj0pSAMvfbQgKfohc39ukc8bnexvtlTQNcj/AdE/4f/+N/NHMiLw/Q3jS0Dws5NuwYg6MP0d6+k+jIsI/e0NYUznnJilW8S2fvND9eEtN6Azs9QANKncQfAsbk1VnxNFb8RqGfoRvtpnFpaS9nOPrLtMvOkjSaGaAtzL2K5yES7exEJU9G6A2AbfIC9vMCfLqgnf2oNiyPgLgo7VSp/KGOMC7ChW8aP74flxk68YBMsLzOAM5DnLICaGEWiaZYndWXdQjfQ2jT3uQ5a5lz/BIvBFamhbfJaWVyzK4PDU4WTBHmBQ3OhpaOFpjJBw25WzROOe1ImVPpm3FB5W6MrTV18mxyeunvdIZO8KYNzeP6EEfoeATYNBYwm1K3aaCUIf/YJ03Y89fJykq8+6mOFxcnf+/G931af43H1KBMfYAaQHnKIE46WQiBlbdv35sfzqFIDy/h3u4ccLgG9UapB1Siyxdh79MINHP0iQ/r8X3iU85cOjraw1TpNbB8wyL59wmVwQfYVvfsRFqK1p5y2+ozpsdXHXnlABrQ7LsQjQzCd3yf+HGIf7bd+jyulQ/U7GLKAN3U+XHtHA+MxGnXIXIY1+/kffZC1gP6JM0QMwPqOfL5eMKID5VGjRsWGo3ONfrQhj4hmjnasUBTbh/iowNpVp2TQ/Q9zdx16pc66Ox+4ZM6zuXfFq9NvKnagDPw8OfUd5+2oVW30zgg9aHLnFXHR3uYC2xlgHZNbmYng1i94tDGJy7hXHzSLzo8V1DrlABQw+Y6Bw3NRGjyhHa8VRYwxRaWL7RZUbvf5gCZdtUpTsIpd1ce/AIWZfJpG36m23Enb6vDVBp+2V349re/3RZktKP4APqQek6VMRUXnr7tDazaEkBLc4bGvrPtOgrAWz6+ZGswB9ToI5+pMhKHX8pL3OnD2CW7B/GZQZ0O1yGmKpoHCIEuh9YBQUcRBDqr49DpRA49oBA07UGA+KCjOQAgAlImOi/zWqgEBFMCk6Zz5jR0eI7zptPSvoAavbqq31zeMa+5e/nVDy88effb2jPFK3Xdtz7oxvXXPp6Gti9t/WEBaFdD/5GD/uBd7+NSr31op2lqIVkJvZ+m24ydBHWY9KRz44MgAM+Cwhvb9jWNbGD7vd/7vfbWt0UELUxLEppvtJly5RVHSNJpDdr0vffea5oBH1tK36+3wA0YwERP4Db2fUnIW+XRInOdelrhjvON73v59Nfo5uoSOqAyMG2HCfOOYgB3KLDx3bd+aCkQSofs5SNXMiZv+8zAC9To0sfkjsb9tvbhl7okVOapXA3AQ90kqA9hotIBJ8FEEzMt2Ik0rHSd6JpQgJW2zhROsNIIEl3MBAOEkCNIHY3WwFCWgWHAiJfvNE79t3XQaXjuk0edaWaD2WBNPdIWoXodUrd9AYSu9+obZWFWpKT0mb4kbwPOPblTJurGSRPPpZ74it+3Li1z9ycKNWGXtPfl3qCeGy8aA1BMBp80oDV58ZnyXWs84RAUoRDOe6WRaWeAJjDfAQFsA0Loex0ATWOg52kLDh/XZgiDg4+LgHO/TzjOo1PEnaZzxrzmyg9vISAkXx/meo6H+PDZRtOnjemVEVDrCxqc/Cke8hfqU0rEfjRFwsmjL9U9Dm99LeT3qX/yngwD7YQnKaZi5kENxXNI7jhpFG1jCmV7aYSRnpVzGqWBhKDB8gA8m5iQABSdzf6MfvmBVsiuA2yLFuXIQ9vrAG9hGywGlhC9sg5xqeM4TzpGnXl100adahBp91zeMa9t9ykHTa4PacMhtClD2Nddn2ibr0/5lAQ5xtzTTrOKdHHaLp089JGFJQ1PRu71Q+QjL96ndofhuRUzDeoC2L4uwtBojYwmnsof4QNgzAVxhItP33jx+Al7erSES1gcjUKb8Gx6WiX5pupwaJzyA2h8aTGd7ktS1g3qMnZp0zj+qt339QRWM63ZkLKQpk89IidXfeCHp3j9REHpC4pIunvyodENenICbHzT15fV/jWod2nmmXQNC+g0iiB6cKYhhMRz8vBjN44LfQ/4vjz5lckDHg2R/d7kHZdx6D0+KUOo06KltvGSj09bx+G2vJedpp7RxszBOHUmVz/y6tqiFmDFZVFP5rb/yIQjHzOwdZFBDw+HuBmYNaPhJGKmOR8dFyV8yVBd0Pwm6XoqLyjOgpFg9nUExKWj9803plMmwBOkTsnBGuA7L6eMDBqhtUO2uaYG73mVe5F8Iv++DO0cx7tn8v27f/fvWhrTBKDRkgGwOzvNBARq9NHUQA/U2xw+J9wAjS56QGUXsfNy5zBSxolydrLdTTAW4O4c0xSAxQSIAE2d3KTAplmc6MyQ4cEH1DpUpwG2QbStDdvSwv9lCK1hADcuciXzrImYgGSkzTSztH0HfGQc/uPwNNhroDZgJsbMmn9xPg3zNYPNq10N2aQ+eUd4AQ3hEWQWJoR7Ghd+yZvOw68HNVNLWXNmlvxjXuH5soWRQd+ePi5ANsDFowuYQ3d2eUDeGn3rq3lprjU1VG9F9jyTfVI0OMLR4DQ6IR79tfs5+gANDUeQBMufxqWccV716QFNU6PdBugpHvjEj9Nfhnt1124hl+vILUB2n7gX2a41qLfVotpynnhPB0dIwh6oiY+Qki7kgSu2XS/EPp/m5H6uackbutzP0e8bj9958dq3zIug6+Wyb5vGdOcj65gSVwAAQABJREFUh15b79bVO0BdICppDX+nxRZNZqFgO89DFNtreThCexrJ7CwNpOUA0qrZAkMcO1ge20LoTfHyWGzYzUBn4x+t/VB71OLtV++zwiboDJp0VFqzTehoefVNO9VL/cRvyxv+u0J8s3+PNvyFh/BHH7+rzMtIPy/5bNZ1N6DRH7XP5dXFCfLVN/SWsK5OnNLXOtzDFpvugOextnPLFg8BKyDat7QHaqElHqg9MZRmAAC1PLGNDQJHI+2Delyep1vK8VMZBod34OwX48mNQeA+YDTolKu+cWP6xPehzgkPeWN6ALb8Uzym4nqeucY3ykDIyRveodsWpizKwJ6w+8Rty7dPWs+nv+7zjuPH9z3teVxD4QmsjhhPaOoReEe3o/xNY9E0gEl7AiuNofN1GiDRtAQuzs4BgHPS5M3q2R4o7ZtNe6AGKnR8nlZZkdPiBok822zp1EHd5Mcnbp8OGINa3dI+4WmdenHkZmBTDIk7FNTqoV5kRzbu92nbvnXfl9e+dFPlBmYJQ5P7hInfFk6AekxuXGwfG+lkGjNPkoBB58TTvDxz4etf/3ozIaKdAV6n2AeVP1tmNvDlAVoDg3P/r//1v250QO9+mzANGoA2i5hBlBm3LR8abYinpXn1Ux9tNUi1b+zk2Yd36paTjbQ1YO8LamXw6AFanfjEj+v1q3I/AeqAeBnmdkYiAK2TaYgAGqmO7R0wR+jACsgOI9FUOkW6jgFo9xkoQg6o0SoL+G3+Gwhox2X15erg8DIA1CFO2jYXQAMaD9TKV+auvHN8+7qO6+Y+oE675/iIR9/z2CfPNn4vJC0w24GzQ+o2Aepl9hUmh46f638dHNMCMHU813eee1otWlXIbABKnahj8BGPLp0lHxAyM4A4tOgCrnE58vQOXQaAp2O0Y5xytrmAOlo6oA4/dZ5yu/jKA4DyR/Mzi5QXWUiPHHa1EZ12kmfkN1WvlyZue7fsbMY8qE9knR5KBEqQfNyuTtCZvMHA4cFN5UOns/jTOOBQDs8Oj0uZuZ8Lo6EB2oAIgNRrXx54ox37yIHs0nb1dS/k45Ke+3EofRfNOM+Vu48iTXiigrMJG5RrJG5E183GaNm4GVOe+f6snTHOPwbbOP2QCssbv28+9OM67MqbOqYsYWYmeZM+x2dX+ly+84hX9lx7t6VtlF14bSibxK3IJCTcyL1xMwHqnsEG7UtxMyfcceV7EMzl6WnG+Xfdy7tv/tCmHrnfVUbS9y0n9PuGqc8u+n3pJvlcANwmQD1V9O7RMZXrsuLmhDoXP1WvMS2giLsowEzV4UXHpc3qoe1TMpmq4xRt6MY8En+R4W5Qr/B8AUPqHFpmimbrWmjljRud03fQrmLmBB8+7OnY1hapFnd2eyzO5vLuKnNX+jag7Mp7lnRt9dzAThN5km3WP9Yk2TKMPMjdNmkeHpGJDQNrGLTyHuKYIGc1dreDugG6/vjfrg+p3uXQErp9aE8evVbkMT2BA+QutwuQAbUwnWg70T57PgQD5OftdtXrvMsLP+UCtGMInvb6VALAAqez6s5P244FVHKXlrfP5SEjA/79999fvVd68AL/rIiuxqxBnSFSDVuPld3AiECuWrgL1DpwF03aFHD397k+TbhvuafhfZY86gWojiHkpWfg5T28ojRoZFus4jw0ygMtGhuoPU8QH+1Oc7ueHag93M5S+S7vid98WcF4dHEOA6gr9vwubX+Z7ryYS0vQNGMQTpU2K+QRsY6K15G0VsyPQ6dWrNVt14C6KNCH71TbIzMPxP7iL/6imR7f/OY325svjhd4lP+tb32rvfHveyu2G72/aJb0tScPzfAwKPLeov18Zkj2z0eiHXTnCmcnUruIHvm7kbjS1Hjvxb8r6ipcEi4TgM8+dDpv3/pNdbK86Wh2Zjxa2sdgmsu3b7nb6NKGiyyjL195Bi1NTDFoI5PDx4KYdOL++q//umlsLx4Dal5y9iSYOcblABp7nF2OH0UwdnN4m4sf8u8GNLqjasvLieahlZN/TwMEeXoguU6c8DQ8pyoXPgmnaPaNS31DP75PfMKUOaYTbzYCQGD9/d///WYyMDNyDgdYaWHmhbAf2BQK4FIwZs3+yTJlMC4v9bmocKWpL6qAl4FvOruvqzid0af11z3todfhDUg63clGgOKkMWsAZFd5U2CZigvfVsDyj5kGEIVJVx4Q5zMIwKputC6bGX3qpO6pq/ryeAG7fDED0c3VSbnRqQlbZc74ZxrU1bhU/oz8X6rsl9lmHR1A2zkAnGg1gOa5uTrNAWUuvufjGni9OAuE8igPaIHTdiVQ8hZ9vpzlMwi+C8JOlncXWMcdr4y+DuP087yfBvV5lvCCeREmsMRe1BljNydseZMfD5420unyAMBc3nEZ4SWMUxca0EKMp62l47kv3/A6JARgbbE92ZejbbzFHQ3NlmZuZCeE7ZzjwADfu55PHz93Hes4S8CEc/SHxM+AOpPBsqhTlpgOUiGN7jtUXO53CSR08nChT3zuh9TNvzrPgsUq3cIGiMZuLj/+PPDxeLE5abhem4757XuPt8EGQOxUQFHOXH325buNDm+DEXBTVuSYUH50tDhag43XZqA/Tf0m86zH97YqH5w2A+opPqdDNkFpUC8w3N2P4yYbvqxKaLfRTNVaxwEL0NiuEvZuFz/l4sEDdabfPFHU6fs45fQeXyABHLwCHPGh24fvITThrc7KFIrrnfvQsY211ytz6mo2AWoa+9xc9OeSYf96IcSdxu0J6tOx1zkRksq5jxMPKFzfiT2NtOQXxoUmYeLHYcoAGNqQptYxvduHR/gANXqa33Vfp57nPtfR9LYhXTvrjR/+wCZuV91SzmnqAbDR1uEjxMvsIZRu/x+w/drBf/pP/6nZ1/kSVvKhPU0dkv+8wxWoo4cLhprW+bMVqWPSaCGBAQXtGeGhobEIkbCjQYARHZMBLUdTMAFCp/O3ObzlsQgKgLbRj9PUOZpaaLtK2YeAbszTvXrhoV5CfBOnvofwPxRQPb1r5aadefVNHPuZRtcvsav1A69+XC+bXBvwrjl8+Mt0K1CPC13rxXHK4fe90Kzyrahj30b7WVETYt6IEY/GkyxmA01L8DrfdOipnjwZAHO1AhB0wGNhhO/YReh9Z4cmHSWU1+AzOAwsZV+Em6rHRZSTduOtfZSHsxyeKGrbn/zJn7T2UkLkL448o1AiG3KJXCkifHIf8F9E/ed4rkHdK+e6Pu+xRQCEA6i2h5gBGqwDjXyCCPgBB62zBs4cRHhoxVuRezDgyRYBb3PKAGgeuLm+M5M3ZedeqLyUnY5Dp346eIpPn7+/xovf14X2kDL25T1Hpyx9oY/MkOQPzDHdormZI+RJi0vTR8BM1tYseEjXN5l15sqcjy8ENi3fgnmyiZRayvaxg9A3ovrkU17rII0mLFqXBxIaF0CANFqCQAgN6P/qr/6qhX47Bi2AebJFk+RzChYt4gMCVcz1HCCSnuagG8clrefXx73M11NyyeAne4+8HVT63//7fzdPNkyQ3/3d3202tr4QJ0TnAJT+EwfIlIf+EcqH9+nd4Whca2p5y1f/Ng1UltAQcfrabOQEVvZatq40PqaGRjMzgB7ADQAagMBoZlN9BInGwwB7qEyZqQ6aituozKubExIgM/0AiA4o0bDR2NKYbmZGgGd+6U+am0KhoADaNe0tnmcqHqqpYzCcqOABEUdhsp4Y+62nAzhtISUUDTaaAZZ2JryxXQz0ERKh8aZ5As2BGfY4IQI02gCYULncb6nOq6QtEtAvHpN7eki+5MrrM4BlVsT8Alx9iF5fcfoLDQ3da2k8Tt83a3RuqfoqqTT1CNY0dSXz5+1oAg0DSjYbLSyOVnbfNzzCRE842R1wLY0QhQRvoBgw+ES46i59Hzcn7NRBfXllmWGyUNS5c3n3Kfcq0mgTJaJfsm7o5eBam6Wn/ejcx5HT+bvgdDfntfnR0Z7IXg3ZEx8dl/UlQZiGANMoZoKY2sQBCVMCwAmLSSI+Al1zmb4CNmBmp9t2YounE6Zz7B8bPjqJV5b6vffee+f2VHH/2lwupfYGwH3J/SCWzmXA92lzefr4i7o+CeogusJNICfhdFUxkgEaWGll5oODPO7zKhANmFHfj/x9SgzoaOp0yD75ttEE1MJ0XM8/nbqNx8uY1rfL9RxYta2nHbd1W77QopmiKzUakmW4v/1wEtTFoprR/IjrwbdTDU4jAI/ZACw8l7RdBfWCNgiYJHZBaHgaf6rcKZ5TwgxdeAgDaKGyTM9CZX8W3Ta59O3dhy40Ccf5I+c+PhbxkAbchxnDk6DeKGB1s/9IWWXpLnoQs8WyUHQNjAAOJOjiNWpKGB3bli6/RQxeGSA9zbbrOf4RduqCL5+yhHN5t5UXvqHp+YszQ6ER4n9IGckT3pcV7qrjrvRt9SxRjCyGbdRD2gGg3s1sjkKjAIItbUEH0DTdb//2bzcwsq/Z1dnEzxS/jV/S8NaZQBZAJG2fcJvAgYtXd+ATok9Z2/LuKju88WWOZYGLZ0ww1/uWIY96CffNs6uOLyJ90MlnM3UL1NHACZdN2bgdijpLI3VezA3Ct2jMBr1O0LGxrfsOV6Z80nONVw9g+d3zh7pdAFAWoAA0/ilrV765esjHa6N2WeT2LwnI14N6jk/iw89MxSzK4/vT1i98X+Zw0NRLzM5CtxKqHw52EawOdJ3OinZi/4rTsTQ44HABJzoazKKSludcB2AtYsuflIskdRmTz8WHTvqUT/ppw8gAoD2R86SUDMRngKZu2jHn0DK7nPH2xM+1fOT6q+o2zQ/Ajc/q8xRgnhImIdMivG03HZingu6B1fYejUOT2ymx+BMv3XadDgdu8TFhdPi2TjcAeJpemZnmp+qYOKAIT6Fywwdosk+tngFe8h4SyguUZIOvck4D6s+C2XGI3HbRNlDnYDbi0kv1N5oh4S4229N1nk7z9AmwaCdPD/2mtTQaW8eYPh1UAmhnEJz5cPgJvcfnOtyU7W1nT7OYL+K2OSCWFw8n0KLxp/KMARpgB2xC9fra177WNKMBmFllit+2OEDWZhrW+qLftRGPb+qTeszxQ0dmTDqKIfnm6HfFp7wxn23xY9pdZcylbyBudbO6mMu2EV+gPrkjuEGR/ZXNyIPvdBQQADbgug9YoqHFA7YBoIPef//9ppEBMTY1LRlQ0dYEHWFPVUqacoDbgGLqzLlxx4RveOADgLR20uZ47YqPhiYHgMRP+YkH+tRnV1lJH4e76nCR6an7eZUxbDLvB+7hux8dsIds52RzLFuUDgNeoNZhwEXrAgoB6Nh+Wte5PqQC5EwQtBwewGyABAzLYk4E+AINkwcfzsA5xKl7vLoq1wyhHup4VtfzDhDwjVx28Zc/rr9O3HmE4Zv6jXmO48f3Y/rch2/uV2H1W7ODJ2A4EbXKloujeaIl42aOhHwtwMTsG2qozqLpaGIg5TUMyHlAEXJogRyIaFjakYtmC53824SID/AnbwbHtjyNePkHfwCLV0d1Uo99efT8co0vz01dJy3028JDaLfxGaf1fLXV/VSbe7rwmKJLWh/KO5V/A3Z9hj2uNxaKa8gG6pvAlj5ZgR0FpYHyugZIIWBwruPH/APKxIcuRbqfcylPOfgAJHBy2/L1/AJmg8p1+KQNPe3Lfh0Za4fryEqbOTKLTFtE/enppPe0obns8KSmDo7PMlR2tELjgWIsgF6oYYE24O/Tx8IN/VSoHD58QoP3NpcOC6CFqfuuvNv4XtU0bTKT9VusZEB2maGEHMCjza4S2UTGZkYebWbUg9u81rAHZ11q6qFzd/TxwHw7DrZWIEAIOHM/znRo/Dh/7uf4JP1VuJYAWfF2YfISBtBmdrKO8PJA1kTAbEs2L3cwETmmmfULj9Z65mBXA6nmgPZ/nLeMlZ3qdsP8GDN4me4zUMZ1novXgXNpPQ80vM4NfcKe7mW/pmmBGFBttTq6YP3DATCw07zoLNTdZ7tVut0lcnGde/TWT/2sfFo5LWG+V/YCdanerao+7CqkpYFhL9aHE51WsxJm7/uS5wC4b1nyAzSfKbbnfxHXc3Uel7Uv3Vy+XgY0LUDT0j/84Q9be72+xYzIi9J+WcCDMG/FGAAeiNmZsqOUZwbA7gwPftnNwoNpcrBbWQUNeMvsq8hZdmtNHew2yOYm8E04y+eFJUTDEK5OYQ/q7HR4wnEF+w4dp/X38isjoDa9evDjIYzOOrXN2BcycZ1671vPCRYHRWlfzA0a1vrDk1vaGkC9hAHcrrWdI/NobqYGbc0cAWrPFtCKw+983G5AK2cN6r7UDQx3Ny6rk6+SIzRPDL3O76PgXtYVp5O4s4ACsMbeu5K+pP/+++83u/GiQL2PjNO2DIB98kzRyK8d7F8DNtuuvsQUDUueQE22FAcaYJWP/WwAADiHTt3k4c9av6k6b4tbg7rX8F2Oqej9xkvH5BIuCVEHEDIhpsPHRc/Fj+nc49N7HaQMPPbmEwEuw+Png1IIX0Cg0WhJDt9sQea+JWz5g9chDr0yAkplklv232li6cwH9nHazD7mOTzkwQPADQhtcS1v6kRm5+f2a2e9TV6EGyjduKna1301ekW0H9/za8cOToScJ3zOUQAIgUaoO7JvBWf46Bgd9vz50Gnvvrv+wn4JaCmfXSVtpuP99Fk9un/4qE3ZtJ9yAAyI+It0QJjjCuoCiMoGUvcZXGZBb/CzpdHnINk2sMqLx6kdvPErh1f4JVwlnrhYa+qW1DPqaefie5oXc63z2ba8KZBA93H70gXQQP2sQMgBwPXrHiDVTTrget20a3Gohnoo59o12n3pr2cWGRagjx/7HcL6yYlP6stG+FefXb8x0OJyUY4i4Hs59Fq4DboyNdjG1iqUhY9Fxs5mT5+32w3X/Ups3/1YjYLiOnSFzMsi1hEVVzetJ/djfllU0QrbtMe4Ln1njtP6+wbq0tDP+AK25j9/XoBu4Czw0agigXoF7KWcmggHmmsF1OvP0Q5CZoYcH9dBqye1XVYA+fTTj4e1QGm4YcAAtpq0P32VzuUagLWNHCK/hOKYQwBta4+2Zmr4oJCvs5pVgDr04wrJv698k3eJtuGWlp/V9LvlMdLUxbNx3yiiFYTVbnZDnV7U3zkhJ74XtLjcz6Vrh44/br5O5hWwG9IKjM8f175uaa/FwweLa9XJZUUuyrBcXLtTDxvKrrzGtq98z8u8eF6geHb/3uJx0T4pbfyEli/a26Upj2pQ3LldpxLr/mkNGk5eg6UMkXZ/EX+YH2a5tL0vQxzNbBeDlkbHvqbZmR+x//s853UNeSfRdxj3k6Dekf+qA7uvfjpsDrxJT57p+xJxgfgaX+IuGLTrpz6h9qMfL57+6IeLmz/8weL2syeLO7/264vFF+oXYf3SwO366E5pu2e/+GDx5Ac/WDz86T8u7n30y8UnFffRzXqE/LX3Fl/5N/9m8caXvri4UTsOX6gdhOJcgK7F7lG9vVLALmSLSfVmw3G95whDRx40tUVdP7uJR8M7726/2had3Q27Iky88JgrQ3xPE9lvoz/vtINBnQqo7IuocMrfNyRg21BW8R4MuN633vIyEWjo56Vh+VsFuDdKaz2vTr//89riKsDe+fa3FtfKNr75G7+5eF5a+1pp6DoQvjh+9HDxvF5MePadbxf4/27x+MMPFvcf11O7m/VJrqrHl7/xh4vbR19ZHL3+WpVRGr404nX2+s061lrhPqDuAbRLJqHV/lwLIw8Ap6GZHB6s0NRMrtjS1hLu49DT2vHSXJPxi3SToGb2Vav9GYItNewFtIXshSSpGwHnwYxVPDsxnZhK5T4dnfih/WtgHz+tn8d48412zvt28X1sx+LBvcWze58sjh8/XCzu1XuUbM0CxnEBQMg8Wdyv+KJZPPi0zJY6BPTo8eJGmSPHT580rX/9WZkpbQBVWaWdF0fD3q6ZweZTBVvdyXpvJV8BGlXfdqBkbvjVAG8JkRuTg+nhpQ3l9IDN43DKgp0tTWhg7Npa3V7Ds6VOgnrFshNmE+7umXCVde6CYPiMctdsNj7bSn3eCDLTpE4wdaYzetqp6+QnaIC2NdW7MR/01dXlh0HdQnUurXRcnc4GflKLu5uAWJ34vDTTcd3XVOC190X1bH2Hq85B0Gi8e/FoCsRon5fWeO6+ZoBr7PTnNXsol619XKB2zZ+DvPu2brsOID05zHfB7VtzZGexCLz6CGCZIvoBsA2EaGgy5qTbHhx2is6+NiCKfcUx/DZ5yJc5VwAuAHG6lxNKa2Fd71vIAJSiX/LLNEdQhBn7jhBd9/QRNuHJJ53mCB3a8FXHsZOWhwQWOWPazXsDDgctc1FmRADGDCmQvvFGfQ+wzIMbx/WR8aJjBw/Oda6Gtkob0tEMdENMDeTix1YvpoOv3ZBGcVy29FCJJbeLD8gAKL3HaTbzRBA4LSbF59Qebc2+tgviAY1H4waBp7j6Qf9QTtleJW/X4s7slsKNtLfxY7h16XKWL02yvOrSzn6p0UY7m43GJDhCA7oILJv7SkML+ISdfVFCIlDA5mmDbU6HGQD422MVcptgDoel5Mikgdm7iAOwo6nv1uLq7mu1u1FtuWYLb+zCYhzf3SdXW3xWOXgN5VgWRvIJQ90xuMBL8iSnnHGJvFJk5EkDe9jF6aOYHAaC/NLw0LfTsg7H8w+nzY8dHdOLOVp1W9U0CqCjDdhstAEbLp4AnDWIx9dihacpDIBoXKt2dH/wB3+w+lWrufLlMRCEBK4e3E5BA3WZBselSQPoY7PKUfG5+9ry8XFJohTAII8K5SlQNpnU9ZQYT8RVRNPey7yVudXvMv+or4FPCws9OTRDkhvwcuQnjQyjfZ3Wk8dOib7lpFE2+hPtTjm3XOf7ZxrUyiDbrfIdOm2fLSfsgNcigoameYGUFiA0GjmAJxQjnbnx3e9+t01tBCOeUNGa7gjSoXUdsM3JqwweDy6CTjiZf2lu2PlowGYfV8fJox7Pakqty5VbX/ZCW18nfR0mTTgMjMSsmF7iBdACIhkxK8bKSruz7iFL12ZMeYBY/6KJnMnIffwlNmX6lN68cCtlrEn00kyGCEbDgNY0xYwgOKfdfOqAUMQBO/sM2AEa8P3mi2nt3//7f9++Vk9gvmb0ve99bzVACJOAlbHL7UODx2rHoVg2thWB+3P30pd+uADITQGgWbto8iGvtFX6MtuKXzK1iA3KpFxYSDaAzaffxoWhGcsavZkzLnxyv2+4ksm+GbbQTWjqGWGekPwWrhNJpn0ABW7gNDXRCEY77cuWM+VlxRyNjJUp7v33328CB368aOqeHzq8Y17MdQw6bhbgka7BS0u33YkyWexTV/1u1AC6UzTKmS4jDIZy1ghe3o+jJ+U64rGZ9ULuyCMySTguaByfPIDduzFdn7brWsunWk9M+7oJUBfTxgHrJaueY3+tlPF9V3LfOAAI4Ix217RyY1FptLfvfAC76UxeIE26ezzkRSPNfUIDIgsW8fw219dtgy4SlX8D1PUApsq4c7u+XbJ4t/aYh9eXdEErantxrQgkIVsbHOurdT2WVCFeJ2xc7WrjBvEeN3MymYsfs9yXbpwv9xF9mx6rv9euBFG3xMH3KWua9dUkqCXLOGQOq3WmdiWa21XCQLX6C4QBM7uLxuVo6GwBiQ/wkzECE0pPh8aWo7Vpcfz2AfWYb+7XYTWwgdrux7CdB8ivWwDVWuBGmT2pgzyRUsJ5sQzGirzPamA/rr3rh7XWIJfntU99fKOeJt5+vLhWTy7rWXn5eU54kAcfW1YYWa3b8qt1NQ3qCJI8y69v11PUacXErPC0SsiWpnVpWXaZE2A0uAVkOqYHzlyZaIACPwNm3jQ4ySHlnEwpeAIz86P426OmqcnjcZV1u5kfJ3NtiynprZI9QXxSPD+5X79X8/NaS9RgfGL8FJCv1dmQOgCyFPw6zypzd6H+pn8KwTaa0P18u7rMn9HLFagJvBd65D/E1V+y3S7fvUTUNNRSy9G4NLQ4wKZpgVzn7AJmOk3I01AGBs2NH7/NJf8cTdvbaYAupAFwXT9/8nTxWp3Cu1llXa9ymkyWDCKeEyJSjRORxslgjj2qx+YffXqvDg7Vr8x6SqkXjmrvvbR2y9gXMlHZtF27PdJO23e1b4LVZyZqBeq0aABx7pqSWt4MKWcVFtuZRgbo3/md32kLxX73A7Bp8djKu8qTjhdQZ7G5C9AatItvexgC1AXowfwoG7pADdCv1/mPJ/UAiYm03QXqa6ohhh1tJsC6BnTxpf0fP6l9eyPgWaUDtXMgO5x2AHSeuO7T9h0sX/rkE6BetWhS0Q324IrmFBfAZyHIxMjneGNX59X6Zl+26X1YGI6LiZbToYDF42vAHNKp24C9BvUA7GPnOQp8FOfNml2eT07xhDYhuIkoKsJOyq2bR4s36mEOYD6hqZv5QVOXbdyeWBoG8y4yIFODe1ub5rlcvZRh8J+uXpOgHnY/BoY6Ma5NyVOdFoJRGID1ggbAmB2A6J4NGHBikXzi+rxJAwDmCSc9vkUc+GfMf529Gq7xK19as/6vZrIOqI0HOQXTBNiEOBANctvgXO2tGaaeTr5VZ0lu1pnqL9ZDJIA+dpb6Vj2Gt1B0wKnvgDWLE1dkynT7bNnTkXYJt5P3icaPIiZAnZ7ZpEzsAbw3GOicgJf97OmiLTgApql5YI22EeZJlcWfx+pAzjyhyTn8xp3YgyCDo49Lpfq4/lq6NsJkBnHDKxsYyCoW/YA1KWPHtNjt5KepbzOdanGnrsc3Csi1SLx2ux4v16Gp4UWBItwh9LRzd6mXT5G6jWW8f032keYmtwlQdwQ6dkOgJyI64pOXfUOAz0IOMIHUGxVsYNrFPVCzpT1hRMs8cbbA4Scnx+Sj2Z0DMSCs8gGflzbnBgAO2hxN6pRwI99KfgVdjxXd86VV223thgC78ga++HUcGn0f0aX9ClyeHcDnI6QJULeeOckduGF6CE6m74gBVAAGRoAF5OwrW+RwNLOnjMDu2mev8vaFEA/70Y4+Oh+S7attRZsVaHaDxgAxcCYBjckKj3VBc7ZjocNCsTaV2wOX1+4MC91rxedZxXWZRtcY7u8i11UV9s96JSjnZDoM/stt1QSoOxlVXTY0UZe0z2VGLtpoX4tD8c55ABmQZvEozQGlHKz5xje+0ehodWBkRwM9DY5u12Em5eKvLOdF/vIv/7Ltkc8KutnBlWl5+KMtFmsYt3ZYuJb/Sp0O/JNv/vHiS6+/UbsV9aEXhexwsQx3kL2UyZFlQo3o+/1FNGoLqI2ufoTRJUNMH9si9/hjyo4GJgA7FcAMdMwSe6xATUOLJxjHS2l16TQ7m9s9TY0eD7y2CTHCngo3q619y5ZVwDLeACMTp+qET6NLuJq7oms3ueZumSslJLrlXt1cgQuKo+3E1OzGzOPIWd/1ph6ZmwXNsrZkheL0nf6SRyjP2dyAu0N4HEU5bWRa9q24qqe//gyuu0zUXDgAYDNVo5kNhETrEiLAazwhSA8AxQW8BNgLLQLeBWjC9TDHYPjqV7/aBtFmjZZ3DaR9ytLsKAG0MmpAeap4t/i9+/l3F/UIcPFBPRn1iikZbfoaDk3bR5CD0HKXUgbZWnpeHQfQwOwVLUd89Q9l41AZhaPf9E8W+xbw3//+99tsCNhmWS/qUkjy6U9uCgvbWk0mJfn2b4W/Jqjd0tqiqRvXrtzdzDri2UtmSLQ2cG9zaHnAPK0jVANAWTT8VuGugF1tbSj1iJzZUfdAXQPLiwA+Y3CvXsK9Ubsh9mF2SqZD8/pyeSVz70/b0HPIZ/CaOa1fANqinLzIUB9YEwE1OuagHzS1iDcAMpMaFI5BcOjlI3/9eJAj/1O6SVDjlzEy8K0OWHX4KUt6Adl6LU7YWwFd9Ut6E+fq3MfyqSJQ15QMivULiPX2t0XivoJfQ/kFiGFnkZGT0Dbr90vz5sPrNC/AZk2Dhhfne9XWOzQ4rQzEtLy3lQwKM7E46QeBGgBXbi07ENwwCVc0mxcnQL1W+ZuEWK/Zb6Zd5bt0mDr211N1PgnqAm5Nv+20HlCX95DvWn0+rHXukkkvl8hpMCqqc/rEVaGJrDAZpCV6RXf5F2bRzG40LJlQCMwNpggnpNGzm2Th7qUPs2HMFuDm0RkYl+lOgLovPPJusu4HT090ha9XIN0Y+YWd5ayTMGBvTdTYtFWYa+2stBVNo6u7UfoKpE1oMs27TH59kfPUF5cSOSjBGibvfv6gPtQDlEwODh1ZATlg074Aa3vVTpQ1ke1T6xeaPbSRb2Nymj9kPOrDbWxOgJqAt/VHL4BtjC8zjdB4go42GZcfwfb1z3VLa43uWs78qM6rP01bt7Mfpa083m5fT5oQcpd7Qoqbqa2fakQwY3xDz9nqwaKpCbY9uax+eLY8T90PnHHD6j5tm0iajaKRgTIyQOgaMJkM0mlizxLGdGSsTPS0uTzADfy8uDz1neuP2YqdSBgkdSJ6S8QJUKMl/nEX0Cq9ALbwvNQkwuVNj7RKdklUoq9vOr6PG1eU6TW4aiyEjU7pOXrqlN6NOuvcvlqKGGnLV3kj/4RLbutgLVV5nKkG6Af1ybInxbuOb9XZj7Lb66HOtZv1okCB24GTda41J1dp02bsfHxPB3iAyNQIn22y6fPmeop+Ki70+4YllqrTgEFtt5HUfEnIvzl5hP8kqCXKOJX5PCqdws8j1CGmw2xD2TMVl446VRkaTqo9qM0CBbz2zY/S1teA0K7IhhvuE9tCfxLRumSZofg3QNdXUT+ss9T362UBDyjb6T8Hmgp03nxZyXvFY6PA1c2h7WX/xnbGZJz/UBmO868q9gIuJkFNKw8uklxD/CpVXh3Vx1RnqmQDWqjE5ls24vBgCWofmyl7ppUxfPvj6eKdWtHfqOOiPonjm9VcvyKPxFrCxp9Bywz0Ve9iTTt/9Mmnix///T8sPvjwF/WE8mmdpy7NzIat2cCH2uvPwGWecUs/pF8MFLsVXnoG7kPybjTpwm7WeDtNEZOgnmJEcfFX1bEBTalsOqA+S0dpZtu9ANpCH17Hzn48c/659lzZvBUPzEvILXOs7wY5je8jvSHe3xul9Y/KtnWuGoCf+3xvndAbQL20qZNtJjxNW8lqNQvM8D0kGq/z5Lcum5Tm5Lim6q/2BvWQ6YzTel/yOV0Dsw3+nBmhtRsIC4hzQg4IxunuV+O2aekaHM0EAeq6rpdkHRV983NvLp7WAup+gbEU7oZrXTDTwRkCymj1rgH49ttvLe4cXV88evzlshtLM9fxU0dPF3mlC69Rp6b+GwXXTeLH7Up8T09mtHQWfX3aodfj8g7NP6avJhvfK9dk2u7WV6vEiYsJUC8z7pd/guXlRhGo1bkVe78feqige/oG7IC6wMwEKfXfQA32RwXse7UHayfkUNc6q84mKO+onky+VjsHtwvUDXhMjnaeuvZ1vXxrRph5pWsKqNvqMkUvbhyvXrxBx+e+j8tuiBmRy8DAq79O3m312j9tf1lPgHpdjHVmO8KwjrrSV+MOGle2Tyfw3lX3Lm+FldZAPZgegwnius6pSGq0oe+5uO74uowfkzUeA21hYQBXLTwV6zxO+y6fhFW9Nhn0bdlMmb7bl55cgNYiMsBOmHi8xNltcp0dp6xlch9eaoRuLPPpmjZqOU4kz4pyRLkF1IPAR/QvzW3fia752Nq9cNfXoBpBVtuLPk8S7VUP5ocvNJUmKw3bPpI+J42w6dM3eqQjcKms4b+b9l8A3Os69cw2r/u2bqYcdoePx98W285veFTu3iwotLPkQYsFJuchizi0eUjjMbsHLwYFE8caxwC4TLcF1OtqkPkg6XXcy3Klo0yJtIdTZJkyU/81qMW0htZfCKzrZk+zq2N+PG0mg06ycGxgDKNVdjzi+8T19Qa+19Ev9CqD3rmN//Jf/kv7ZqEXK8gNQIETSJ109Iu/Tu35ohZAf+tb32qgD4jROqXHZgd8+S/T7V1aUyZDn19m/c5cls7SMTooLxv0TLeDGnAH3zR1vVF+t36gqNkUxfP5iX3qAedNTPVnUAZ9aVf/mrx4QIxGJqPISRrnKaJTj5yXMDwnQAPYPoFhyzBHVa+IpqZLlu4lBHKqLqSZTY2m1O/X6TPA7t2qs1ZaukF2ULbidHILBxPk3Tob4TH53Yo3AyyzDSx3qOAkj3cz+vq8qGtyAGRnof/Df/gPzazo6xI5ATMtLQRw2th5dbNgeEhjstDSAC0++XueF3W9t6auelXFzr8aBBOTQMMjBCVJs0VHC9C20uyvEpgOiNY4r1pl/ApbUxPRKqNCy5IkLq8TtUzpl4mJGsIirOas8i1LWNKsGbpqZS9TLjMgfyClYfcFYQ409fWUl9c/ue7TL/r6aHN3o8RZ/4fn7FNFn/+Iiyal9QAWWK2yOXEWKBYszAdTm1NktAm7TfouYOMlH+1CwBYxvRMXt7Eog8C2AzKE9qu9JODnMd556+3FtVog3atB9mydfQ1G4N1wiPiNEhrFmrRnBAzLLEO2Rjv+s6vtY/p97sMzoTy9jMY8pKHtafq8Y/pt92tZTFNJ5ztJTRLOaOpkn8xzrpG0sMUJcLPF2HE0sniLEK8LMR2AUbxTY8CMllYB7m1CJGwDxVRo0GRW6BuRDml8IjGgbgvFYSuvMraXBI7qAzR3289jPFp+QWngZP96ELlwu9ugCHhbZArfnj+pAVTuzyvcJs++jJTfh0nHI3JN3D5hpLgP7RzNCNTFsv1vEl7nabI+TODrzNuv2Lj/83/+z2Zm/NEf/VHTqsDnlaL//J//c3tlyIIEeGnrvELkYHrO/SqBEOc6g3AB26DoaWaFXk1tb5J7uFADiMYePjvmEbkvKx0tnnqc7V8vKtflm5adbHYvQ4TV8UWHj9mxpVZm9Wo8hohlwprhXBv6+DX1y3HVi/GsNR6BGruBvYnyPAvqK6rTLN7safqpYD95Ic53PrL1Js07cg4q2UbyGBywae3vfOc7La/ffLFISWfOgTTxMWvGdenv23WBqYG63kNs2hqoC8zHwFYE12ufuoGurveWUWWUp+XDv/49r21BH4Z8UKZMO3oqsR6PX7tTs0D3mHxcyLi92mcGuXVr+MEm92nzibb9CkRMgPpyWs1W9itdf/u3f9tMDIsTpgHP9LCaZgvbGvr617/efh/GohH93/zN3zSw/5v6be9x543vt7VmkrZwxdWStYBcWhqM24+9VAgsLXWIPgDSLZ8BkEFgO/BJDZpP7t1v7fd96qeeKHo0XuBsZ0DqupWfMidCbTADZReCmWXwTrZtIv9nMWoW1Lpv6EB/V115Zhmwh2ljZocFILvZPZND50jPQxKaGbBpaZv5nBc6aXEeHScPze/pFuBz0WbtZuLPbKenqWxqdjS7OuZH1dMpvTccaKpy+qeKPWAVFzaz0qsMA7Dru4K1Xvi06v60NLePRC5u1osCdQ6kjPaO00QjKorMgFiYw1zTlC9H7Ky8Dqj+UYS/zlMxbUtkYF+KoHOlSXT2GRzBA6Rf3+IB044G4AIw/vE6q9c6gMhnsYcOoPFklvj5YYNFHL/NTYN6aFuzdIv3teWrXF65ak8Q6+HLW7WQfe/9ry3uFAAd8udWEmkiI79tJUsrGhq2QHtUn+y9XYP3tWq7h5Q+QlnfCm5HT/cBtXaQEdn1stpVg6uWvgGzVK7attIOidsjnNXU47z6aWdfjTNN3NvFoJ0B2n6zXQzAtt+pU3pH+/ABYMIMrD4EdHzwB+ik9fy2Xw+tW7WxLhqoAZpZQGsXqH1L71mZDY1uRYyzbpnsmslitUXbbt0qza/tdV3HpQrU1SXN/PB96t2aOnw88DCz9fKaLPgKR+4vve2NqCcY2wnOI7UHGFv6e9/7Xtt/tjAERgs/nRPf06d8aVNOvJ0NNqX9a1p/Kv9U3pNxkGzw+lN/s6Vnjxqo7VPXQHz7rdp2fPCw7VOvwN3LcVRVSePk6+rdjp7Wb3fXmeqnT+sNFFraAtGnfA/8PjWFEBNuTlYn23u1Y/Rj/W+yq6u9K7unpt6f4VzJwMvutc9MS6uwByLc9+vxdUyGQ7WsDtShtL4TZBacZ3JLQLaB0UA97IAcl3Z+Xi8JsKlfv/t6gdCPko7QWwWTFL9K2SI6mvhm2c7X6zzJ8a3qNnZ0/31qIJ8ZzH0bTz+Iey5X9ToS3b9+k6Ae5Bhm6ZWE+zPvhQ3QDr4ANODSrkJgZxO7FuZx+LgUvOY0kHhaysq/L3PMY6/7HtRlbtjSy/uJ3nxpP2lRv6X4vAA5V5++nCmpreK6i0M0Uc/fdepx5raPGV/y/SCDlVBOXfoEqDEN41y3CXmtfU5RHMDS0jwgc/ag2cHiOA9XgJ99qKMAnBZOZ0WLx/ZOZ8o72Kc1dZ/C9Xxkb61vi8MSD1BbMD4rS+2JrbJaw1Wddtm7kdyJ6kS0LWFMNb4/kfvSInqZ5Dr9cJGVOCkBWmY17+1VdK1GTtKxY+ZcGjiX3sejjSAA2ZYbD8gAakvPvY8MWuTYuWBCBNQALj9aDg/3tDLegDzlUuZUmrj5Nkw3nIiGlOU2Z930TxIBvckR0TSLShhIBtIiQreSPaUxoat7vo3D9J9d7Z3ONR9LPr1HmTISzuc+mZI883If5ak+Th4pgxhWwhoRn7yd0NSRZIh7Zv110reHGqKCsXud7QBOWpgdDLhprBAdgAe4ORsCwGg9JmeLWxjKv4/r+aPPffKu7wdEtr8E24jrjzFVN8c3hhmrDaYSRS8N172XtbmeKHEtHMraiLoCN/olysfMaYYln6xZ7FJp/1pmV6DSoyocbRdt9ciqZ2d7Z8Ty5C0BEEZ2J4CT9mVX296joQEfWO1eACx6NrL0v/iLv2hPEQkbncfmX/va19rhp2jxvtQIHK1rXkfMdUbol40dmgzUZojjmg2Oa8HGZGoPQ+r9vBsDz2Ls/17uBJkIA2Ujt7vNmI3kC7yJnCgR+/2+aPrd73639Q1F40jCn/7pny7ee++91Z74BVansSaiXm7j+7nyJzT1knT+/Okcr63xNC8tDaiAGMARmAcnNIRH4gDtQYJdDMCVTrMbCGjE2wqUhnYK1H1F5OUNiJz2W4N4oFzfD4BqfwvUVclWT08Uq6BFVaDtU7ePrtd+uI/ZBIKDXnc39n1t6nrfnhllu+hb/cFb3wC0HSkyI1/yo3jEk5XXuPJWzEXX6zT850G95NY6bf3nNGWs8gAooRAe59qTRL/tIo6gMr35trF34fwqbj8NSqfRgZvtvctlgerQ1J//+Z+3Y67K5eNafdpt/REu6wegLbru2w5IgfgrX/7S/2fvTZ8sSa5q38ipsubqqh4lAV0lodZ00QToPp4ZBhh/Nl8wAzPZ/SD1k7gg1JJaTYNaEpK6u+aqHN/6bfcV4eEn4pw4J09mZVbjmXF83u6+fcWO7UN4NN/7i79o3uSbL8/1toeaYvakVpnqxbIBL7zixodXLGKxt4YNY6wtoPa99957sU8FYUL/wDf35bzWlryel25dcaOgDskToyG66mTd5YbTOIBd+gEpkhlj0JMOwLLfgxVHQI2URtpzoXObDrSmMo20LjsKLH4UJUDrJ5qb2huDt+yPvPkJE2mVnKgE+kxIATl5Cs/BF8Hy0xDpDL/pE56GPBXZ1sAmsu9///sBetQQeD7Gyxfd3oG9H6oSPZNNIdAUMg4Kpx+yS9DBiNKPG4BicJdxpEUPBvjOZ914CkOhxQ2AVPnqV78aL4qiM5ZltPUNdLY+NRWEJrUjytIj2Mvk3GiNdtd9/Jvfxucx6qwFlUGnWhl/48jPHVD0wyChNQYCaniDzbiGgSEChL7hqYgfwCPBPXh08e4b+1e34WTHTZpfsiC6RCFdiuGSZpbJkdD8zZi6hJkE0wIAVAlI/IMgEzkzC+aWpsxfhg+5uQmQOkh+wDhUVtSpbrMBLZUDfdrL5EjvLQ1wHyuMDudDRvPNAC+VgTZwJvVzfbbuaZ5lYO/HMfupd/VVLD7nzI498WeRWYYfbj88ZXyDTX4uwIoaYn55YI2fQT3xmEXjmEX1XS5e/AsWDvNxiFZSPwbTd4GL2TpE+uRh7oCa0li407mTnc5+207nePt7NzNiIQAtCa2OlggLYLMynmZFFE+aQQPHSCgrJylTUg47//a1Qvkg9NXfNg8ePmr2DhUeW08FbDY2AWiuMnNRHvWv21REDzrJw8XTC/WCJ9mYmUq75uMYvXnhQ02M8iNCP/qHFTzjFplOp6aDopOgwmUDkaAWlkPPq112xJibuo8CwjxDUusKAAvU8eItIBdnJU+XBFPJTxUuL3uxkdS8+fIAVeb+A0ltzdSIujczRS+a0RWJGkhlW50Fu06HHwkcTxmNUxYZ6I7RXpR3HfE0u2r6QrIdqJ1UFBK+C1LR0e5tJzx/9lo7IJjQ8SI6lg4ONog3y7CjYCVcQ1JjQvJo7pt91WmsQLhALdBpk0m423IqGjVYx4BXpytBjZtrLC91PFszxlSFw6yJpgN14nCXDSZWjOwiz5eLTkHf8yDmRLUz7wqdOqkf+nIAMzDSLa/fuB57qpG2tSG7rzqu9MNuzrne1X7qm9d1hDttyOrHJiqBjvRNiz1lrpO7DWqmT61Pz6NK+rM1U7g3v0YJ1L16T9Fa5hM9y1gAzYidaSjmUpl+OtFAJvMinTqa9Glewo2Bok76v67B1Vuaatze06BKr6oM4LrX/B5rcwwc3pTuvK2tpje0jXX7jdeb127r67+S0vHibeynFrCR2K2o7pGd66klbw1M/ACaASBpnd7pyrC5BZ1CZI9fITM6wYGLq5dmoA6DG5oG0p3bIHeAp6SYdsJNuDuprnzdiXV88iu/dOgANB0PTYE6vnIrib2Jnj30KOv6IJNVF9TSTn7qFttYBa7tPGXZ7ae+ms6pXrCf2u2o61+Hj/GBfE6L+gPQsVm9xWB7mg++MqhkFgR93Pki4an81NCdYexoqcXejzJTmgskJK6I4id1xii1FxBBhwVAxGjmUg3oqUwf7fAYJGpgiG1QC8wcZMOLApsCORIXE+xpXZ1vVqaQnos0ZbrIXPzUHVpEFU7XvW6rw4ukC50AlfUAQMtSOTTYGsz+d79TyhQgq4n1jAnlr1LmbKXMl7r9PE1I7fjZnGWI1I+xhA63XWY7X24YCqNZJJiiJ5a1n+mMzM8065HnqK1+CNS8IHtZ7ynGJ50H3nxpacM2TN0/KfTc/SKhUUcALdsQUOfYEsw4BTdL5WwkY67fe27qm2mdjTLqAHMC9HTq3UCxzAOh0n/O3QCTDqEz0KenMnsG0LTTIBQnUTlirtqg1mCUjw7xRKCzI7/TZx71+WYJM8DAKt9AijMNAtS0B9ByUhZ73fnaGe1EihP+ne98JzYzweeSx4N8PNPa9wsTqOFuyWG6pd81/Szny2eGwngencsY553JI3Z0kjpLa73ahU6NcN7Wl7T25RAGJpiLw0uAzdPu3r178eRDlUMFYTWWjU2E+0zq9akciYWwsmSn/fB4Gp+7rihQ0JFMIv/idIbBaelhf9fMYVedvm1xft6FFYEphoEhrsSfjmbJ9MTFSNUlSNlbf3RYFZYiI6ZN9yIcqG9IYoD81ltvxUYywM7TiT0hZ2Myc4KZiaPLlFuAeplsFyctwOVilx+vkSF9auOboMOZXCCX2Q+pM9JDYpmct8l3GFBpWjm+Jd5lCJIt+3N4FV0Xey79PPG4ADHbglveZD6ey0pXldruvWunyLZjSEjH9nomAaSisXavJagJm7H2j8UPpUPHBsgMdvwZB9Ox7XxJDufQaHtaKocPoV9LBeHcD+3RS59xJg2mx6MUkGjlCDG1x9fIlMJSeBlbunPCiZb54vZMzDaYzLRsDyaaGGga0+sF32aYOrE0qYeTU55CQjfSjR4qwmmG4qaEQRtQM8/K8cCerirzUoYBbVZ2n3wD2IplACo6t6RzXtULAruS/JyFh3Ge5MHXC4ngaT+rA3oa/eVSuV9O2gfLlXry1EuCmsHRdMbXTKn9JS3H0aQyfMhPGOnrdISXxvFIaxYSPO9KuOPK9ADbcIxWhiRWSAtqZlaa5vVnzxstP8gtwPeMc/cCZzyzqbpyZxIPBJhXZRum8GOA1EsZtCSoV+cBTOdijwarVIAMN2HMWjAlx+Q/8810FtLV+zmYVkInZsBCPIsA2J6GmlcraDkf86vQJawEhPMbWgl0umlAcL6Q1EfKey3qqM3zqs8QjUE9o71VXFKS5ewd4ZBJdH1OPG02tWtOJz9t8ATQTMvGghVFU4OHtNErgoP1cuLPgH2qoC6ZC+MBFKtTHKbOxD7vwyFF2VzDS7fs72XkzUAFQBNPOuZMmfyn05gv/dM//dOYYoJ+WcZQf7mzfZ4IdJ3HtvP1QI0UVt02dMWqogaNceyYNu/f5ChfbRV9pJ10s8NOUxu2eQL4KcCLu88F6IeP0iE+7KU+jm+T691LXhYQUGNTEzfWHEM7vHCCjanbNif7OY6i3fPbPlT5GVAvT2KI7GwYgGawZqCi3yKBDXY6gRE3BpCT9gO90cwRCQAaMAJQSyV0ZN5hZF6VsDEDXY/meRKUZqjjExv1K5obcexYBjXz1Jr9AJA72ln3WHuge/lTxrYPArhFYemG6eqJnw1RzwTq+2of7T2gqDj1VCdUMeeOpLboz23slZnpwxcvX3Pj097Psul9ncssT3uGE1tayXICLgE61A1mH9hJh24L81l2pQP4WBEqCZ/KAOh3794N8P/4xz8Oyc63XXhTgzj2InAOCJL3b//2b+MGoGqLgD1UfeeZBQqt7uR2C1AYJE/wKds5qCLvHHqSGJQ5RUtVAI7XufRG+v0HD5tPxJMDoTpeEpBqpXfGkpSOs0aoTuqduq74/WTzu4SAvE5XVfACeVO7l6nwjKROkoFO8bUMufG0AIiLDkCqMLnP+RF0AFIcwDMzgZ/VK0/BEYdKwg2AdOZCgiPp/0JHFdB54+Acr49j6s6n1bBRclos0AVAUEHCnSBaA9W0+uyH0hwT5BMg49B18QO9+pjXuRhXxH7qxe8oGtSoHS+XhE69MIeDo1EDoO6nTR1FBy3opH628JVgY2CHtIX56MVIasAKaPEzEERaG7j4UUfoKNIBdNJ6zzRpGWAZlNi+BqrSC3KeXqA8hBuYx3znBZ/wnJrOpzsE8JwOYI+BW0kqU/OP/dRpYHdLLxzsbH2+eYtBc+yn1gu3fCo6dGpAzZ7qxYbBNoICe6x9i6m8HClGQd3dJ8uDeYg1MJtZCxgP2JHIABxw4ga8pMEGvAwgAT5pADf6MJ2FGzCXq4Ok5WZArbGe7htqqC5zOz03N/JrIOcNTaqUBooHzWXVB9XnSOoUA73WZNx2qptvD6UonE5PHdhPvatjgXd0jFmUJ316Q5/G2LjMfmpeEkAFcYWcc9Ym77z2zuZ4uUNGQb2OZhs8MBw30todgB8wMwBE7QCUAJcLMNuYhv3YZQcCaGgwS/Luu+/GCUz4CV/JGEQgkRmQmAURaESPl2/f1Fsq39KJUq8K3HwmDlNjNunNhCZXJCrS8TygmHwfKBllpSvaFm4yFJQLp+nZNj9sD/HMaT8L9gRQ9ztmVaYYxOSH+VyoGNadsVFDUFEAP2aoc9xxxNduJDw0uVYHNZQxgAxQq67MGwvURwI1XxCAdsIbSPMVmbI/uYlJ8cnf/02xKbvclBMep0KrJ42gn5M6xnbZfoet04Y+F/3gq6ZPvJ+sxJGOpy3X6sa3u+3lKM2c0NRnrInVDHf4crY7gYYjTQEysxlM22E44or5apjktItKQNoj2dG5OXuPk5gW5XU89RgzmnALIANmwM0SOfPU7P1488034psv+1KXNNEXEhdQso+m20szSzvp4AmqSh5YHcQrgfn159gAAEAASURBVL7GKqhw139Ke+aQaaOgU9J0PxAGn7kcj81FGlQ++hM3YLaquCqwo1vST1u3ZRytpE6wHWTxmKBYppw2LYxDkqJy8E1E1AYM01E+xhewL2NgNjMq6N+W0Gb+EJ0aBKSNm9nNB48ZyB2oJf3VcXzG+bKA/ezoY3WgvnYQBWRgr5VTq0mpofYuE8ZYpRywm7cA1QNR6NGHTNN6LEMeeI+AoS/pD2yeur4BptejFAilexqFFtTTkq+WqgQYzIARSGfmobnLOfuY6T1UD+7uMv3UEsnDQLOUNovy1uX0nlKI0q00UIztpwKzZHazpXIY4PF1rfQ3Wwp09T9oymDcpb/LMBzaxZ+ei77hjZePPvoopk0RFKzgstBF33h2BUAjkLiYkbIgIj2ArleIa16fXgvOcJceYONOpvEAGmbwyGJG5Atf+EJcuEnH3Q4TYJzzYfN4szQgvny84UeqYJZhYJm2D2pBOPSJrAno4PWNLR1iILwlQA91y3yYllAt3UOUXkQYPKZPWMHlPGpUQ6QzT1UEDiu9pOFCMgNmFs7oJ/cHfcSqMX3Bfmz6FKC7b86iXWciqQ1IGg8TfvKTnwRT7t27F18X4BUhHlWAFKZ4fhpmAnDCzEjfCEgMLhviS4A6fMgmLYb0dvfSZcRFMpJWWCUoUejlSp4FaK1I9QlQ4CjhftJ1++ADAgOewH/WBgxUAMkTljROh0T3Vgc/Zekr9vYg6QE9Nwf9WvfVuute0+tQUces2Y+uxh3MY+0DrQjCJHRoGm4gw0wkA3oYbh5j5EP3xiDlocFnNpAaluyDwCzq747ghqDjBk0NRgCmtPFlLvJwY6nOoVOrk4dOZwr0txPV6Okm2kdqD9jh4UdpBCiyhJXdg3WtAkdvzirdFC+8RyrTJxhs6MM385kweAlwCeMGoE/IC9DpYwQYF/03yvOqQuZSPDHtWeEuL8796Epw5buQk7tgAI3leyKoH9zRLJZYKsNIdGuWw7EB/Fe+8pXY0fejH/2o+cEPftCqK1/72tciHcw0w2D8kDGgYTBlwuRBU2cXU2O/dEzrCdQAW6Dms8t6lqqz07ReX7OmJ8jIE2CwlAiMVEV5VJ0bYCPpNgGiaE76GSd0wpiyny2V6Q+enEhX+gyJXPKWPM5HGtxIaADNhdvjIvqmvBnmVdfsCts/8H4VUM8raJ1xMAYmIH3RoQGYG18yijJJy2Pri1/8YjCKraeoIuQH7Ez9AXxL6nn1hDaSxY9LngxlJ/XyGmiZqanz5IG5SCrR4Tvi1GObx3G8+eJMmVLk7ajiTUGdi9iol+a9n+lme/JYx/hK8rGZiXOpN3dVRy2TH7NErqsqoSOeXameM8EzAaRz2wEg/MN2fuIMUAbwtNPpS2JlelQT+tG2+9Tpndb+aTayOuR11G1ZGoPqx1BDplVmPBVgBoyMor/1rW+F1C3LgZlICS6mjzAAl8EG331BXSE96gmqB2lg4CKDpPDgBzWGwQ+mLHuQhgAQYIa5cqcVxYPmjp4onNJ0TdHp5dvE/KBBnmwAYudzKGEplFfBnus8vk90s/IE+1T2Prv0BOJNfcq526UnSkOEOpJLuwAgS/30B4M4zLLAWbrQM8wwCOrTKB+JAAM9AKGMkpF2B4AyOACvR9ykpzMwThueBT+Al4sbgBvCN8xkUANo5qxDUqe9HxzsyLFjrQF0PeD1PG2y0uF2cmPs64YF4Hs6n/oIyazTT08L1ObHMrpuWe+L4D5VUBt8BpA7smaM05XhhDmf7aF0ZZ4hNzcCNxNL8DwFkNqm5/S1P6QpNxavWAHoUD+0+IJOrYNsbt64qTdf7jePt7eaQQ19DqbRwYlGf95R/qtXrjZvvPpac+3KteZAEcebmjq8tJu3nqJ+LFI+3IruZq/b06XoXDw54ctYn3QpL56rBTWsg+GtSQGtdx2OMVA63J1hf12mw52ujh/ykxYpXao1pBulkVkQCy6AWnpvLJnrzRdWFHlWcELTkyePE43MJ4Daw3IO6NjYdzHXHU8PAYs31K9cvtIc8STSPurNS2w9TQPSFtQ94rTgZMaDupNROb3c5lYPkxOLa0Ht9BArsR3hIS0ixskm2TVw7Dc4TcThY/5F4Y5fZNflzkufMJRG3+SLvEhtZUKIcy02JOxSdR2VBAhPEW6Qq1cuS2qqLLaaxoeMruStp4WkLuh0FFd3UTY31RBPhsLGSqrT1v6xfHW40WU7gbDzeSxS5xvyi4twq+ZY7R/Ker7CYObU6aOy5vUNRVy0HpVDenN86wUw876itpqyTL6plcWxzoP55DeAy7JKd8QjrZHOAvY2Mym8wsV+aknv2FfNQBiBsqA7xupSljfFDR1mitC3mSViSo+LG4A1gnLmiLROTxyzWUyb4iY/cb5xhng8VJ8OwmXscGiZonbPSOo6QfLD1QWcHc54ZqEAGmbSKTAUM8bMsXinD1gKZAA61A8dO8Z0HgdE7ugN8k1NdUEjFTOP6d3Dc16qPpNeHK9pE8BkhohtDLxiB0gJg7+AFB6jj+PnYuqPVWJmp7ykTh6eAlzMapHvLM0AqGF/1xkBj/ON5wCYOwPJkgA3rdIG8gzTkc6AOmwktUCtjruiGZTXXlWwAO6bg7yJa51d0hsG9FBoWWfcXEPpSurrdTOQRupy4Qa42PCVxTLmrhlgAlZmpuAfwOZGIA7QYzMHzkwTac8BqA1pMTPz1exdL/vWQw1gwXgejew5QLogrQnDlMCrS6wBbfjQ3mi8QY1UDlDrJWDNU6MS6IzIOIgmpHqkH/pJlBwD/VSGfl2YHa2fRMpX+k3gDGxLX4DM4BrwAlKkLoC11Aa0nNPCxifAjnSG16Rlbzvz4EzfIr3Je5ZGkhruVRzs98VQirOs46SyACgM5cINg+cBGqKLQa3HJpIaWnqEssIHfSQPpzcF1+BVxS9oO3gmaoDdpLdJ0VV/OPKUbfgBAAEz2xZY1cUQ7jikLzMnBjyghSeAGmGCZAbM5EdN4aao+Vw2I+JEHzPDKwIX8Isktemdepp6gs5KVySO8ka7qKZ35n6YAshYPn/nnXdCmiwCc1nJkuFtPtos0MZLt0zpxUAx6dR87+XmLeapHzSPBYD0PDBF90AwLQfmm4sbI/4ILruvdJsOfWlaXdhZuAAt2xjYD21+mEfYgBTgAn7icQN+j2UIB/S+yOP8df0Jdxnmgu1IG2zshdQkBv2VTm0Csu1UthfD3sH6DgbCHJgIg8cYOJSxTgvoWlOCGjUElUY6NUOebXXsYzb6nGgAVJTVFmpHeVM47PRt+AFouYZMzS/88L1epXU6bLuH6M0Pgz/zeDSeuwL1eMKLEMNdzzWVkWXaHqBprKRzUj2wE92gTxSAHzTuiKSalKlKdz/riwFwvw7zfYv4WcaX7vlUEx9rvqyDG+Og7r1Falm9jiIXNXX1+HGwTaPZAzbAjSsz38AOUnRFvsyaoogZLs0EdImTqpeodaEX07UMoNsWZj4PsLFNsqxjHNTLUjoH6acy1eAnvd1R/Tngi3hwTBpjunUQUIZbZXNX8Rh2WEraps8OBp6ZSpHgf5yrcGAW1O6Hglrbh0XYRXECWi6moxihM1VlIM/cBLTdBgnCtCALL9gMGHXmBxuaGBj59aY2uSA5H5YdY3FBnsHVMx3g/jj2U+sNEWnsxyyTX9K+knLvxwK00w70YHRbbPwzbXNFL4zd8WvZKs+C2hREE7Iv0tTgs991mtJx5AHIvAbGPDbzqmPG7W0xBPKQn9avBWw2H72tfd58HgNQYtr0InDcHfxRxgSI23TiLDMqvBjwiU48/UhvAsV+at08ceoph0Nqt16I9wW9wMwPMw5MofldQU9rRuUu8k8wzL0yvSEDoIZSx35IzYZML2DVlIDRFwsCBjRAphOnrlKRj/xIat6eAdxjxuybaX0L6vRiKmdKb+f6jdHqwkWtIGgn9wvvObKX+jGrdTp4fU+rlHGbsLEJUC8ANGXAB0DMVT6FuvIvuAuGmWkTmzIA6ok5TyFZCVzIA0Y6CkAiFQE0j1cm/KeA2vRI68cztCzhbddNCTUiGKkf0CdQ+yWBqyobWpsCY5KkRW4lnRHUQaefxmpKAPLStpbedVaGFjz2Lmk/hYAcB66zuQlQq81jnUr7oMFN7sWQKXwpavNSOgdAjbyyzEquznf6PDDQWI5FqloPtrRmLpo9ByzTejVrXq2gR0eTllfDsF2G7Tp/AnUHaHRr9oEwT31Nr3Jx9NgWu9dEO15TrIFbExzwU/aWNkdd1gsBr0il2ZZkPhCxo3hJQHp1nE+tWfEFoHb7vOmfto61a6Aa5yYIFq7AxsH6D4CadJIWeiOaP5vO5ZD12+4MOoa9HD/96U9jBxiSCKnknWCAkzeel/k8Bp3OI9p6MLV3eXVLDGoPEGPAyEsCAnW8rSJaqA2WijVvkiS2PE7UyzTwlRuCD41e117qrTu3mzv6jgzffElbT/k8Bkf5Zr16Qm/DIz/BxtpVt/Nl9VegFuvjlqELym6g+eu8l8bZafACat4iZ/cXAObxiuGtcCQ4+jES2/sTxikmvdPLtmW6sc5vQc1AkNVELrnjmy8CIyuKRwIR73mbSzXHEg6NxmSXaRKwpRbx9rikP+2OjxjppdsNvQWzwcu3E0EdeZV/rD1lm0/TTT2WrkPJlNHKmcujCXoRvW++pJiSQOnuYE3lT8ugZqB6sPWRmQr8d+/ejcNS0K/ff//95h//8R/jDWzOeOMQFasmrpcZa3v5utJu2pgvvJkVdkYK/QxyQoG9eWdniorgkXFY9vbpDAamfCO/q7d1lmDNx9pf5yjjcU+uC83sN7z2tkWF+IiDgjJv2phZhyQ1VP3AnE3QhUBsMcEu/WouAMpgDmBjMyhjGyObbFAdOL+Ni8cte3yHGGgmr1aDzGd1TtDhBs5XcIpwEebqm1n+1NyKFDmZaYRN2CzBPvkz9o3xsOT3WBqqWqYbqnqv/QMJ4LL/UnTmpjMO5HFQpX44uLAzrQgp3UWSdTphFOAF3OjAqA2esrLtGQzS2JDPl8Ow5zHXnVKmMbY4qCYOqzGgoa/yjqV+SMNPRbSSIzOm5Y+p5JpER+injc/hbYAiIi4SBsApVkWdiYEP5oF5iG3+EuerrpDTE16mMb06/Vn4F4P6LGpRlGFmYjMQQyJjc8EobJhdMpPsAB09m7cwHD/E2KGwKL4CUPp6AKcwsaqYZj9422V3d0cLHTruTKpQeZ4eUmU1cdsvGCqYfmgKO81f85MnpPlImA3ChTEMg1H6hEE7vOaC974BEDyk4fI04yjPTXzN9rkDNe0rmVm2t2RO6SY9HfHee++FamJJX+a1u8znsLBrFNGhDBABtNzHnJ2nGZA7t1/Rec1f0glNOkVfy+YYd32BgQjv/9QF9GP7PlPsh56WD57QRoDJWyzMOnHQI3x0OCogYxj2WTOtiurHyVKkY+zDzYBhqZ7ZKd5+YXYKkGNG+R6xi3/m87af/1yCul/Fvm8Rcxxv27npnNLU8Y5LEjc/+qOzAWPK28GyczlfZ/fL6cL7LiiU12wuQrjmldWneRIfkhegMtvE8WzMMDENypMRaYwBxAAf0JKWF255fY68fjoyO4Ub/vLiBtIaYI/xe7TOufl0W+o6AqaZGVAnWu7aish0ulXG5byLGFDH4+fRyJsvnJqKqUFsv/ParmvWthxOxnQekjpJaV68vazH8C3tszh6+Kh5ohOWOq0+Sq3JFX5RFknoB0wrrPZmS4pcp+E0L0wbXqBCAFCACjCRuHw/h0UuBuZIY74pz6wUBho8HTH37t1r334hnlNtvXDGlKvVx0i84CexhV825daGkNnQOtUMqIPjosnGnP7mnDrr+fKj8yFBljGDwM5g88JLOiahAzWn7V7SKuATSS8WUBYZUnSp6g6Z10n9nIvKWUc8/EAXRnUA1BzQiaqBGoJkBtyAH7WCWSmmWJHCVjeQ2KTheAXScRFW30TL1bXi0QS2zIJ6Tok1PZjAdbJKzxY4RK8E4KL4WYrjISXdSJURyKtaSGg1MC7S8RHcSI/dI1mDtRfZerpUcknS0Y4uDIrl5WyEdakcWtpuwxBfynR21+nJB3gBM088fzMeN8AEwAwOSQfAuQAz4b6sYtjvumDb7fIX2bS21+JgSy9kLgmB2oycm+7MImG4mQjz0OdYXfRCDI9Gv6VMutK4s8qwRe6ZPLDDRnWJeNlM5eGOy/Ezdpl5JjIC3GHAOe3S04atp88k0TSNyQritg6w3NPmrfjibblTb3GnLgMeQAiQDVZsVA14WxokNDxH4qJKWEcmDWoFdLDhCzZ0uNCrMcvUKTLM+1nM3sg9IKkXM29euSeNg0nerISUANToaDANN3rfW2+9FYMQ0s1jmuPIi7HtOtb+lMix4gP5uNA5jvkiF503S0chzpRtQ7cKLrzU7YDHul4S4IZ9KmDHIavsztO3ydNLAiWoi8yV0+2sgud64R0zGQgGD/LKDNDkAtT+8gNqB8cfkJfw2jiP7Tp+eT98rXm7mEoF6g7Qkkl5U9MqZBcXPJaCux39GInB49AHpaCnAWokBl8Y4Ghe0sDARYZOY8rJO/6cfgjUQY39o2y/KweKcjNQ3NVejZvafDSmK5KfKsUWVDyFKbsoyKtevCjw+MnT5qGeRgc6lzrt0tNsg25ubdXTFT1RUOmcbrvtLmbY5fYadEzTDRniaR88Y+DHk5IweM6FLj0E6iFaq4aVvApdJBg7jVp88bZHIPIpxB2SbdLUZioz63xT/LzJ8e1vfztG4zAXcGN4BBrUuN1BQzTpRABNJzBV9fOf/zxG5e7cmTy5kTSZ2QhlFh80SJQ/VhPV0bd15se9e/eaq4o74NBI0sYvP5lZrX+OQ0mjCInnfdEB3AHqDakeUAT1cpfU51CLqKn9QfvhiVWEmi7xPCV5KsI36DJwZIoOnnsGpM5nP/lHeexEc+yheY85yWeidNJhF9Z2DtzG2E6+M/uFITCRAQtMZJoJyYCuBmPZB4KNf2pHGtzcIIMMbxvvZmrqLUCdBnMG9b5WFY+kNrRsQySHWE75wgstXTGDJGdKmyRuKiZ1emw/lUTmxYMjgftQQD7SWy8bOp861A+pO6HvuEpz7Kl8gIT5O8Q/6MAr9GhPzaFHM8PBk5GnKE/T0zdwDd5S4eKaUHCoH33spi4A0EE2eyfQWlsSGItubSaixzFopDPQAWEyHYKftIMgzbUhDlqM5O/duxfbWAcrmtBWRKnhWVIHL+RG/QCAr2r/88bjJ80TdW5vnnoRr6IMwM0gS22hjdf0YaSNV/UtmVu6CRgocpSvttn29lMvIpyqvQjYJZ/gCQNF8pT5fPMzB83WX4TA3bt3Q5Aw3VenLxg246S8ssyZBAMB01o6kLEIanVqta2TPkWCF+W0bo1kKBlTdkDpHqsneaHFjYCOzmO3pDeUL/YpcbOgRzOtF4svSae+pIEcA6V9PZ7jE3FDBCaEAW3qxX7qLT2Voi28mxj7qa/m/dRIxJm7bZT6VH6YQJ0ewYFqwYoiF9IaIPNURChQX9Jgw0P0bgzA57IejupiHmPb7XJP225B3S9oHfdLn+IyPjPbzLDfNOx3vMPHbNIhmQC2pQ1pnd82YW3LAXIMFDOwUTnUiRy6joQ9zB1LnmTanOHt+cAlVwTmJ2DKlNK20pLVRiWyH0nT5usyuL7mQxeTXGPh5BuKIxywAkZWDf/5n/85Vgs51ZT96vDNEpwS/JREJYQeUh3+IjA8sEcYlWnDc0Y/I6A+o9LPsBikCxfGHWtw2HZ1EvZYRdRAzdJ6Uytj6nwocPp/m4fEkSHltndWvgLmIqELq2ynOOlgqSK70IuUZXaI5W1WBXEzdiGcMGaeUFcQCoCcMQ9PLKQ5g0kAzo2BDcBRHUmLu+XVwlqUCTIHzZAyaoF7GNTQ01V2zAq0FxQ9Hl0zoQbheM5pMTX9Ohftpr2tHZKTQIUK2GFIEHpK8sYvUTm6CA1iZMVkK3nyr+vTxSVCqSi5h2gqb5vPxCt6vUIKj/lJkGkAXqQsagRjGMAImPHjBsgAlVfr7t27Fy9uIMmZavU3yqEH2FHzWEtgBosbwWUQ3zNdg3vBbnCK1u9ouipb9s6AOrGzTHzWMqMse7rbj0ekxTJmnOGSq0fSGRkgIq1Fl3cUeeubr9CmvdSz3I7ZD1UAndmdM1Qfx/oecRqHJ798BMwW4+Rrs+ED4EV/ZsoUSV0aBuhcpOFCCgNwnn7w3k9C8rNIw8IOAPfTsaSFm2ZhqsmjFDj0Cw8m8mEG1Ile6pKQSrn0ifSGqnPisBp4Q370OXQ7HpPLmJoWeaOtDBANaCS15pKPVQa79F5RR3LzMJVM97S8aR2EZwP/dAHeoWgn69k5fS9sjZ6hNiNRASKgZCNTLRwAJ2AmncGKJMYNuJH00PXsFOlI/yLMnFLpjdLQJZO7pcx4Jm4GOTwGeYTyeC0fsatUIPRfgTpmPgLUSVLfkB65hcRivjqhuk9+AYsWRPdpnaGPwR8ARU8uzdANYN5avwbcQ+mgQ9qxuLKcdbqHQU0nnmMADzGAAQqb2FkwCCkKIGXcAUN55oVF+/N0nohIUjNwPGhe09LyVXX8TakhR8yOhEEA1EIgRylv5MceNSnNaPQZRqzCrzJPCeDSfYZNaGZADeuD/eeHz5P4gaRBciBtDOqS2ZOI9BLBAElnpDGAzHo1X+fa1ssBmv+IP8VUxiE5XxU7BH8oMeYMEOgRjp3cZCaiIlJ4aaPBc7L2dkRNB7p2E+tyupSwJpVfphtLW+Y7TfcMqD2id9e4cPhKWB3u+Bdpw1CW03lT4969e8HomsnL108tBchIY0CNDq2B4q506lva/3Go00qftt8m95MtcwcrO23DvxlsCjRCSoAlbQTUrZKnCxOoFy++1MCjnau2fSyfwex4+ykLU4bjruNTqrP7rUBdsH2wF86uYsuWxGQ/O8iWNWMdECuJefYjBoxSPbpvvujb5NoqOuXNl7H60PlsiILO44cPNHWmQzCRjHybPJbJtVecvR+zt0KPJPXnov3ow16BHWtXL/Mpekqgr7WYUmCMEE6gHgXwAAWk1jk1ZuQ6qhe0ovn6UZuj2VJFWIAxV0pOJHEwFOPaJCYLggFTpsGeCshPtXDxHx982PxB9vM4ylfxGojGd8pV1iJQe1aCG/pLX/pS3NjMQKwC6kV5xuLL8NLtlk+3ExedPvkSv/oxTjFsC9TuiJwARgYzhzNcpFCDfB6jSVPHl2ClvX1/31fzo+Qmbminbkkp+7m5WdKuuEOBPC7yHGqzFidVh6Qm3/wu5QbhcntTSWf/W/Nx9Rp0XJzf8uESKvWjSDRAjaD1Vbwo65ScrmsJXIfVRTo8gBiRSSIDKO7xWDyUHTxQPPZcEwmHUqF/p116zHlf0zkil5TsTz7/Vhy4HodExtZTTj2V+hGFzy0p+oRBMnPMq0rp+SVcrNhxUF+sdozWFkBzsdzLKlm5g2w0kyJC6sUgkYFi2gcSb77o0X5DO9ZYbIg0JtIJF4eE3V9JJxEmPR22NWNzTUf5XtrUiU9IWlYrtUtvc5ddehnUsdsk5Rr6dR24Kb3RaCjdZylMu00WNzeEzuJkk1NYKtYZ3EF1eJ1+LF2dj3RcAIZFmYVvvvQICIDKB6ABYSyV6+XYW+zLvnu3uazZEN4xTKZAtMrrjNzpvwgiXtLfol9u9lZLLGuQqO7QtalZlQ0BfsonMswLeFTzqSv0s+UakNQwnWv9hg5AwrGUjcRkaRvDciqjdpZW/fgEiKQlHemZe2ZQRDxz0U43pZaUS36kNbvKoDMEgF6rlWdD89S6K4C0pqw1vaeLxzyzFhnrbfGJaz0KbVzpCPAVAQYjwPYb6/GCb6geWf0o0pdO2jXUjjLNxXTrJkftWtFs97uh8FXOwrtSUQYWKgBbG3n/zccesAGd14XY2cV8M49RAM0Lnyx9e8M6QOZlUXaHsTQ7Bk5X0B1OOm4E9gZTloHkdK1d8lGAYZ46VA/cArQ/j3HrhjbMawUTumndsswYcjgegDXPUn1yh/U6jfwCqCuijBTZS+K4wnb74O1pGtN3ebbXX2ZuR2YEPgTKsmZAUkMiDY4SsUR6WcJ1ekDKUjZAZrsie3C9+QiJjWQGtBi2OCJR+USc9/aSBhBBB5u83AhsiTTT6zLtJz0SlvTcNHTKYMe0qFJOAcUvCQTC8jz1rup47doV1YP6lBlw6yqQmF5ddKeUaV2z2u66cUrqOve6/ebrIK9UmMOdzjb8dty66zSF3iCoU78UbBWvTyIMaCxqBIAGpEhfwMmuMBjA7jou0gFevgdI2h/+8IehC3/5y18OQHJTAPZ/+Zd/ifnYP//zPw8JTEPN0LLRZRg3DFKam8dmlPFquo/yDb06ryyy9ZQXBHZ3L0n/ld4boC741MlaFyFCdrYOB5w7G37BE/MFlQ1DH3FhHOd05jF85SLcoCbONCPzEj9wNcoY4ukCOoOgFjkRTDmT7FhAZUI0DUanBbRUltUvNpOjT9Nw3o0DyDCETeqoKYCfPEhX9ugC6g8//DA+kYH6woGQhJuxdTUoxwaVhmuSIR9Kc9aj2QMSbgZwittiQBe0lS5voKakVFr6jXJa5p1/QFNf2gS/ETDwH377ycgTEZXPq5b0JwKGdFwILfrBK5uk84vTph08OYOfHqhVp06wlIV3PVaGTnbDrASG9L0/f5jIkhoGYTgKgVkKmAqTvEGJdN7ji57NTjxADVMTuFJVSncKUXtoVDZD8Y6btTM4sTRTkabm1A55uxcBOtopP3pxHTZL+TyGwBsueM+T8IMPPmh5TP/QZ5zDcvfu3Xhqov798pe/DBURQYNQ4mkIkBFW9BdPWFY6JwuTNTGmADWdoavqk+jENRSGRGawBuNgEoBFAvOI86wHAEQyIM2xYQbpuOtJixRHYgBsjKU+NHEjZchXApl09pNusuFmyGqHbeap45NzV69FvWN/SMWw4h6i5FRcwVPz0/ZwfYoMwwnWHkpbkC1IXW/hpRB4Dk8BO1Oi9Bd9iY0qyQXA4TEXwognLP3GwNx7rVcGds2o2j/AiQLUdaxzY/vRWqeZ5qex3MWoFei1+GEWYTABpmB7Wo+4IUM+TG0TBqB95hs3jdMQt5pRWcx+BC3Rw6156mu6MZFaW6ovy9qB26iWfqJ+jNclsXNdW2BTiRzf1iextvUSHfky64OsYqtkbfplHebJ7M2d5vIRDO4LZpm++c1vxmwTaghngPzoRz8K6c3KJYKGGwCb3ZGejUJik5ay6BPoAeiVQR2NTNOdU9s7DurM2ETIntXZS6O4wzE02AwGzMyEwAykMKAH7JhZ5qe8EVn9IDlgPlIcN8Aeyl9lG/eCsNhPzQ0i8CK1+RyGgjki7FJ14wBAgxCitX+sIHOWG6FvTGF1nvfpzffRH7zJA++ZJcJmzIIqAU8BJzYXYCaem4CnLAN7pDLCCMnN2Ig4P3Xpi1WNuRD5J7JiHNSiEjT0w1N7Ir3RuhvEJLAbGwb953/+ZwDy61//ekhBg3+UWBUBeC35YTKgdhlV0p53DPQBL9WNxZdYSQTg0Nw60NMkndW8cZAZ01KEQ0NcKsJC/Sn8bV7R13/aaap4ysM/lLTN0/HRQW5z3a463H7nwyYPgoen6Te+8Y1wox/DSwQPNrzFkN9Cg3wuD5t+gM5JgByFnOBnGNQLmLlqeWYmjWeQx8CQRxVSAB0MhvIY47HltFPL4kagE6BN3in53RmDZQSwEqjVQwK3Lm0NvXJZZ18wpafpPeeHXXEF3waYNxBE/TiT+omO8n38KO2n1jvZzbFObNrQlwri+DFQ3u7Um63llDbO5kohAJSnIipfopNAjTpBGFIWqczAHR2bBTCkNmMbxkYGrfntcvADbPNmrI6Ex6WMun/nmgH2zU0/AGqKgEwmhdDgmktmWqQbSqNROb7//e+HjsZKIqNlHnswG4YuY2AOj8NSZye/y5tHayxNqBxIZ3RpqR9xsI3qxSaky/rs8nNJL5azzadxxhecg5GZk+jjz/Y0uBVo/utXHzWf6JG9t69T+kkiYAsZIp3GFmnOZV4rlouD/wAUXRhhUgIUSvAEQL///vvNv//7vzc//vGPQzX8u7/7u9izDa9RMUozBt4yzaA7eDIYk242+CHmqkrJYVwOZ4lQgZrUvnAlFhLSL6/rkDn05kbxCEPXQkozqENSEwaDOQ0IKcGjy3c6cVww3YzHJg2MJ53veMLQyUszBlinmRffB7WArXow+wFf+Db5vsqeBzbSYYKzsK42Yu4RMw6i+RR9VQdOPhfID1A/NR/us6nbbJnGvDqTdhG4zDd4DS9LerjNf/MYeggZ+gF+O9z1KvO7LxbVwXmH7ODXUMQSYb3zqalgXHRFMDE9Iph7dSeVtJ1+USNIB1NgDvPLzG+yVM4oGnWDgQZSFglQghZdzkw1Y6GDNIe5XKWhnCFT18/pHG6/85aDNij6dia9i0gltTFKI3fmWSkkTDPsonqUidTfVlteuSG1SQDfF6IPJZ03OPFUCzypsJwpS5i6rj361DWnq8PtJz/g9GDQ6Qk3bWz65mtf+1rMfjAIRAAhuXnCIuHL9Ka9FrvikarSdgDOInq0uAC1Y8sMpdvxJ7EBJXOdgPkXv/hFuGEcAEWHJg5dzmAl3LodDAXwpoFkR9LUknmsfu4sxy/0i3WSowlUdDa67oakanCY4CSjE4/SLZDgHah2MRnk9vbj2DcCqNHR7+hF3ssagKJ6HOfzqXW4SFJB3I0TQG2AusQh22D0ap/zIExww2P6A+DTP+jP6N6oIf/0T/8UsxuoiujWpal5StxQWJnntNwDOvX6i4JZDAaZ7mGmg4EHKgjhNBz9DQYiPZgf5YLp2AD6Zz/7WSyPWxVhpcrffaEzphh3phlt23lr/7E+xRXPJ4AcerV8m3pcK4NpGW+mMWsnqFfobmlsb2n3oEC9pbOp92/o+zXF+dQhrfMRZ0F3DqgNTJdf+x1etpGBNYKCtFzwkScjwoV+Io5D7+kH+gUQEwfoSQfoTc+2yynteXGRLguKNk//3m+Dl3GcCahdIRqIBEbVQNICWq8yGrCkQVrDRCQC0po4LphPPhY/uHC7U1zGkE0apg5RfZjLrhld+6FBHvW0HLqYo1b5HJFwRfV/9TV9r1HSjNP/bQLs9pC/F2BwdwlC/qutO1IzNjVYu6zyYpOUZj42ePNlW3YJ6i7rjCvqWoTWfke5nY633/HYHiAS50EkIDbf6A8/UekTQM4aA/1Iv5GftC6jBH9Zzph7llNjKcfDTxXUbhgMQlVAunLnA1YYYuYQj+QgDRdSgnRf+cpXIi2MIz3pyAOYubhBXMZYE4knL1NSnLvMkwI6XGOmFRbKm1YGmQVhUHeoNrzZfPc7327eUD1ZhOmZlqS7pg1I0lmJk+JSy+4yPSmoXyQmQ524V2TpMS/G2lbHl34ACT8BME9Gnqz0AdIZYQD/GP8giBBK9BdpATFxuOk3pgA5LRVa1IOwsfqUdV+nu/eSQNuZVQlmeRW8lJfGoZsBRnTiWm3gjuaCubZJZ2lAephDPLSWlQBUlvy+RisvEAUUaXQ4ZCN2+WeWDZuf1pTuNlCOsfChNKQNZaeIJGwKjSLLCZy0CaAinQEzgsQrg4CUfrh3714IJkBNf6CWYFAliSe/Vxmtj7uvplat1+oxQC4gFqA2aHnipmFPyoXECL46wQJidXTZ+bgN2BrQzkcaX4QZuOQrpYrDnW+e7XIZwf/93/99+xidl4e44AO6dFZBYmVRHY36cefVO83xQ72Vo5dje7K67YR5YOxzGAan1M6DbfeiWvbjaes8U8fbD2/tZlfdX//1X8eA3lIX/gNgdGx2TKIaAmJWHtG/GfyjgmBQQ5wOqc6Tlf5ayrR4E69anqpP5OFvfis1I0r39S57cy1MoKC9VP3KxDDOVxk+5l4m7RgNwmEq0ocnhTuPcLt9w/S4BTfRpWOQKN1ZnchRvgwf6eRHmlPGJmTQKLtZaXsoXT933zeU/jTD4ANPUs6nRtJ+oO2njEVQCQE7aiPhpAPUqJNWAZHqhAN41hy4Caxnr1pn+NZxMVOZx8ycZI5OXTBYzgVCIJM7n5ZBS0cYyKM1dbM9QERS64rzqSWpiYYGNE3XsrbFt+KGzIT+GMp26mElTxAAABUQA0rUEG5ewgC32006VAtUEeJQO6DjsRESGveLMMOlRs+pOu7gF1GzNZdpANoeJE97jccAdQa03LH3QzYP0vQVgUEKXeAIsLsE59NlYAJIQF0CnhqX/APsXIAdU6Yt3RG58o/BmAlU3iGyg6CekG+I1rkNKzuCSprhtuv4mYbUABWDjP2UNvtqUVzlS3zl93yamh/4S944vq49aZy2TuO4Os8yfrSEdPFMXMw/gTqxurRRxbtOq+OXqc7ZpIWRPCaZhuIxWHYENaj9ZrztNr7kF4CMgaJ0aSQ1OrXmqZlXvnpdb76gbxdcGm2pgc4MSnonrJe04zM3ijgfNwKqTVR8tBPbOveovTgP9TE/T6cWZefML2FQUqd+MJjnE3jRsTCSi6VdRuHMqzK74inAKfWrOyOAJiCn/dRp+TgtvhzozZc0376lgWL3eYzM8IJlESIQ55jWpj5JZCQuJyinX0DN3yaIjovUURscPTME6rodvQxLeGo6tb8mNS9+XlxNp/UXfIywYNUwH9o8hWMG1M5vvhZpz7UTSc1CAKNwBoTLgLrXMKMQBuSZDwDE5zHYUXeoBZjbt583u0hu0kwwHbSLxMp7qBvnuZ4szzTPyxPmKJbJtVixq++nt59xZjdg39TlAhx0YOaYsVcCUr+IlXxludSx9NcEHceTqWxf4C8nrrFd0xjzz4B6KKF41it4KM15CKs7u/YvVceS2YHdxO5SMZuhF0kicYoqe6tKzGBznxtRS8p/+P0fdEM+1rZT7cHQ0vgGn3JmT3Ws9syf4wUcnrJksYqpSwZvBk1V7Ln1DrJKbaMdgT9+JppJoJ5I64UkM3DpSDoUP5La4UtXKvMudNv8jiLflvPiy7VrV/Xmi04mVdigBM4FplsgKQ+tOl31C8COsYBUpycC9z5PA7ae7ugliXqX3khDADQXEhpatJvrooF6qHnBru5nKMlg2IUHNa2iE5krZZMTk/4rAxpiBp5oxoJLufjCQJGpLg0U9wRAwNQz5EWikLcQ2E7TBaVCOOCJnXq72nbKFtQdJUAF2dT51FNBbUlN+7mx/8fEimKfDdEv/aAL4UNSIalXMZZqBh086L/5woqipKBATdy2lscPBcb5T0QkeaYYIJcbOzOYMjnC7JIWMK5rPnhbbi0Naace7yheyeoHb8CQYb6BFvq091m4PfNznc/YzJ4TVa4nqRP76AhfNe30aHPoiSSiicyxa/on7SzTG6Nj+ND6MOawwBgc0U/CWJsikqVYOSNRypojAsMO6fgLHQ3uND145fKVZuuW1BAtT8eh62w51YeM0tsvgFpPA26GBYanxlmDGn6WvFzE33lN6LVQHvdF2kwmXzC+DZ1HamDvR5u830N9X5vowjiYDUHnHJoVKTuGBgWDNTPhvR+hT0tPbySpt9B5BSDeL4x05kDP48Bko3u3+rfTqZM2RCv2U0t1ONayMm+98CWB2E+tpwEHr5PGYOlT7XyL4ruUZ+eqeXp2JQ+oH0OFTxAUQ9kWhtWdYUY43H4TGgt3/DwbQLM5h6kzG9O37XCDOjYzscjCgDFArXM/pOZIb5C6neavyROAHRIihPXCU0Ci79KSnbDOb3JFqJztU6Cf/IX4av7Dt5J3pdsVJM9QuOMX2mJZj4ULM0wEddCp+D2B9uQkQ412mO3JxEYSAmbmsNn7a2Path0esLKk9ilNDBg1R80Xbzc5m2NmhiUB1jSwE8ukJztqoHdOka1lVVZ2A0pmkzD1VCFxCAteEPBmMcY23sxU83XlSiijWTiFRk+nHswgrg/0xWDSVQJpuC+YVN7ZDi+Z4zSUhXuqYcWR9x15G9p0nbekT1hQFe30eQwt5KBqIJkF6pvaWnlZG3guy80Z1qvwJvKsktEVPkMbdQ3ewSMGowDbfUAcQgKe8goXej2boNhHzRZW/DVv51d97BaHWdMZJlA7g+35xa4zlgZzp7NnAwZxh3uww51POExjpdBqAzvCeK3Ie3WnMo10dAj0cdf5Sn8CNcvkGqQdZf1ZL93yTRYkUeos6dxiWXdbjXVIl2KdvDsLWoAX/nNGC21mnzT8o68AMU8+LkBNX8FD+gU3W1LZv86NgCn5u7Dugd8Cj+FfmKtN0Dv3I4UyEVV0RK/jcgpVfh2GhsIcjh4DtOzhZRM6jIAxhH+gjer+qhaM5Q2Wv/zLv4zvvgBwQFYbS/CSkTCbNzKYy7Yp4x0WNs3jKRAfLBJ4kdTo1jp2jLP0bunt70PtMaE+PJiDXwXLerQGPJGUn3jSzMlIPaIuA0RWCBriS0mmjMfNxatcnNBEW3kBgAtQA+Z/+7d/izdf8PuiP3hnkRcIOGASQTV9/twNzu0uKyc3fOaPVPPMLCLmpV5jHAxDGsMcXvQE1DAE8MEIXg/ifBC++8IAj/TWiwkn7927d0NqE7fIIGGQ8DDfZi6olS4Gh9KpA9QqjzdftrRicombTicqdd8mF5vHOG3wUseinhHsipxDG/4icHhd67333ovFre985zttP/D05IVcNpDBV/hLHvcRfqQ8T2L4PB3YYobShxni6QTG9Q+zoW+GCK2Z6TTSagc76zi5HmAihbnDiQPsP/nJT0Ji/9Vf/VWEwyTODCEcaYBUR38DqIuAbcaOMbcEOHwT0VA3NM8WoIYxLGuzCgiwSZ/yyDZ/cLQeB/ZtJM2sUVgBeHlSkqGkReZFbS6ShtNtdD77na70ewzC05I38FElCAO49ANPUnjJCi7fRAfY9BuSnS8L0CcMILlIN8Z3l73IXsCKXvYXIqlhqgGKegGwUTm4y323E4+0RnrzbhyPMiQ2TALYDPp4QbTsiNJNK0t/6e5xoEpHXDBQwI1Zi1gmF1L1TQyOBmNhnLlj3/wLMAy5MHWnlPiP2yICKKe7YaLOLsiETtE22CkC0KIrw2eksSUxYHU/0Tc8VVEb2UwFqAEv0h1a9CVXSXem+rRvzW08c1DTQBjDHc3J9D/96U+jnUgCGEccDMUmjD0NMA+djhE1aXj04Ye5NgDAwCXuJCboCIWpM3DwnzYOJezxm0xP8oLcnsR1qs5u5Xr0pXbY0aGqb5RFvXVxiA0LPFxTOnwuaLqiWxfpfRHo/LQbN7xHKtNHAJow+A5fzWNsS2DzmzCHQ8Np24IrR6RfwK8qyyTvmYMaIFofg2kwjwEfAAa8MMMMR3p7ow6MMxOR1hikgBnp0Tg3hPNP4sBQIoDmeWrVpx0oakXxsk5Qun1burnqwNsvyYDmOYZ7AJpcOHUxHcjW04fSzR8++FQ3sr5XoxhWFTe1TN6dT53yRMaRH9q7jIFn8JYZCmyMaSBt4SVg5mkJj5HGpCtVCPPdgHb5Y+GOP7ENOxawZHuWH30GRXw/aOl6wTAai4Fhv/rVr+JjN4yk0aNRK5DCgHoVA2108HfffTdoc+P45liKXnzNM3ONhscgEZsbTZc6+HXpkP9L513cluQClIpM6soCHtX9AFie6Aa8/986K/Dn7zW/lf30uY7yFR32Um+wZB48q3Mu1aKZxAYdJ80yiwT/qYsNAoMPEaF6EI5QoZ/YLDbUP74ZnB+bMhxuu4y3m7gFbHPSbPOcW8yP1VBUFTXFC8i4ALAPP0EXg2HoyEiD+q6Hrm+GRWW4s2p7HlN7NINXZphs/jVHrRGjdGvZTJro5NNQCwBbAG5xl0CRa8wkUjzWk7qh6fCkdjAiDQ1+LOdq4fAHPptPpmI/0plxDqDmCcpAkP6if0gzmZ8mvMgO4bGYj4vIlPEBauiO3TLRd/N6paRWuc0AmMFdj2rA4M9SgA97AnSkrNNWJFov8dAZM4y++QIupwaVZhHdNm2PtDyhfqB6pIEOUppD13fVua/keeo9pLUYF1n5qfjYI9kWRLrj2Gp6TaC5rnnzW7KfSULqlklbT3cvd2++zL0lSqLLuVEnmD2C/xh4C9hROxjr0Fd/8zd/E7MaTKti4GXNz3l9EplewE8rqav+WHtVUAk4xoq5TWweZWYkjzyYCyNJV0rsmpHkqRlJGjqJOW5LoUUNqGk4fSszWp26nKeWuqGy0C0fqa7sh+6Gqos46Ph0E3A+Nd9kvK43aa7rBYGQ59qKyvdeNrQdlVNP1ZgU7sqdwK7BCL8RNAY1fGd8Q/+gfhDu2QziyE+/IZQIt6npEk7YULjznLbdgrosaKzDyzRT3KZDAwEsjzGWXBkoAmrcMAhGkhYpgfTgsYcxc4jzNVYuactOGkvncNfN/tIOYIue3rSVwBaokWasLmpFEekbQpl4XbPSOHKX5MJNaBuTM1FnwHMEbbnR26nXJuBmPpGjfAdKmCE+IQD6tTGgCWesw3w08//o0fCS/rGOzewHc9YID+IxUXfVv6TtNjlsHp+DSO9nto696ImeQVBPzLtUMhjAHY9t/Qz9GmYa5AAfkCNtuWAozEGCEAejcZOfm4KLeF9UqHQvYuhYfLA2BoYCs+obKgidJ4CHln0ssAGSFfogZQHVRjZ0BWzasaHZHG4itZMD3mOiXCBfZGjzFON0bjd+3FzuH55CLIDhxw2/6TcMbvoHoUMc/UH/oT5iiMNNOk8BTn1yBoH4oS3T2tPl6bsSqEse9+ML3wkLEgAZFDI4hIkwCsbACJhD42EkcUgDAMugBcbz2EMPxw/TmP7zcro7qqho0Cj9djstZWDG/MYbyWIBpmg6m5oIK4Iy+UQze1rMtv7hVAolHxIfiozt8Ve0FLIO43abVulHULA6Sz9g0yf0A30ErwEpT1HGLoDaYEcdef/99yOMPAgfhBTp6EPoQvMsjZ5zi4qD2bpOyGsaR0NhJNN3SGEaywXQsZk28uONNIy8YRCrWoAfqYB0v3v3bjDeb48vakEdbzATTn1KP2Eh+PjJV7J4IsAG+FGaxBizB9uGlOkqoVqmcMqUMGYUi6CzdBq0qBbeemDesAwOuH2ML2nhPf1DGoSRBRB1pp/pU0/TkuYsTe/Q9dGCV6yTwUKjADWT/TADgFoqI4EBNH5mQ2AIjCXtt7/97Zh3Zl6bnXrQIfy73/1ubIOE+ZThcsbqTz6nw17E5IBtQnKirbqxWIKKELJUCRayJIiM1kjSHgoLqYwRWGs4PLFEhvfmFXzCz4WbuW36Dze85wvFjIOQ1ggpwhFKSHSeptjQJXyRWZxiEYUuflynbnneOrpcK7hoHI8tLpiGobGA3SoIdzePOh5bMO/u3bvBUACNIZw0SA62kHIzmFYkGPnhhkHKMyDl8TjE5DIsgRp9Og0SY9upHq1M6fHmC4euqxfjRhwpciA481FWqDQDKV5kEO1HAnPZOAyg4kbyEu+bALCjUlqPpj9Ii2Cy3l3y1XTHbDi0DjMOalM/QUlukIFnv0kTDhPYfI4bJgFc0sE8pDLMYeCCDk446ZECMBBDvppuSZ94QM001Q9+8IN2w7vT2DaNVsAyE8FgESmdbRGKFcWvf+PrzSuaodjX2y/nRdq6Heu04Z0lOHThEby0cX+ghhCOn/T03ZT+MZ1126OgznJl3eXN0APE3O2lgZkwxdKdRx0MIxyD7avMt8gNTS5ocQ2ZNjSvImJRbC5ZsxJJP3Ze3wTYvlKcOdhSjGD05n6IKZ1PGz5Zepvn5h02/ed4h6/aksRL821VKnqiT2fw9JR1ddxYg7KOr/1OT7jz2C7DynQlDacl3hdbI7/3ve/FqL3OZ39iaqYk6ZzUD1YUJa2lfvDi7e5uWlE8evCwea4O3ecGA875hmvrUbCrcJq4ngKU1pWIK6UrUuPk6pLJc/am5GdZuvlWhtXuKWnIEzwcvd07XnV8qkvq/KOSuu6jLsvZu8zUVUtGOqOroxNiakbbb+wEjkpQS7f2MjlKz5ZWAh9rVx10wzgjnuoJEBDNfTI0uxFZ9RPpZohFwNyfk/JmLvELGjkIajOqEiZtEx3fBkx0tOBZ8x3j+pi+bVfL8fZbL3Q62710qiP6NHq0HEm31hvloG9Diy8Zp2EHjjtUupi5tvPPSGGjfG7uFOn62nY7JmRdKslp0Z1fiSUZWhAbBHURLyfEVy+gT+t0fQbrolJqELjTHB75A8hp9iNWFJn94EKnJm5RITk+Kydd6sxOwg9E76lW355oSuy5ZlMOUeDZdsoBke1Rvpn3cwqk/swi8STCxu82dQV/dlyDoB5myPkFNvUF0KxoAUyDc7gds53rdM4XKQBuHGTD0nXSqY8PtdlK7yxuIal52iz5xOlwyYyMlvz1NYK9+w+a/9I8/CdaNd2Tzq7SdNyYptW878Ns7zL3GoAKxGCNwfTbb78dtmeQegk/Q55BUNN+Otqdfd75QT2Z62YRgHnoqRLb7XT7AjctULk5kNS6CNMNw5cEOHb3luZhD1lAatOaguyhsBwd+MzgJBk3xpHoIqWfPH2mrwpoywDxbGjiqwKRwaguyiicgJrZB8YMvqmL6M+kcxTULTdanubeaCPOh8M3H3sRWHlkgYXOnQps37ht61pQgjrp0LwdEE5JawH55s0bzdtC264A2JUBk1pG9RkzEEVZlMvW050rl5vXtT97V/O7+1q1RAXxiae8OKCE8+6ToMPUJ3P3qyx49Cs77PMTzLwaTjUcSt5V8g1Tmxa6GNTT6LzwVAAMac0ijZfhp1TKDB8HdVZnQgU50MGnbMBCNWlzDBcT8U4jW+AWPlvoU+62wHhVe6nv3BIgNVV4qKXGY0lpHSySXhKI2ZU8wzJQigGDtGZRiqudkRlI/1kJWgxq98s55YjBxQCJlS1WJZd5DBvUNC+a2oJVvtCpkdRyA2rdNHyd64YGZBvaMQiAjkDqRAP9KEPQplzy8ybNLS0+8RYM33uJF245n1pH+bZ69QT6XsmDbtmmCVnbJOal89f+NuEpOFRrUU3cOSn5cVB3PXDSMs4kP4MjNtAgregMd8hQ4e40x9nfyxM0kk4d4VJp9AiIk/+vSmXYzxt4TGPUNh9ttwkT+JDWG5LSfFHgWO7e+dSAHBVkgenVe0Ha8xw9XTzMb8UgqGESf62REx93kwFAHG6u88BUQM1gyaB2/bDHTNmWOg2riBL5ahtXdrMHXNL1kp4GR4BRbe8b/OKJmLU+udMv4TR9bo/70/55ZZZplsk3j+ZJ4wZBfVKiLyI/zEUFMWOpQ8nwoTrNjWdKL3bpJVAf88oV33nRH9KVQ2j4m2fmxSb4z8v9YuIYmzAuqVU4VCUEB2oObnhH2jI9NSaO2RinncvjU2riAKgHukKipwwtK1qC6JTquJBsWYeybnXGobihsPSMcosNXT2RChg7tl9GysnW0pYuCavE4a3C+nRenI9BNi9msFW3nEXytCEzLIxbAC9pSceeaqZS6QdvR2UhyLsuz7o1A6AeqwIdljrNKWhE23kOPKc20ocOoCNsxuoe+52tcoS0TlKbF2+ZhrvGiw7xsqzUktpksJpbeFsQ25PT1Fn7fifuh56WD15wwSNewAWogBLJjEGtw+BHCsNPXrMjXQlqnpa8ncSeahaEUAlNOwicwc/gmy9RCQoPvrp7Vq+NJSl0bRyGvwx3/DzbeRflczpo8boR89h0wKJ80W7dsCy8xAsCAXABW0C+LgnEGzpbLGvr8ZtM/2bvhQX7krSfhWnHj77AKMNzEadowSd4gvRlAYtzP3gjiRVKBt8YQAywuZDgAJfTTVkXsLpCOuhwQCQzUZ6RQcov5DmZ12QkqUdAWwBwTWW1ZGggjERqYpd6WpuocKC3GaDk9VUkWeh0RywF6lhRpGySUig4AABAAElEQVQArStL+ef7e83lSXPVC6pl1nMDnQMDX7n5ObwGKcxps7yBBO9RO7yvBBD73VH4SRpLZF7r4sagT6FFWvfvWTVxsfrBs5hFgRPUCGbZGJCAzEvaMMuDC+JLAANo0nL5BvCdj5+rpO9ysMtwGMvjlM5xHZy2TEdYzPwANCQ0gOamUvksk1/W6Uk72puxqfVs8qVZoq59ppkecy1qVc8u5ry5Sn4AQgANOHkifeUrXwkeI8U9EGf1FsCiqsBX3lyyZObVrvfffz8GkNDgIt9ZGoGaDpntlOiENXYE4AOgMIQ7mccXF9IaHY3HGm/AMMDATXoYh0TggjmEecBCOtID1EWGTiMfS8mUVYK4dPfpJDAHsAPUWhaXTs07ipe1CsjXuQIM/Uy6CTqmBVc7b50y/ETHpXy0L/KX9mCufmDk6wdN8pVthwaXhQ38pq/Md/hmXtNnhHMDmK+8hAHAMYCYuFIY1RVyeXX4OvyDkjoxKcmgdRQCDU/9oG/5WyE0msbDIEDKN1l4Y5k7n7hf/vKX7alBAJtOgLHoeTwaOTfPN8C8etIeGO2DwcvOLN09GiGhvaEpSWo+4xxL2xr80OFbqk86symDsSQAMGuBQVBh4HD8KW0cZqO9H3LEgTbsDAxNXGUsMqm/FqXqx7vdtok10AiD33wWg3YSzsDv7t27oWrQlxjS+YqAHIZU58IsU7eKPZF/lZ8C1GbeGGninWb5ogApjysebbwEiw2QkQCAmoswpCnnSyCleYuckTiMs16GysLgBGYDbB57xC8ylGNJUqev/dBKerRmSlTvJK2l/gjUHEa6Lal/EN8mT+W2HLPDNoQiyWz96GwGms+f7zWP85OI7xQcs5/an3EGGG5bSRO6JzTc5DzpsKlLqeYhfeEXAgdwWzJTJOC2/jzEtxNWay3Zt9PqVxqdp+dgR7frihzfRS3tgjFWI2Am0pbRNcAGwFyoI76zUVH4ygDhnL75xS9+MRj9wQcfNP/wD/8QYCcNdA14V8o0aqbXfqev7TSlRygc6LhAiORoceEv0Va6Sd2ZkgpuzhHZE2juP3rc/ObXv23uP3ygtghcAvKGPuXcvSSQaYyT7gqZ6IIPvKl/7969VqVA6CBYsAEtTzWEBno1/YauzFe6GBT+2Z/9WUhi6Ezl6aKqrbF5fJu8NJBeJ/mOtvVpmIbKYMYBbpgJ45hGQkpwIYn97RAkNwMWwEs4jATs7gQedSVzx9xdbWZd5EktB7biAjQZKHJ6niRZgFd7MYgL+kofnkxqiHOJHjlkImNy8mu1g68RcHj7nl4Y2NeMypH2UXM45IbcQg6Fra1LypsdKWx/1Ic26qJf7t27F+AG1IAbYcMTkqcmkh0B46m+rkWruYb4thqlLlcF6i5i3S4YBrCxAS3AgFnYXDCL8z3QmWEsBsZjiLeOhs1NYVWCm8T0nCYy5Xx2z7OhjzGow616BhBZfOELXdpYFHBXOOWkz82p7pEosusnA9jeERtAUyb6OW159bZOetWmJpaFjplZ2SnOp851GyHVCy5B2osY8CBx4Rt5uGgTfvqAr6ERhpsnKSoeqiH9xRQe/UL9zbcB8i806MxATSthFNIViYwb1cEABszoa4DbDPOAhLxmIHbZGdb3kPR8QwYJDm2uKcZ0SQvY2lzKnz7jzLSewmOeWo9m7dB77TXp8RofcEPZhCA2psOOEEdDPF05BKxuSS+/rPbeunFdoNYmKQHreFsHKl7ifGq2nupmmnijuKCp7YbP5qPzYhNGPwByzz/jpp/oOz8dyzxj7pK3Y2lOI/xMQF0y2roydz2zHEgqAMn8MTMfzIDAcBsDFNtMKukBaiQHj8bvf//7sXCAvwScaS20NcAIUGelOqkfCebowKwu/pHq/P/+P/+7+fyNm7H9NMFOCK0lKkFFgZmKQnAlCb8pdQYQsZcacB/xgoD06QD1kvupXVTJG4cN2QDVTzvirR4iiTmXmoEiQLbQMf/pA1+EDZVXhrnPhuowG1ZybDZ2asiJQL1chVOVaDCAw6ZDATAMRgIgaRlEojdbVZnaENJBs2ToMnkDbAl5UOpl7ft6UaMeuifyqU7J2M5ewKE/trLy4aJtATq99SJQx+cx8ksC9c2Ss5fWsm12+qH+Q3cG1BgAjYAgPYIHPZo8hHs2ib5EUPGkJY4BJX2J2zfOUDld/Su+hCg4GbjngrosruduOwoB1a0AdhXtu8pGwZC7d+8GoL/61a/GFB5MgRmoJQAapiCBATaMIX9Jo3TDXG4MBi88Npk2LNUWd2C/RqneZVjZvhSO2uELKa3xAOqSniyvv64ztvWpuI9/+9/58xjKHTzpqBQs6oqJvgLKluJd+pQoAT3cToRdJ0uJV/4t+QcReASfASZuBuj0CYYpVoCOBOfJyqwJh3RaIBHOh6gQSOQlLXnJRxouaI+aaNt6GzgX1FSE4tZZJIxj9xb6GuoGdz9SgHCYAZi5+wFmDWYzxlKceB6hMI6bxWfuOd0Uu+5g59GwlmeyOoqBojjArjytKDJHsqkyHx/9LspmKGsekSzccqS5FPkCyFA1Sl3C+bLhAwKCfqBvEC4WEJa8CA5mQwA2fcAAEmNpbWHC4JJ+pU/8JF7cWji3HjMf1L1+aHtn6ZItLWEcd63vYAMK23HYTk9aLqejYOJgIpfTOdxMXaaCJe0yn2SzQC0gq/M0SkxvwWjxJeRsUccuz4JOWZ19XRGn5Cp5wNPum9/8ZkhegA2fUQkBKoAmHtAT7l18zIxwA9Af3BQAGuBj09cl/ZkmnAJf5oN6pgarB9AwGohk5c5HOiOZYQSPMBhDONKCtNzhMAWdjjgeceRFRWGGgzT4nZ6aGeS25zIzN4W0dbqAZyyTA+wssZn9kFu3GAV11+osOZc5GbCjZsD7sk8Ass8Ph18IEJ6MgJi+Qu2Al/gBNDcCkwBjqod5HnPy3eNsLTyZD2p6N3qYslrH5IINLjIAPh5HNBJgombAQC6WvQE2kgE/YIWJMJe4D7SKCJCJY080+rd1NhhnU5bnsHm2GRv5QmLoB9tNze23N2hFukKraAvIEa2/cvSIVHEv2Gu+wQ94D08RQPQB4CXcqomrSphVC9IjuQmjfwknPbSgTfhZmvmgVk2ojq+TVIwGAkruYJiFlOYCrAAapgBU7nKYQrp33nknRuIwlv0iMA/JzaeHeRSSHrrEu2NOUsdJeWfAmQLMo2QXvpn0k0p5YYkAoNXDUmDUFTKA4T/SGX8N3tpf0zgt/zZTsuiP6S8V03ZJfi0af2nKys4DU5mOxiOpWfLmWyFIYFQQVA6DnRUsHnHob4R961vfCmnN9xdJi/GSOaDmKgFdllfWd5Hb+QJ//NBu/SNg4E/2JgkOM1J0cvSI15zqRY56zPt2cAllytd1Fsbtp6zS7bKHwhw3lsfxi/I63TrthZI69SSj+ZMZHktcSGAaCsCZOkLlQDKjwwFqx5OGzTQAnEcZ+p2lOQs0pCfNvJvqRDUORKV297GFzxcl9GNr73TGZTpBuqJ5ooZMz/wiADi9dtNTTgD1LLESSMsCC4kNUHnEoT4gaQE7fh53uDFmMOBn6o8PF1Eu6Qgry3Xa2ZqedcgcMM6RCrNRsyFn3ZKLXN5KoF61wYASAFpnA9yLjNMuSnf+4kPknr9qfQZqNGepZ3HrAWkptRflKCXqMvnG6EKvpDmW7vTDZyX0KrIW3XpGnTn9yr90JQyAuu6O2n8yHpwPEJ6kDfBjiCd9YIfPybLdT5HrkMk5Dtvuk9Ty4uU1s05e881yhM1qWZ9050uSNbF7HcBcB42TN38ihRZpHT86YJdhfXqd5DVM0zyHw3s55XGq1kWCXqI+/c+ibwo7JKnbHss8ms2WOuGzyMKhNhtpTMDN8irl6MOT6bmYozM5s1zZE4VEs0/NiZzps2KfvN2DA8Ukr0sWqwNL72eFv25nwpwQmJhQPmXSDe8EzmB7NrzjreMUwthAWdL3yp2XgML9P87JHBjQqSfn/UwlBHjsztvQlCPfe9nXXoe9R9pVqC2ovBUT50gzHRnAT4ANsOrtlg3ebeTyWdMS3YdaGX2uFyX22AgkSG9qTzUvDUA/3zufKf6us7GjoK4ZG5JEJa9j1mKdDTgLWgFoAY6jEQDdngD9RPuHH2sz/VMt3x+xe29bgBTotes/6RRwVotG8Va4Fpc0j5mADQ/1Bs3eU73vp5XSh7//Q2gm23oxYFNvu2xsKk/N/LNo5EtUxqz64aeiGomzNSdXdVpSF8PRSVuhNV4QQDo/F5gf/fqj5pHOJDn+6FfNjqS14NoAyo1L2gMh8Aawkdp8JFuA3nCcQE+QPoTRPFe+R7/4uYCsl1+1qnrtrc81u+xluZy+KJBUkV4PXAy2nYNaxt6Pth4VD0uVrnS36V86R2rlsQYQMSskicmn3zYlfZHOD3796+b+z95r7v/o3eZQJ35eefyouSZV5LqAu3v1erN1Vd+CucxLswBb8oJTuLTZRxtZAtioL7uieVsn4jy6/2nz5P/7YfMUaf3Rr5s7X/9G87lvfbu5fkufs9NNwvlMDDA7nb17SvLkeNlM26LWUSKOwDZiYdN51k3LMDHZwhIvQIJoaga09sg2e08eNU8E6EcC9JN/+9fmQPb2x39orknK3tC5eruSxNsC9OYVHe0gd6gaUj1idkTSuwHobAFQ2I4k+HWhdWNfG/B/L8mvb5w/lX79QGFXRYMXfC/xNrfyJDWE2tDBsnG+xGZdzeurH3FzdHdIV0gKw/8ySokaJxsS05sa1G0JhHtPtTVWUvnhv/+kefLjd5uN//qwubP/rLmsr3RdkQ68K7BuC8wbcSXwtmqI2IY6AqDjkjs+XCQASwNvLm9vNs/0ds2z334U+8t/pdOaPv3Nb5s3v/Pd5rr2koeOracENwcSO82RJIhT565/6hZcYH8Hv5Ub0Qe1yMQjTz8MCNdAf+WKvaiMPNm5cRnM7T/RkbX/rSPBfipA/+Rfm40PP2guP/i0uSF144rO/9gWqDd17t2m1AtUDO3ISjo0qgczGeIhg8cNBoro2zrLY0NxW9rEpV3gza7S6HxX7Sl/3Dw6+HXzUOfqsRPxinYyovJc0TZcVJqAb1QMpyr4knYM2MPUN6vDU+zi3xlQwzF2zpWfKI6yCka+3DMg6e2NfX1W+eFvf9Pcl4R+IN23+eD95pW950l/1sc7dxgA6pPOm1I/knqB3gxwNdCTzuyO4QYByPFdREnq0LWZLVHfbOmHk1O3pbdv8x7k/Y+bvQ9/2dzXRi8+7/y6zqy7onJi0KgbgBslGVNf3MEXJUW5Yh11jps3CdcsaRWMoOWJNd8I1AVaI1sO4fagQyAe4Ulyv8yABorRWk077+nAxo+lOz/41//bHPzHL5vL0qEvSxqzPTYkdEjfLIHRo9GdY4CYZ0k5rkz6sSSEuCeqzIbE4FHAzDylrARsxSnt/nO95/fx75unmhU51g1y7c03mm0BfJObRU8FwK1bLouy1C/0zUtnop0ZwsJh+wdUfc1p9HYS7aSUCT7xI7+s+KwaHRCE9JOfA6GayG3AR96X4Sc3/UjHITz93e+b3737w+bJ//1Rc/uBjh2WOrAjVYLBHnPSAWCkMnPLSO2QwkhSEZGUjU9pYGsQGJ+ro3ME7GNJW8sanobMssBipvquKn5f03uPfvNR81R7xh/dvdtsa5rvyp1XQxfX6ZFxrJ9uhdxXLwPTyzYkzogVYeKsFZ5gGY8JnzlyjtVTPxJmQTCMTo9hBkwY4tKV4iPwZfoRJ2nzob7n8lzvTD4UsB7/xwfNAW+xa0DHe3icpqTVEUlM2Za8zHJwoTsDWjpANwX6NMA+lsrCudbxQST4qDLikjuONdPhkwwa6UiAva20eh2o2fudXmH71X81OwL0JT0hdqTDpyNI1PGI9+gXcl1806oeGVq8KEJfcNOHGkxz5Y/W8rOg2QnUyhCGjoBwQdxvorQFEx2JUhYKK/0p9OL9Bq/0s6/Zjo8Fpk//88PmWCrIziFfD5Akzu1OY40sa2E0QEb6ZgnMFwB08LRYqAswa377eG9Pn4CW1OY8PtFBIUmMloWKsqEXhwmHr0Iun944eqzFGb05v33nteam1JCNo1vpfcwtlS1Aw/eulyF4MU2LHZqecQXmuPBz+D3tNdAztOc2FuHQGhgbzKazglD6uqkCg3gqJFJFgW3Gl8Whph0IhA9/o5kIrRoeaX56J6QuQw/xIAbQvLkuRsvPtUlnmD/SoznFSZ8IEAiVTlL/WDcJK4ZHuAGrQHyofBhAvCmIc4sQgh/amwL2kd6yf6S58e3X32gOnrwT30WPbNwEDBi5QHXZgRC9IKbGUufna23slxFnxMNDeCk8xpmD3MjZAO4AOEFdcMRycgy9ElcQJg1E9Djdlu7I1FIqMM2IdIVH/ohLrgv+Gzw4ag4068F+jmfs6RAg0Y/9PcUjgZZZCQ5Ejw8ZsZGJeEnhjVA19hJQxT+rHkfatASdI4CtG4RPYhwisXUBZcYtR/SBTIBdyJUwjhvhiVSQbc3A7IsGujkm+B8DUpWJGlL3aKS6eD/c0IAYw8Yu+HIovtI+8BibyWir3C2YI/XsD8teYUqwAmj4HCJfsSEh9EMaG6ePx6ADL7CNhASw+9o190z7O55/+kmzKX0YQBN+CCAzeAHwpq4G9QKwaXVw43kavG1KIiNMN5QeCX2sOWik9ZFmNtiZx5cDDjIvA9RypwPck6RGkmOOlPapltJ3PtHBP5LaIekzgBl4Nkd6eugxwULRRTbGUfAfXsMPBuQCNlJajIxWg0UNRhIHwLYazRWmYkFSPxRIOAwl285ON360VIl8uTMyqZfKikeddF9WEPd0yA7S8RKAFdhZEDkQoDe30JO3mq39bZ0lzVNMQN6TAHgKw8UhBnnqjFBNAD2DRAAtYB8902msAjy0ADadSB46xqCGx0hrOpobiTNRnivvAXnRy1E56FzFxaUpwugX/yZPSLaL0DkdoJOUPlC7eIJt60nEam5IbrER+CI8E7fko525ra1dNLhDbyRSNi0cMNKnQO6UfQ16eGQGUYVhiHvZDMxEkqJT70syHgIkMTnAjnSVdNwUoHVElE78R5Jo8MK4A2aLHVtIz+daXCFctNCfkeDHooO0TpJaoBbY4ScSKTKKkZvmq9xI8UPfSHvaty0Jz3WoGySWzQ81KFV9VLF0U+S8F7k/4iZWe3gS4uYcGE4RSBhUWxWWZfTcZhqXHaiVHP6kk5SuxF4Ejvji4D8evRwoQyZnNHX8L4UKEuqHAIf6gEQFvAImT6qDFtRM5Um/C70OMIpf6owEYElS9lQL6NEJAWpJ9r1n0ql1g8BHSVvOEDyQsADYSJl4hPo5Kv+++HnADSb7CHCro9nyyrWjcnmZYANQh6RnkKlBlTtD8RfNGFMhPIQzISxAvcu2AjUGPgXmxA/UDwLBmzFnu2x3D9TwBPBeu5Y+fsnjj8KO0G2UMlWAQlJBLw2gxZHgGQzksoRWIFITEO5vShKLQQzqgBGARsKmwaM6Q3yTRIg0MJWBpBAcEjaktCTtAU8Cddy+QMnNAqijk7BlsPYVHsAG0NCXHU8MOpx+UP3aKyqtTPR++sFxoQwgjjaqXahmYJCnIOoH6l0CdO4ftSyamltoQNsmmPQBagLTlU6svHFdG2okcQA11yX2OFAaFVDhvpDqL5fhISd1QkxlgUWfNWz2BLI9tXlLgBK8Y68zYN4U2DYj/DAWTFh8AdSxT0N8Ik4IDsl/IMnPta85732BE3oBapinMoK1OOUG0AnUSVoD9JheZXmcxCq3BHXq5LKrlewCmCQg05M/uROu4EWM7eRABQncESa+GKeLmhegJhEZACmEONaLx+STJ/oClTqAgSPx6NgMmLa3j3TNqiKLCjvP8bSP6csNSYjYlKRBGN8N2BMznwnYSF7J3pACBvSm+LEtkB6Kb1x8XetI6olgl0BNHvFxTwNIPgQa30tUnh6oYUrGpEFN/L7wG1N9urnol5inJQGgDhs3FwRkVP/OEyHn+segdltoBlIbjHGAO8J0V5/hO0agagxD+mjiglbRjz1QkxlQ72rn2fbT7XgcAG6IkXhfnbMliUMaHhlRscxVJNxFNgyQ0Ve3NEjZyltID2i4AL2tFT+cgHpLzEUKA+hNgXZ7X/P5CAOALVAfiA5MJZ30BvEQUB82z2U/V/rnCkPFiDlpMyxjU8ExUOQm2iO7+oObbEu6OgsSweIAsiJbNAOFxPuL0gfgBtOqseFT7cGYbn6+HwOoOfl2WwKV9oekVkuj5TQ3NTnfzAmf5B8ANVJhW1I4nfjPjABXzFeLCAXyKLysXWkRFwyOGnWFZO9Fs2gX44kdduHl17L2AakAHGscahAzE1vwQyDf3NQUH9N7SrOta0eg462WbTFWsl77OcR+VgaVf09g3tNN8CxAjRQG1OZQciDdRTriniGp+fKtbrBtvQETm6h0s5AyJJazXmA7BKL4YH0aPzhDCDx48CjGcVf1IsZVje8QoskYyfjkRtKEM9kAGqM+SOhOccnNEiWdHNJLPcrn0Ei3p03sMP6aCnalgskmHiQv5g9t5W1xQH3p5vVm8/o1DQ4lfdVgFArxXKAWWDVJGjyT2N7UwgA6H6AGzC2oxdsYbeRO42YI3RzVQ+6YtmvZJML6B9RIbwD/TIg/3JX0v36z2dX3GgE1MipNA6ovlT53Z1Ap3S3Zc+zosJP0aM/b0weoH/e16CQk6vsyt+KA/i0JWbSIALH4zB//YWwX7e2pH0Y68RSA2A+3CKG8I6mhRsFIIFcuEl3wn2CV2gyor96+01zmC1Sar9eaYsxyMCtyiR11AerEU7Eldtix0T9t9gfguhTOsK4HVviXAc0AVNxrOabg8AN2dOlnslGFrqkOV3VtSa8kTZ7Ryh060JstxfPv8E0KjpgVYuZjC3VLzXqqrQoxA6KnH3PWAmMIEiKj1f6RjTO8RZMD1KW0Ji4t1aZvehxqKouCAXRMLW2xlMk1C+zypijKuBBOmMxNik596823mls6suA3UkP2dA7Hht4jREoeSu0AvDBR2M228siFxEZN2dKeZ0BNGgxgRNUAsJbQSGQFBeix3cGAHl1aM95S8fSSgL7XeFPXNh2rVHHjqYPp5PZqSwpySteVHZ5z9mNBmGzxBtWM2SGN1xiboP6iayM44V3iNtzMruC/3LKjpWH3GzkrqcmkixH3JT2OeVxSsJAdhVESCwIMINFBt461uiYJdpEBbZbAxG2B6YbeDQTUV197o3n4u981+48exDL1ofiCmqH/kMS2ATSS2baBD11AG/PNhY0Kl24iUiClU5oAvgB7KL5u67s4N/UpkRuv6QWBALW6ELWQGRokWqiIqkju2yB0QX4C0GIC4EVgxiqrVFqaQoMY00Wz9JOm8giVB4ZHkvC13hTY/bagdpDfooYwOibg5a4JSRElJTVk7/l+s6M0R5reO2Yl4mUwah8Aun77leaVz3+uuf0nbzePtaHo/ofatM+KoJgKqAEvrGilNVJUAYRiA3DiMXCGmyVxMPnpqAhv4yQoFAaoxdR42fbKK/oOoUB9Sx/g3NHUViIsypJkek6rEF2UqQtaydjl0h1+Puy+lAbQADtdsXKqbbvgjcW/mMJUG8HeFoNmN0kOnHGpubEPRB1hoYo9O1BUgpgXlT6NXsOVSYiQKqCK7Gn32XMBevfypebSUVqjp3IYEw/PhfpJrGIVizdNbr72evO5d77c7Gmz/jO9zvVc+0GYxWDgyPnHMJl7uWVwcB0VAR6kcKMNziTuGNTY/HX+ALX87Lu5ITDf+YK+ZSjV4+rNG82WXhlD3Yg301U/JHUqhB5xDZT5ApgWxEho+IkWIIONLs1UHuskLPghWMOUfFYALS6N/cZeT6cmMDbpiGmbujtgHLMgTKnQBfsaxTBSfaYNNnQ+Uy4MpniEAH4TLQu8UO5AIxJws7mqkffb/+sbmpM+bO7rzLzH+pDSgU5kYmVQLW2lMQzltrcJiBnBDpQdANZPisqAzn4ATdfyAL5y7Xrzxp9+qfm8bqibIaV1CA7SGeHCLFSAWm4JHwDtDi2KOndOcGGhR+XAC1sv9sVLVA/awHaDx/oCG+C+dv1qc03jGW5wZj1aXEX/KHXgMklnx5V2K6kJ9BXA1iOOqbyDPANCZQAuswDMJVKhpJpo1LqFvp26i3QX0gQ6EsMA0M7lq80r+njS3he/2Hz+q19tDiRBPtErXk+0z5r9GyyseGoNNSSjVR1U8yEIB0sSixKgCSBlqCW6iVjwua7pu9fefrv5nMp8XR9vunJDR5lJv5bIyiudqB4SNhnY7buOQf38/hgbltLYgJcdoOAoQK4nIIt7xMUCoADNmG0zVAu1LbMRq+NoanMJaEJ6oI4kGdyMQjl9COA+l2SmYApjgEJlADedSzyPCVfYBaTiLuBvSAMkIdd2c12Dxnf+9/eaqwLYz/7PdvPb999vnkodORRPxIRgsMGdWtsHddkBKab7BdASw3FI5LVXX2v+6Gtfbf5YH0T9wr17zSuS0nF4JAAOYEsFCXBzdoiAXaggM/fROWS78WEbUKNqcKXbm8UXtUuNQTtAGodEDomh4ORNiC4EsPFmm6aH+oGDwO6Cb3zJ9HLoz+kb4keh6yCtUepRQwD3nq4YVMZdlV79gt7FMxl+MBQgHWlN8EhvkWsW4nVJT921zdOHj+Lx/4neHXz86cfxlgwSnF19dFaiMA7qlifiNQsqzLTsSn+8qm9CvqFvQ74tUH/ui/eaW7qRdlHtRPEY1QPdkmuLC2mti5uOjr8AxkDGBjcIQ5726Uq8Y48RUjnGDrltCaiEde1E4ep8HW5LNvQkNURiZC87gXq3eSpm7ue7ieVx1uKfauM7EhrdmhkSJsi588hzkQ3tj9OVNE0Zu+60IR8puaOB4219uPRLf/4d6bl3ml//4hfNf+t8vU/0gu4jXv1iv3TWDWfVDzE+MyXgDo8lkXZ09t5NgffVz73VvKWb5s0/+ePm9T/+o+bGndsxAxNSnJtL5RvU7Wmq0elo9lDmSjdSv7vPR08AZBue9qF2aM0D/CSjWR+pHeFXU5j1YBEmSe3EuQCy+BYglw3IcYffxGU7TBzrjAOxtySx0GnaDSVS7Lmb4qXTnIXK8PhgYQZgU+mSRkf54rhgIFtPkdZcrOyBmSs3bzWva5yBSsYZHFd0yAwrfvd//7vmiQaRzI4gtePlAj3JYl+2mk0f0EGxKUm0diSdL0kKX9fJprffeLN5XVOHb0pK39ExCNc1OGVFM2DAoxhAS2gAasAdF0AnDsKpz889cwF20puFIfEGvMRinqR2SPHcAniPJhCzb2oj/vRHU/3XNbvEGm4MdoC6jmz9IgSw+bTyM023PNK7eyyfUxEKpqKx8T3faUmxv7izIAEmMydAlZantQIQJzBdunIt5o4vCdR3JGH/6JMvNw8//rh5oO+s+3p8/4EArieZAM58NNtZd/QWxxXNvd7QjXBDN8ItLahgA+JrnMAkFWdXTwNAi4Tm7D0Anc7fky7NWIYLcBeqB92M6WRheM/dTw/UeYBoYQiGkMzbUq02Np4FKAPUaqeBKke4jUv7aajDSntG/SCS2Y9IJADvaI70ul4a4LHxySefBsPuvHo7Bo0xr6j38NgrvKvHiVUQF3DuuDu1QmBFEiMAJGDyTuDGsbakCkQBUknTa9KD9zSPjJ79WHx5yCLNHz5pnuh0p+f6DgxTfywuJFBf0tG/ArWEww1J6Bvi3zXNP+9qBx6LPWkXXtaReUIA3gAygOZIM10Z0EjppL1fDDEdkjhLanRo1IwDvSzBFB6G+P286IJQ5InPJEXo1/mmjZbyky+3HJyVxv5W/TAQbfMY4LFJIdckSR7p7eo/SCJR2FvSL9kS+ESPXPTqK3pVaX9/N4DOXWYaLqQs+Hy703RbSED4RVtkseCUxGFiIvGczaEjISVQdyRpr2n6743m8xo0o1uzRwb1wzI0+CG+hURSx20JsKGOxI2jMigHMMfTATUjn81nCd2COqkdF4WvJaABcQCaaTuEhFi5owWWw6eH2mqqbQhSb2/dkkonXgJuYT2wVmIp3PRIltxi8AzWSDOufqgTrN8AbK4oTJ1FBdCNotLy8yh5phPxkepWQcjrQsNx4X7SI0/bWkItoPrMCwesM1PZh8EGqEvHOnRd8e0KYyRSPqS8/njExoZ4bN0gwbcgKJkLn1Ap8hUSOUvqTpfOsx6e6iLvBTAlqD1AZC4aNzf8lqZMxaX4mgJ+pow5VbY3SBSvA8SRMpxxQxjsJRsIw4xKarrPGdHZKOzzGtSgWz/WytozzYCQhv0fLJs/lZRhBYiKWd++eMDOoBWDE3sSQ3WnBi8ikAjd8DFLcihA6pEaU3oCLC/pxll65M+ARuTwxz8dSD7s6ABuDqQzUjpAjd6MpO7sCCeNAM3WU+oA7WQIOD8GEGNoWwnoGHsJyPFKW575SPiD36kN5Imnl/gQe/kjgeMSTeNxzHbZgzp1PxP6dTr1886dOxosPmoe6qKjrksFYbn8uV4e0C5YvX7Dmj06EVMyWS9Ptae8C2NKqCTeqpNCo1YTCEC6cmnKLy6pHHFMAmqHtqdKHEenBpKjozsQwtuggdQVWFu1o5XUgFoXnZtVkpiNcb4LwEWDG5t56aRL855mWoWOlwH0pH+gWSOO4NjZSWouAjIJwnTTm/diGIyPK90GuPvGmCV0jvohUEr6kBhdENWCD+0cSKm/HzqQ3vpQxzKvnaZn9Bk16de8LIkKUurWFAQdNxb/eTQdqzqX6xlgBGRwmhsW6SkpHZJ6W2AOiS1AMwAS35DQBrWpZTmWbogAtehk4LJ62X2LUe64cVJ5UTad6nsjSzfX7bzYZR8jnblQNTh5CYzsaexF2BU99R89f9h8+OF/hJ7NGO22ZoMQiOlNiMQx6K1yhaSGKc4cQAWsKjz2B+PWFfo0c6xcUjF4B4Z+Y4RPXirLt0sY7TN6tbQmL/EX3kQTJF31JgCSBmDrbhcDADdAlsogQKezOeTPoI6tkb3Gk1eXJTV0kNjcJKKXQK4w4lu+ReE9KufZg/BqAS0h+Jxdnczh8yQTThLA0xI5LUO1vaLZoXhBQH7CkMjxK8vYDBwRXBjHFUGdTk2gE9gOgANuMT4uSZVLksQ3NB2Fbp0Ufr7do1GsKsxyOiNcTtfhrjOgTa8s+CK5zcfQaWF27GAU6DKoN7SnXL2oS3d5ABxJzUW3JIOQDTc/gDVLam6O2BEZ4EYAAGbyoPJcTFOCGgBz1AZSGqAC9vufarFKT3VLZ0CdGg1f0hWvrsEH+VMQNhSyHeHD7tGBIoCkAgFm2wpjWfyKVsSoOJVFIl3WkQoHiuO8hqfSkZ7IvsSxUSo48isO98U0db1hemJ2OACheLDB1AdPLe1YBOBJ1VJYRmZQ8Y/zB4CTRA4w50FkyyfRvUgmwKybOenRSeV4LjADYGY9LnHUgXjzhOON9VS7rqni2Dut7RehbgVo4S1YzoBNME4sJ8rh2YY/dVirUw9FGtgpU1IrmJdFv97a0uGH0XnM1UrdUIWZd0QdeaKTPtkySUWthpQFU9ZFMoKqqpt+A6VJZIublqoCX2zVA4RSIwKMA4B0UIAbDgS6ccR0YfijKCeMqAvxE3M8arfVDkCcAK3FOVZXUc30ZIuXTDRgFCZDGF7Vh5oQlOBEephYwOLf/9/euXdVcWRRHBQEdYJmrUkmmu//tfJXVuZhNI4BNfhg9m+f2tV1m74XUECYRUHfqjr1PrX79KlHV08SeHSPGBrdMGj0d0k9BoxgjqTlVKLPvE0tfRnVIrMcDAL8Nojqsyc6fh416NfE2RW4yYNCM3ikrNtnjLaFatMBkPXTFGgwHZJvgqRqWA1kldIhlurlTMxbZVN//jqg26CQaV/0aebo4YOxInyABQ7057N9qK7bDJIREOIHYTAUexOgwyDiOU0IshdB7QwFRCqZRBS67UNcai/D3p50530dUyvdmoUXThDyPLXSHL3VafxSQdi6GlAH2MlvqMONd054m1xUunyB6EShX5ZMYs6DVzrFkZJzUizldrNoSGBWUtkLxNQdU3WsOKNT39fg+kQCEYnNJjjelGdsxlPf0plmqsludQNpcPIl9gqoYdO6TDwTImCzNZAFASqFPsQA8Uh7HVg+398/UAMY3GsQqQHjewEb1YQ3aCKlyT8Ap7z/fzNC+PaA9Lz9YilttaPeNwTEfG8dQQeIkdAPdh8KJx+9xgFemNLLbAdQNuaMatxgUJc1kRbWgD7WKTgdaXHrAM9idCKNoAv4bAvMsdGV0YMe6X26fW3K4e6kIdytgNdvyKhiPH5474xHUK3716YnngApl4qEManUnX07OJB+G9UOFuLeaQIh55ojBJndQCoj5LhQOxCI0KJ20OIRg3P3WeFj/LWSGgBT2W7rbuFET874oDHo1nqK+BA/KpjHTS28SEWRZsPdinmrRjGQxFB4jG+SwR/6nX07OAAOJkDrIExJZmY63v+l03KlZuyqz3mCM0uG0FPve5xV2ym0aYv5+SaFl2wFdkYsha+jrYCaSJhE7oAG4GoA5zJzxgeNIYzlW6b3fvrpH9qW+mrrt9/+6QEDe0R4xLA1FWl9eKh92FS+PWrGMlKWC777uTUcGAHNUxhA09+8FXWsryegrj56fODzF3/99VevRH+v/eOscTDWArD8dYN/vBpWVmhj+Bo3+a2AOgWQ0Qhog1gj2BNNZX3WlXBA/UDTexxje6x91UhjdCofQKK9mYxwP3zQaZ9qKGYczUZKkxcmtj13PzeKA/R/+gc3ZpLQ9fYTEwNM5SKpHUfY4Cxz1BEW6uhmBCB7871/3BMPkwAlvK4ZuEWk7HXXnFHE68vkCUzlsS2Nkc5IZr2E+llTVhzkEmnNe3yEMQe5t/dw69mzZ5714J1G7l4WZTiw/fDwyGCvvKebImVRDib+1OXO/rYcCIDpl7ixuRjw1et8mr4F0JrpYPfmic5ZZCqXOK9e/eH3W9kj7cGhNrzV+oXUEuWpHncDyX/xIsa6sDV0MlyU1ATMMwN4Vj+axPaZE6IhrTlBH+X/id7qQPl/rbMxPmnNn8PbfYyZwP/pY50Q7/f15PcKksqBAZg7YJsNN/pnBDSLK6xHoG4caYUQ+5PeaDFW1Qqe1n9pWo80f9PxEn/TIgv7huh/sEVE/3Vw1haBmmVbA/Ied304DFwEtQtVIPaKtPZdWgPFNBBQc4LQzm49lj7saYAgleT4hNN39P6Z5q/5hgxqyTsNFg41G+JN4MrbN6psYJ0yqdToxn9nvj0H0t8loaVDS614K9ACaMZMHHvwQFtI6TvCeFLf1yARYQegvXLIKjP9Xh1PR0u4DRf+dllVFbbiP48Nl4i3COqwcJ4RBfGBnxOpIKgi7HdgwzrbHu7zfpMMdyOzIRjuZKb4WOP3zj41lEfWkb75TbvY0cdNQzMxxL2T2MWLm/Q7BzRTtJbQUivRo+lnZjl2NR+tmYKtw3c6Pkz6NKuFYIHPXDzYrb1AbhfyzBcgLgndsSY0+E8RDGzZPewcbvI/F6gjrRkcuAA1IFN7AJxXnk44K0MAZ2R77ykwPdn65296UVfOA79kqo8j6W72e418BVY6Wb0lo7u37ge3lx/AjSE/DGXemW/DgRHQSOkCtE4W0ILbmz/fFKDVgUwYMB/98UMdcsS+oIdPvtM7h9+pnwVoCS8Ab0AEnJHS+PkL/QvskTtrQR0gjQUF3G4oYFbhqB9gz8f5CtjcJky4Hz86diNRO5ivZmEG/Zplc0bEnKHGwgzm86dHHk2T76hjpw5jhe/c18OBgDmzHJm2Yz3iUINC9vbQh3T+7oNaMea0Ll4i8YE0WpxjYY45aYQUoOUfU+6ZhA6QR6CHNtiVw/QbfE6UMyQ1EZNoBdBqSBrtmw9U++xP0fXHKZ682vX855+3/tS5cy9fvjJon+iMC1YiH2tqh/fVDnWYOW+jf/zwxAOLVCzvOVIm1525Hg7QpzG4ATRg5kJCe4VYgGZchLBiT4cP5xFwUTde/v7SIEfdfCw9GlD38VPLOHiabIEbIA/AvaibrEkTs1ZSJ8K6AkaQq+YGs2RxBzuDxd0DZS/mvNEBL0jr+mi9Di7RDAns47yHD9LHGGwUO4uRPMYANquTmLEOJtz9XBkHIqwioWuVUDp0m4f24ookNDvvdu7VO4WcLoCERj2hz9CjAbWn79CZW23dj00So4NzpW896wFN8fu5MwtAj6BLutgjQxZBnTuWBLgjLdPghI9+KlL6dakjoJQdhwwSnv383MA90sAC5hRodZ7IYybo61RV9G307H70gspN/ncDyLHLLt+d/iRn3ICTq1THmuFA8BxJ5fik79+wqHZfJyrR58cC8/F7HZwprBzosB42KnmzksANbiJAAz7s0wNA4k0Av4h7iRuLoB4jUgANdWWQyAPYVmhKpJilhCB2FY+ldY7cOlADuYMBLBtaWJzhjD62IH7WCPnkiDlOnSSvR5sZrFsbG2lhf6tQbi68lH1nLo8D6Vf6AUFjQEs1ZHMS6sa799pG+lEHzkuaMpPFwC86NGmhcegRUhoVs+ajqV+BFXTX9B3qRqQxdoG87NPgXieZ6f91GFgE9Txy/NgUEgYEcPar+ujTGNO98YkmlbbNrAjvpL3RNB661/Z7nZov3frhXu3Wyoaoo0O9oW0pX5I6ZZNnJHZoLkw/c3/od/bZHHDfNQGyAmgGhJLODAjfMVslCc08NAN5n1suCc3ytwI8uwWgGUehdpaELqFD39S0XdldtbCqsSS1C6yVbr07Am6p7xdBvY4VY0EBN3ED6kKjfpm4rn9nBdR3dJTWw0d8g/GT7vwj6WDarqpZEFXbTIBZSAfC680ZBonFGCQ219IAcqlRLvTuZyMHLHgUw58O5MQt8Z1VQs4c5zUsb07yHDR7onVEmMZBHH+BYPGLAMcfLWUZKD7WFmQ+Z8G3aQxoizIlEqAt1gA20lkX0roD24BfBjZxHb/FGbGXPo9N/UZzblAnA2wKw4QxudtVY89ZK8DiuSS3NkHp7WtSEO+hGv/s+XPNirzZ+v33383Up/oS1b50b04F9csFGlT+pe2LKkrMBtB6v+1ER9wqfYBN+dQl9cL//2bStvD5stqX/gqgGc8w0OONlZrlYHelPiokP33wWCpFBu6E//HqpcZLOvuOXXeah0ZC7wjQlsgAGizrx/UXJtJPK3YLX6G1/hxpAXZsws4y5wZ1MiJTCoAxsUNLHAU252CLxgaoB9scn1Cf0+BQHPYHoMOxV8RnYWvJffeBdGkxjRF2bZph+ZXbAkZV1ikzHZ7Gxu51uSLHl5SzKU3asVTdMd1SvDF8KT20pMPOxdNvBDQzHQCZJyaChPlm8k4/e7ZK/cTYib5ihoPNSuytJ47R3PtHPqXt03WS0N1Nnu1yHOK1i3zijh1abOibzIVAPWZGATAn9ljIyEBxQK3TNIgbrcGf/OKl7+6fNY+NvsYAEd0N4PKaGN/R88BSj0QMDGaivxoJs+rRRFjqVGHFHOhXbVLuVZdzmfkHzNgcoM9TkME7IOZCgDADBWiRzOysQy1hFdj7OSTRmfl4qrERA8Kah85+DtW0A7qBFFUDMI+gnUnuADU2cXHnGtPGDU9wrzMXAvWYWQqHFhCnkPi7nQAUbRnUEja6sC01UvvkpGZAPMXHCqSk9TSKLuaQEukCo8MEyhgbGHfsXvQ1ONaVGT6kCvN48zYk3tw+b7wxHWnm5ZsmPnoKFZu5V/EWnLAB7d52fe6kxje1OQm+E4F+45xtQL3tj3YC2qlEt02ErkPj1oUeHV3aUroB12Fyx94EZuetomJPpa66LgxqkqcCyWqJaYTN6QVnMU5hYqUlNrrYk4OnkgoPpc8x4j7c+te//2VJ/ZM+pXxwoIPJBX7O86NcLiT3x4915ALlpJGxYcwS/XR9HO2rf1LueTOa12Oe/qzwlLMuXuixiT+64weoqHn+7DTTrn7rW6HiMYP5F/95YR2b72WiZjDuYRqWpe8AmryUwGncDj9Fq5/wW/goHCDbj91A3MNbGP5Nl0tSnLPMF4E6maYCARF0mBf/yMhJRgPtMth8FuH+Q60yAlw92tDxdnYOLZFRSxhts1iDWpLjFooZMKAAjW3myRGbOJjRHuvjwEv4Sf4XzeqsuiT8rPyneFMNeEMJQxgX4EUNKGHbwGXVgHNcpEayj4dVQW0VRg1hC8NbbVhCUqNuwH/0Zw4IRVIrh6mw5qSeHig2dYN+8AWdP/rGccpOeKWrfhv7LvS5PRW83vXFoKYwDBUZTRhJeMKg0SDdorokpdVwHHrg1SVFW9iVBNiWvnbfU0RM+P+h76n89/Vr7/Q60MwIo+3Hj3VClAaaLLUjvUtnq8cXN0CYQJ1Sx9ipz1jfr3Un74vmA082mYSflX/iVV4F4tY1ArT4q3LIAzfntsD/EivFu086Y5vxCgc4Ip1fi998MYI8fvzhB79TyHQrU7KMc8iLv+RiJzSudqPghtdWM9bo0I7f0hF39Cf9aOM+r/liUKeAFBw/TFxldEmMhNtuHUq35oIOU5DY6Guce80uvhwuyGAFqUGKvU+S3NK5vb9kB4bCFHIoIIdJ8Tughc1pCcOe13sMw30Rxs7TLvnPKm8pzXpa8X26V+qmoQwk9WcJDuoPnwjx9wyRygIzah/85eKtbwaPvIqHyvGdvsJb/ER4ic8N0Fh2Y5Nvk8zBwyZAp3+qPtRpughLeGzCL2K0x39iw0USJm6Sh3k8soqJNaDDHVqPYybD6LrQ63A7XNVhKg/p8V4zIyyr88YMA0gM0oLHIW9SfKfXhB5pjtQnQWm0jqTmIo53hyn+EkOWaM78lv2E91O14V185eBsw3yEk37wFJ54iWr3WoeeIzhYGWThBb5b3dP7pvt8Vk86dFYIgbANAJTDPAwYZxKasBoYFlhHcMa9yZ6HpUXntS9FUsNcGuLG6E6LCdNP2YnQbLNf6WGqhuICeE0p7e4ceFByn70HAvdf7zWHKsnC3mw6iLMlmOdm8p8OsO6tRyWy6N69OrMk03/uhFbe6J5V5ZZ7gVskcwRFCRV0ZbaOsqjijf7ipwEtP/PPIJXZKJ6ST/TNyAfa1lD9ZgiD4s6b9LVtAdpSmv5vakRmOVbiKXwO1nX+pOsFXtDx1aCmPCoRYFPRJUMcpHFMY5Xv+s8KE1IVDm/1do1PDi1aTSEB7vqkdOZTWUqnUyiPAcyBPgH3d32fkHowRQWdpV2rKJbi6IOU7h/XOXW5jXb4Pa87PIZHPOmw8dNuhMIf+jovOjPniDOdt7evAxo1+1SHy+jLxZrVwM94BYNAKEdZsK4AN+nAmYeegFxhHhSqD2yrAmcBeB7+NcC+FFDTZCoRg5tKntvwzOyPTVLVY5TBDUx5oAEhKoU/mqTOAtASOdV5ktZsi+SxiiTy+3CS1jw+UU3QHeng2jVW04AsLEy7yMZaTm0YqUvusb1L4dBK0lXoPP4Yti79En2eDtB6RVbtjBrHU4w2A2Qkc9lS47Tjjv3Q7GGnfzjjEEBbfRPPEACoH63GU582ttCGGr8glatv/CQ0fQrrQG70OWDjD07ijz3n1RIfNtEuDdQUkspQOZiNjZl3hInDDy/vemCu6PBvW1NMSq4rSEed4Lt7AqXAzYHu+/uP/EKvvwymzvuvjmX45ZdfDP5nz55v/fjjD8pr22DnJiCv0hf3vXhQc60ujRpSaqs/NpVrPYnzDJP2pf3xb0p2njikT7y5XXXkRQtmLdgaynYDjijYFki1eKLBHjf7ixcvtjghCR58z4dJNQ55qu8VMqNxT0foIizuM5MkMAdUVe/WfrOoeEPeXSKjdgz+ABlaV0cIV8c53swOLeFOR9p2beLdWWGXCmoKo1IYKhtgp0McsPDTwzuGuwOtBLldkkF5Epe9BkhbzYNsHWt6D4M0UqClNxLbH5yU9OImcGcLpEwFHu/z7RFto5SEoiM9LQgjlXcYbEC3dhjvrkGDOXF9A1DqDPjxpvpEwYRevrqH5KZdPX+nmQZ6VTwJ89TCRkWTrTvem5HUPvZqMGsRXRmGoT7Ae4DOxn5mOOAbAGb8wYog7Wdsog5Tu7O3JhUsO33pOMwwGcirqkcHs3lyGsTkEb7GDm3uh97LXK3KhXxfPfuxrjSYyAVz59c6Oi8VOK47j9Wu8icvQBs3HSyfAcp2SQaQdJ71SUmsmqqSmiJGsVqJWsIgaEdAZt8DHYS0ZnN7dqBxA4TRtIvyXR4e4avATCfBfHWuibhbBKwzDXkqb9rCH8CiLb1tlYE7noyddz21/Ok2DepoI5KXLaLs36DOqBwAm9kiPj9BG5HGLFrZxt2+xYO/1IyWeSskgFqxG9BK3QiwaXPxAFB3YLe41Cd8rHingZ3w2Il3JvvOEeHSJfVYZipKxUdDBy6a0BEgigBsbfcOV4A6ywZQib7NiuR+rXpRDuBGSv/5+U/PubKk7nfoNI3FTAlnb7LQgAT0/hNJtXo9SY9fJHeu1jFmOvWnwyhYP7jsE62RbKdVRTVJpSwY2uM/hREh7bZzEgRdR26CoWZ8alouwIaX3JTUip2OqB28C4qh7tzQT6V2sLG/+K6aewCITSwG+bbwGKxuawNo+rCDekY3qFVOj6dw82yIF/86m7SXaa5EUo+gxT1ec6mNn/AVOmnoSCTYTFqXJJ/ypEc8Fdg6BAAjxZh3/Sw1gw5mIMXG9g+yAYaN+AgzldxAqE09bOjR4EmzAp4Ll2THroFlqT6jClDtipQdu2WC8uRSOKt6RHPZVT4Aq5VRSTctWdM+njJ9gPeOveWap1e96Xvi87Rx3bkj3P7amkA92UrAEyc3J6pIVK2phgVo2l6VKTvAtORtOnOn5ek0gJWwSOkAdoq/DPTEi534U92+3nWlktqsakwIsJeqTNhokMDI422BQNB2Bwb8jkc4aQT6knTtSSASurGnpvSIhWE8sv1YlpQWOkp3Fl23ggGEZDNQBRryBPQccsjLCkj9twIKuiiGOhDuG6vdjGO7KM+GusmstmogtGjEp3MNagG6VIKtdhPW8bilTumLusqTQZrw7LNWuAGYvSArbkjyqJkMBtHaBKY6m68qo+oVyUzNqgKpriKIUvGiN2eqjrSuZ7Pjjz0Hp+MOkjvhsefh+C/bXImkXqpkOj92gLFkEwf6aMft+ITrsl5tG4CX9J5sdZ34FaCuliPQSi0xoGVjALmyMI0ZBb8BIv0UqYmkR8p76kxPAuLy7wIEhrHDnFn7GfuLvEkz1jtxucXoXEANGJG4AJT9zByyWTpw27cMBpjqFHC8CUxpPCMhPzQu8oFGkZiqxzJ4KNfjA9tySyKXpJ5J2oTP7LHtlVe7CVQP/AmPPcbBfRXmyiV1Kp0GYAMwGrnOAGAMNvEDaBNhBHTl4TGW3IR7wOVubOhp/KJrt3dgMKnJS9IWQCNxLZVrulBdYcABXJaNyRNAYwzEdpMpmnZAqO6uvlzK2B3WOtEJ2k+VOVFST/Zh2E2Q619PI9xc1IXdc4CZAS6X9Wa3XfWh4XJzAxjAnr2ggXVjdl5PRa+4erjywD1e68A3xol7KW5osYk7upN2pUKX7Lk2SZ1605kY7FEar0rSZSmdNIBsBJp1b/JVZxssco/lpOx0etlTnDEcsOeRjwoS4Cu2o/VOEYaAEQDsNGKoE8l/NIS7PiIv1WuFpjjEBwhsxeVFCQCNrg+drB1f7iq3JOJY3ik3VZKhrrZ72uQx2UsArHKmOKN/Hj/+2ImLP2WPtomX/HNtkjr1ppF0CjYNTYcmHJswQB47cdKZSmRJ7bP8iKfHMWHeF9wGl/aLpkxAQSuHjnEJzR5LJQ7RBRJJPt6TVGxHqLpWvbK/5m4UewAABLhJREFUoUIqfYtVRfUslZmNQolgr35CbqFYFaTyGRSr/p6Lps4KC59GFSH8qIyHjOZOF93KJy8qIgZ0FQM3f9gXvJZAmzzWhaV6xLtKc+2gpjE0io5J48a7GNoI6PhJ5zSkax1uaU1++HXZD8C1PIm/rkonDw4BJaginFzp7DLFa3RSUTjscoVe9Sa5apAg25UNaYrcrKRusaeSAdKpmK43dWFq0YW07AAcsfmBb3Fjl6GdmPCzJbBlmjJwajLCrSuzFoTgv+i1DrjJZx4O/brMNwF1OoDOSGNhwtg5I7DH+KYrHVIavdrSWn4AbdAiqSO5Z+oIsMoNAAxW2Fy4UH2g+2djHzi6ylkyldXpsLoZFDoPamU7wEX7p+qhAsKXpbKghYdU3llXI0wPyAgpd8U/TU/4+ewl0JLnOvq6ul8F/ZuBeqUzWsek8wL2ABtm4R7pcWMH6AXYpopAX5HYSGahRxe2/+ztiOpYc7xN3O5JumMl9hyzCSy6fnuyecwekCS2af+K6V45mhvQBtSOb+8A0G8Aaup8qu4rDbkazzcFdZo0NjwSG2BBB7AY3NACdANz5rfkBrDtsq4NfAfakpv8oWsflfEGTiZ4NddEIPo1mI7WVlb5/duCADEG3nRQixS/bcIcPgFshZ7wZvf8mn+d5CWPTWHJB/u6zY0AdRoNozDYAV/8S5LaQFTcMQxaZkZK9y6kFj26doG4pHWBHhTjN7CVh02z53gmnus1D6hUF/5NNgamUhcbxAMXIr9zNFrtNp+KWCFKAM1/dpOm0cjMYVgtJ8eZwp220VzkEL4JuEmXOEk72q7gNf+o39OD11zyhuJSJez5FQCHPvdDn9Moak4DMM4DKLdyiFfusg3zxh7oMXEbIhM5wbbn5AGDK/HwJK7j6AdA8m/TgGiqwTaBk/AAKyDutDGs5dHjLvjHsE3unr/rsiqtCcOQ/luaGyWpwwiYAnDCnPgDJuxchM0BO8Zfikc5pgfQzQ+6JrpjGXFIZuimDOAuwgTK7gpKHaF+lro5fZ/oAbPjtsDwILngJ2ge1/R2J5R7APyQV6Wv2sR9EZt6rItfdfz2vzdSUoctAdLoN+gGUM8BPQ8f/YlLfp1uwAJHED3Ry+PfDvSK0iAYkPfKlcP5OP8ElN1w1YmnQB7gNSk9AptEBWL/Djf7QK8EhvUIOqdV3qGd5U+8JXueljih2XFDfm6kpA5vwrT4saF1QApY+APWkb7knqclP8drtjz2hx4bGBOvTINt9xfwAfwYPgSb3Po/kZpM7V4aVvFaSI9/ir4KJHy0i4ukBfuBNoQ7zhn+5LVkU8HQ48a+aeZGg3rOrHQKdNwB7ugO7Tw2+fR45enghd7DW1j8Dmg/XcJ3YkvX/ZMjgJso5SqYNmrzOK7dRShny6EDfRlk4RN2LnKPeyk8YfN4I30Mw31Tza0CdZiYTsGPuwNTQFxyE2+JHlrCY0OPiXtunwpvhIbJBK/YyXVTnIjwfgMMACazse3yOHpoo73JTdg8PLQl+tiIhI+0m+a+laAOE0cG456DNP4RkCMtbvJbipNyEjbGm4clzlinxPkSe57POn/ooz26KRv//Ao99hgeGjYm+ZXv5v/+D+IGHRgZdCqeAAAAAElFTkSuQmCC;" vertex="1" parent="7">
                    <mxGeometry x="480" y="50" width="96.1" height="283" as="geometry"/>
                </mxCell>
            </root>
        </mxGraphModel>
    </diagram>
</mxfile>